<?xml version="1.0" encoding="utf-8"?>
<!-- Generator: Adobe Illustrator 28.3.0, SVG Export Plug-In . SVG Version: 6.00 Build 0)  -->
<svg version="1.1" id="Layer_1" xmlns="http://www.w3.org/2000/svg" xmlns:xlink="http://www.w3.org/1999/xlink" x="0px" y="0px"
	 viewBox="0 0 58.3 48.1" style="enable-background:new 0 0 58.3 48.1;" xml:space="preserve">
<style type="text/css">
	.st0{fill:#FFFFFF;}
	.st1{fill:#5FAE2F;}
	.st2{fill:#DA9A00;}
	.st3{fill:#EBAE00;}
	.st4{fill:#BB5E0D;}
	.st5{fill:#58494C;}
	.st6{fill:#1E0E05;}
	.st7{fill:#FFBB94;}
	.st8{clip-path:url(#SVGID_00000005239054876244434480000000472356337154624400_);}
	.st9{fill:none;stroke:#E37D34;stroke-width:0.1708;stroke-miterlimit:10;}
</style>
<path class="st0" d="M58.3,25.3v8.5c-0.9,1.7-2.3,3.6-4,6.1c-3.1,4.5-5.5,6.6-6.9,8.2H0V19.8c1.1-0.6,2.4-1.1,3.9-1.1
	c5.1-0.2,6.8,4.2,10.5,3.3c5.5-1.4,3.8-11.9,10.4-15.2C30.2,4,35.9,9.2,39.1,6.1c1.4-1.4,1.7-3.8,1.4-6.1h7.8
	c-1.7,2.6-2.7,5.6-2.4,8.3c0.2,2.2,1.7,4.3,4.7,8.3C54.5,21.7,57,23.6,58.3,25.3z"/>
<text transform="matrix(1 0 0 1 -14.6218 99.0055)"><tspan x="0" y="0" style="font-family:'Poppins-Bold'; font-size:12px;">Rara... Wat is </tspan><tspan x="7.3" y="14.4" style="font-family:'Poppins-Bold'; font-size:12px;">het woord?</tspan></text>
<g>
	<path d="M10.4,35.3l-0.9-1.7H9.2v1.7H8.1v-4.5h1.8c0.4,0,0.7,0.1,0.9,0.2c0.2,0.1,0.4,0.3,0.6,0.5c0.1,0.2,0.2,0.5,0.2,0.7
		c0,0.3-0.1,0.6-0.3,0.8c-0.2,0.2-0.4,0.4-0.7,0.5l1,1.8H10.4z M9.2,32.9h0.7c0.2,0,0.4,0,0.5-0.1c0.1-0.1,0.2-0.2,0.2-0.4
		c0-0.2,0-0.3-0.2-0.4c-0.1-0.1-0.3-0.1-0.5-0.1H9.2V32.9z"/>
	<path d="M12.2,32.6c0.1-0.3,0.3-0.5,0.6-0.6c0.2-0.1,0.5-0.2,0.8-0.2c0.3,0,0.5,0.1,0.7,0.2s0.3,0.2,0.4,0.4v-0.5h1.1v3.6h-1.1
		v-0.5c-0.1,0.2-0.3,0.3-0.4,0.4c-0.2,0.1-0.4,0.2-0.7,0.2c-0.3,0-0.6-0.1-0.8-0.2c-0.2-0.2-0.4-0.4-0.6-0.6c-0.1-0.3-0.2-0.6-0.2-1
		C12,33.2,12.1,32.8,12.2,32.6z M14.5,32.9c-0.2-0.2-0.3-0.2-0.6-0.2c-0.2,0-0.4,0.1-0.6,0.2c-0.2,0.2-0.2,0.4-0.2,0.6
		c0,0.3,0.1,0.5,0.2,0.6c0.2,0.2,0.3,0.2,0.6,0.2c0.2,0,0.4-0.1,0.6-0.2c0.2-0.2,0.2-0.4,0.2-0.6C14.7,33.3,14.6,33.1,14.5,32.9z"/>
	<path d="M18.2,31.9c0.2-0.1,0.4-0.2,0.6-0.2v1.2h-0.3c-0.3,0-0.5,0.1-0.6,0.2c-0.1,0.1-0.2,0.3-0.2,0.6v1.7h-1.1v-3.6h1.1v0.6
		C17.8,32.2,18,32,18.2,31.9z"/>
	<path d="M19.3,32.6c0.1-0.3,0.3-0.5,0.6-0.6c0.2-0.1,0.5-0.2,0.8-0.2c0.3,0,0.5,0.1,0.7,0.2c0.2,0.1,0.3,0.2,0.4,0.4v-0.5h1.1v3.6
		h-1.1v-0.5c-0.1,0.2-0.3,0.3-0.4,0.4c-0.2,0.1-0.4,0.2-0.7,0.2c-0.3,0-0.6-0.1-0.8-0.2c-0.2-0.2-0.4-0.4-0.6-0.6
		c-0.1-0.3-0.2-0.6-0.2-1C19.1,33.2,19.2,32.8,19.3,32.6z M21.6,32.9c-0.2-0.2-0.3-0.2-0.6-0.2c-0.2,0-0.4,0.1-0.6,0.2
		c-0.2,0.2-0.2,0.4-0.2,0.6c0,0.3,0.1,0.5,0.2,0.6c0.2,0.2,0.3,0.2,0.6,0.2c0.2,0,0.4-0.1,0.6-0.2c0.2-0.2,0.2-0.4,0.2-0.6
		C21.8,33.3,21.7,33.1,21.6,32.9z"/>
	<path d="M23.7,35.2c-0.1-0.1-0.2-0.3-0.2-0.4c0-0.2,0.1-0.3,0.2-0.4c0.1-0.1,0.3-0.2,0.5-0.2c0.2,0,0.3,0.1,0.5,0.2
		c0.1,0.1,0.2,0.3,0.2,0.4c0,0.2-0.1,0.3-0.2,0.4c-0.1,0.1-0.3,0.2-0.5,0.2C24,35.4,23.8,35.3,23.7,35.2z"/>
	<path d="M25.5,35.2c-0.1-0.1-0.2-0.3-0.2-0.4c0-0.2,0.1-0.3,0.2-0.4c0.1-0.1,0.3-0.2,0.5-0.2c0.2,0,0.3,0.1,0.5,0.2
		c0.1,0.1,0.2,0.3,0.2,0.4c0,0.2-0.1,0.3-0.2,0.4c-0.1,0.1-0.3,0.2-0.5,0.2C25.8,35.4,25.6,35.3,25.5,35.2z"/>
	<path d="M27.3,35.2c-0.1-0.1-0.2-0.3-0.2-0.4c0-0.2,0.1-0.3,0.2-0.4c0.1-0.1,0.3-0.2,0.5-0.2c0.2,0,0.3,0.1,0.5,0.2
		c0.1,0.1,0.2,0.3,0.2,0.4c0,0.2-0.1,0.3-0.2,0.4c-0.1,0.1-0.3,0.2-0.5,0.2C27.6,35.4,27.5,35.3,27.3,35.2z"/>
	<path d="M36.6,30.8l-1.2,4.5h-1.3l-0.7-3l-0.7,3h-1.3l-1.1-4.5h1.2l0.6,3.3l0.8-3.3H34l0.8,3.3l0.7-3.3H36.6z"/>
	<path d="M37.2,32.6c0.1-0.3,0.3-0.5,0.6-0.6c0.2-0.1,0.5-0.2,0.8-0.2c0.3,0,0.5,0.1,0.7,0.2c0.2,0.1,0.3,0.2,0.4,0.4v-0.5h1.1v3.6
		h-1.1v-0.5c-0.1,0.2-0.3,0.3-0.4,0.4c-0.2,0.1-0.4,0.2-0.7,0.2c-0.3,0-0.6-0.1-0.8-0.2s-0.4-0.4-0.6-0.6c-0.1-0.3-0.2-0.6-0.2-1
		C37,33.2,37,32.8,37.2,32.6z M39.4,32.9c-0.2-0.2-0.3-0.2-0.6-0.2c-0.2,0-0.4,0.1-0.6,0.2c-0.2,0.2-0.2,0.4-0.2,0.6
		c0,0.3,0.1,0.5,0.2,0.6c0.2,0.2,0.3,0.2,0.6,0.2c0.2,0,0.4-0.1,0.6-0.2c0.2-0.2,0.2-0.4,0.2-0.6C39.6,33.3,39.6,33.1,39.4,32.9z"/>
	<path d="M43.5,34.4v0.9H43c-0.4,0-0.7-0.1-0.9-0.3c-0.2-0.2-0.3-0.5-0.3-0.9v-1.4h-0.4v-0.9h0.4v-0.9h1.1v0.9h0.7v0.9h-0.7v1.4
		c0,0.1,0,0.2,0.1,0.2c0.1,0,0.1,0.1,0.3,0.1H43.5z"/>
	<path d="M45.6,31.2c-0.1-0.1-0.2-0.3-0.2-0.4c0-0.2,0.1-0.3,0.2-0.4c0.1-0.1,0.3-0.2,0.5-0.2c0.2,0,0.3,0.1,0.5,0.2
		c0.1,0.1,0.2,0.3,0.2,0.4c0,0.2-0.1,0.3-0.2,0.4c-0.1,0.1-0.3,0.2-0.5,0.2C45.8,31.4,45.7,31.3,45.6,31.2z M46.6,31.8v3.6h-1.1
		v-3.6H46.6z"/>
	<path d="M48,35.2c-0.2-0.1-0.4-0.3-0.6-0.4c-0.1-0.2-0.2-0.4-0.2-0.6h1.1c0,0.1,0.1,0.2,0.2,0.3c0.1,0.1,0.2,0.1,0.4,0.1
		c0.1,0,0.2,0,0.3-0.1c0.1-0.1,0.1-0.1,0.1-0.2c0-0.1-0.1-0.2-0.2-0.2c-0.1,0-0.3-0.1-0.5-0.2c-0.3-0.1-0.5-0.1-0.6-0.2
		c-0.2-0.1-0.3-0.2-0.4-0.3c-0.1-0.1-0.2-0.3-0.2-0.6c0-0.2,0.1-0.4,0.2-0.6c0.1-0.2,0.3-0.3,0.5-0.4c0.2-0.1,0.5-0.1,0.8-0.1
		c0.4,0,0.8,0.1,1.1,0.3c0.3,0.2,0.4,0.5,0.4,0.9h-1c0-0.1-0.1-0.2-0.2-0.3c-0.1-0.1-0.2-0.1-0.4-0.1c-0.1,0-0.2,0-0.3,0.1
		c-0.1,0-0.1,0.1-0.1,0.2c0,0.1,0.1,0.2,0.2,0.2c0.1,0.1,0.3,0.1,0.5,0.2c0.3,0.1,0.5,0.1,0.6,0.2c0.2,0.1,0.3,0.2,0.4,0.3
		c0.1,0.1,0.2,0.3,0.2,0.6c0,0.2-0.1,0.4-0.2,0.6c-0.1,0.2-0.3,0.3-0.5,0.4c-0.2,0.1-0.5,0.1-0.8,0.1C48.5,35.4,48.2,35.3,48,35.2z"
		/>
	<path d="M15.2,39.8c0.2,0.3,0.4,0.6,0.4,1.1V43h-1.1v-1.9c0-0.2-0.1-0.4-0.2-0.6c-0.1-0.1-0.3-0.2-0.5-0.2c-0.2,0-0.4,0.1-0.5,0.2
		c-0.1,0.1-0.2,0.3-0.2,0.6V43H12v-4.7h1.1v1.6c0.1-0.2,0.3-0.3,0.5-0.4c0.2-0.1,0.4-0.1,0.6-0.1C14.6,39.4,14.9,39.5,15.2,39.8z"/>
	<path d="M19.6,41.5h-2.5c0,0.2,0.1,0.4,0.2,0.5c0.1,0.1,0.3,0.2,0.5,0.2c0.3,0,0.5-0.1,0.6-0.3h1.2c-0.1,0.2-0.2,0.4-0.3,0.6
		c-0.2,0.2-0.4,0.3-0.6,0.4c-0.2,0.1-0.5,0.2-0.8,0.2c-0.3,0-0.7-0.1-0.9-0.2c-0.3-0.1-0.5-0.4-0.6-0.6c-0.2-0.3-0.2-0.6-0.2-1
		c0-0.4,0.1-0.7,0.2-1c0.2-0.3,0.4-0.5,0.6-0.6c0.3-0.1,0.6-0.2,0.9-0.2c0.3,0,0.7,0.1,0.9,0.2c0.3,0.1,0.5,0.4,0.6,0.6
		c0.2,0.3,0.2,0.6,0.2,0.9C19.7,41.3,19.6,41.4,19.6,41.5z M18.5,40.9c0-0.2-0.1-0.3-0.2-0.4c-0.1-0.1-0.3-0.2-0.5-0.2
		c-0.2,0-0.3,0.1-0.5,0.2c-0.1,0.1-0.2,0.3-0.2,0.5H18.5z"/>
	<path d="M22.2,42.1V43h-0.6c-0.4,0-0.7-0.1-0.9-0.3c-0.2-0.2-0.3-0.5-0.3-0.9v-1.4H20v-0.9h0.4v-0.9h1.1v0.9h0.7v0.9h-0.7v1.4
		c0,0.1,0,0.2,0.1,0.2c0.1,0,0.1,0.1,0.3,0.1H22.2z"/>
	<path d="M29.3,39.4l-1,3.6h-1.2l-0.6-2.3L26,43h-1.2l-1-3.6h1.1l0.5,2.6l0.6-2.6h1.2l0.6,2.5l0.5-2.5H29.3z"/>
	<path d="M30.4,42.8c-0.3-0.1-0.5-0.4-0.7-0.6c-0.2-0.3-0.2-0.6-0.2-1c0-0.4,0.1-0.7,0.2-1c0.2-0.3,0.4-0.5,0.7-0.6s0.6-0.2,0.9-0.2
		c0.3,0,0.7,0.1,0.9,0.2c0.3,0.1,0.5,0.4,0.7,0.6c0.2,0.3,0.2,0.6,0.2,1c0,0.4-0.1,0.7-0.2,1c-0.2,0.3-0.4,0.5-0.7,0.6
		c-0.3,0.1-0.6,0.2-0.9,0.2C31,43.1,30.7,43,30.4,42.8z M31.9,41.9c0.1-0.2,0.2-0.4,0.2-0.7c0-0.3-0.1-0.5-0.2-0.7
		c-0.1-0.2-0.3-0.2-0.5-0.2c-0.2,0-0.4,0.1-0.5,0.2c-0.1,0.2-0.2,0.4-0.2,0.7c0,0.3,0.1,0.5,0.2,0.7c0.1,0.2,0.3,0.2,0.5,0.2
		C31.6,42.1,31.7,42,31.9,41.9z"/>
	<path d="M34.5,42.8c-0.3-0.1-0.5-0.4-0.7-0.6c-0.2-0.3-0.2-0.6-0.2-1c0-0.4,0.1-0.7,0.2-1c0.2-0.3,0.4-0.5,0.7-0.6s0.6-0.2,0.9-0.2
		c0.3,0,0.7,0.1,0.9,0.2s0.5,0.4,0.7,0.6c0.2,0.3,0.2,0.6,0.2,1c0,0.4-0.1,0.7-0.2,1c-0.2,0.3-0.4,0.5-0.7,0.6
		c-0.3,0.1-0.6,0.2-1,0.2S34.8,43,34.5,42.8z M36,41.9c0.1-0.2,0.2-0.4,0.2-0.7c0-0.3-0.1-0.5-0.2-0.7c-0.1-0.2-0.3-0.2-0.5-0.2
		c-0.2,0-0.4,0.1-0.5,0.2c-0.1,0.2-0.2,0.4-0.2,0.7c0,0.3,0.1,0.5,0.2,0.7c0.1,0.2,0.3,0.2,0.5,0.2C35.6,42.1,35.8,42,36,41.9z"/>
	<path d="M39.4,39.6c0.2-0.1,0.4-0.2,0.6-0.2v1.2h-0.3c-0.3,0-0.5,0.1-0.6,0.2C39,40.8,39,41.1,39,41.3V43h-1.1v-3.6H39V40
		C39.1,39.8,39.3,39.7,39.4,39.6z"/>
	<path d="M40.6,40.2c0.1-0.3,0.3-0.5,0.6-0.6s0.5-0.2,0.8-0.2c0.2,0,0.4,0,0.6,0.1c0.2,0.1,0.3,0.2,0.5,0.4v-1.7h1.1V43h-1.1v-0.5
		c-0.1,0.2-0.2,0.3-0.4,0.4c-0.2,0.1-0.4,0.2-0.7,0.2c-0.3,0-0.6-0.1-0.8-0.2s-0.4-0.4-0.6-0.6c-0.1-0.3-0.2-0.6-0.2-1
		C40.4,40.8,40.5,40.5,40.6,40.2z M42.8,40.6c-0.2-0.2-0.3-0.2-0.6-0.2c-0.2,0-0.4,0.1-0.6,0.2c-0.2,0.2-0.2,0.4-0.2,0.6
		c0,0.3,0.1,0.5,0.2,0.6c0.2,0.2,0.3,0.2,0.6,0.2c0.2,0,0.4-0.1,0.6-0.2c0.2-0.2,0.2-0.4,0.2-0.6C43.1,40.9,43,40.7,42.8,40.6z"/>
	<path d="M47.4,38.6c0.3,0.2,0.4,0.6,0.4,1c0,0.4-0.1,0.7-0.4,0.9s-0.6,0.3-1,0.3l0,0.5h-1l0-1.2h0.4c0.3,0,0.6,0,0.8-0.1
		c0.2-0.1,0.3-0.2,0.3-0.4c0-0.1,0-0.3-0.1-0.4c-0.1-0.1-0.2-0.1-0.3-0.1c-0.2,0-0.3,0-0.4,0.1s-0.1,0.2-0.1,0.4h-1
		c0-0.3,0-0.5,0.2-0.7c0.1-0.2,0.3-0.4,0.5-0.5c0.2-0.1,0.5-0.2,0.8-0.2C46.7,38.3,47.1,38.4,47.4,38.6z M45.4,42.9
		c-0.1-0.1-0.2-0.3-0.2-0.4c0-0.2,0.1-0.3,0.2-0.4c0.1-0.1,0.3-0.2,0.5-0.2c0.2,0,0.3,0.1,0.5,0.2c0.1,0.1,0.2,0.3,0.2,0.4
		c0,0.2-0.1,0.3-0.2,0.4c-0.1,0.1-0.3,0.2-0.5,0.2C45.6,43.1,45.5,43,45.4,42.9z"/>
</g>
<path class="st1" d="M39.1,6.1C35.9,9.2,30.2,4,24.7,6.7C18.1,10,19.8,20.5,14.4,22c-3.7,1-5.4-3.5-10.5-3.3
	c-1.5,0.1-2.7,0.5-3.9,1.1V0h40.5C40.9,2.3,40.5,4.7,39.1,6.1z"/>
<path class="st1" d="M58.3,33.8v14.3H47.4c1.4-1.6,3.8-3.7,6.9-8.2C56.1,37.4,57.4,35.5,58.3,33.8z"/>
<path class="st1" d="M58.3,0v25.3c-1.4-1.7-3.8-3.7-7.7-8.8c-3-4-4.5-6-4.7-8.3c-0.3-2.7,0.6-5.7,2.4-8.3H58.3z"/>
<g>
	<path class="st2" d="M22.4,23c0,0,0,3.6-0.2,4.3C22,27.9,22,28.2,22,28.2h1.4l1.4-5.8L22.4,23z"/>
	<path class="st2" d="M30.4,20.6c0,0,1.7,3.1,1.9,4.8c0.1,1.7,0.1,1.7,0.1,1.7h1.1l1.5-6.9L30.4,20.6z"/>
	<path class="st3" d="M29.5,16.1c0,0,8.4-0.8,9.2,2.1c0.4,1.4-0.5,3.8-0.5,5.7c0,2.2-0.2,4.3-0.2,4.3h-1c0,0-0.2-3.1-2.9-5.9
		c0,0-11.7,2.6-12.1,0.1S29.5,16.1,29.5,16.1z"/>
	<path class="st4" d="M32.1,12.3c0,5.6-4.1,11-9.7,11s-10.5-5.4-10.5-11S16.4,2.2,22,2.2S32.1,6.7,32.1,12.3z"/>
	<path class="st3" d="M26.8,14.5c0,3.5-1.1,4.9-5,4.8c-4.1-0.1-5.5-1.3-5.5-4.8s2.3-6.4,5.2-6.4S26.8,10.9,26.8,14.5z"/>
	<ellipse transform="matrix(0.8161 -0.5779 0.5779 0.8161 -2.0646 11.926)" class="st3" cx="17.7" cy="9.2" rx="1.7" ry="2.1"/>
	<g>
		<path class="st5" d="M16.8,8.6c0.8-0.1,1.5,0.7,1.6,1.4C17.9,9.5,17.5,9,16.8,8.6L16.8,8.6z"/>
	</g>
	<ellipse transform="matrix(0.5779 -0.8161 0.8161 0.5779 3.4335 25.0525)" class="st3" cx="25.9" cy="9.2" rx="2.1" ry="1.7"/>
	<g>
		<path class="st5" d="M26.8,8.6C26.1,9,25.7,9.5,25.2,10C25.3,9.3,26,8.5,26.8,8.6L26.8,8.6z"/>
	</g>
	<path class="st0" d="M22.5,15.8c-0.3,0-0.6,0.1-0.9,0.3c-0.2-0.2-0.5-0.3-0.9-0.3c-0.7,0-1.3,0.6-1.3,1.4c0,0.8,0.6,1.4,1.3,1.4
		c0.3,0,0.6-0.1,0.9-0.3c0.2,0.2,0.5,0.3,0.9,0.3c0.7,0,1.3-0.6,1.3-1.4C23.8,16.4,23.2,15.8,22.5,15.8z"/>
	<ellipse class="st6" cx="21.6" cy="15.9" rx="1.2" ry="0.6"/>
	<circle class="st6" cx="19.4" cy="15.1" r="0.4"/>
	<circle class="st6" cx="24.1" cy="15.1" r="0.4"/>
	<path class="st3" d="M38.8,18.5l-0.2-0.6l0.1,0.3l-0.1-0.3c0,0,0.8-0.3,1.5-0.9c0.9-0.8,1.3-1.8,1.1-2.9l0.6-0.1
		C42.3,17.2,38.8,18.5,38.8,18.5z"/>
	<path class="st4" d="M43.8,12.5c0,1.3-1,2.3-2.3,2.3c-1.3,0-2.3-1-2.3-2.3s1.5-4.6,2.8-4.6S43.8,11.2,43.8,12.5z"/>
	<path class="st3" d="M25.9,23c0,0,0,3.6-0.2,4.3c-0.2,0.7-0.2,0.9-0.2,0.9h1.4l1.4-5.8L25.9,23z"/>
	<circle class="st7" cx="18" cy="16.4" r="0.7"/>
	<circle class="st7" cx="25.4" cy="16.4" r="0.7"/>
	<g>
		<defs>
			<path id="SVGID_1_" d="M32.1,12.3c0,5.6-4.1,11-9.7,11s-10.5-5.4-10.5-11S16.4,2.2,22,2.2S32.1,6.7,32.1,12.3z"/>
		</defs>
		<clipPath id="SVGID_00000103245598458149020100000010705780035506333369_">
			<use xlink:href="#SVGID_1_"  style="overflow:visible;"/>
		</clipPath>
		<g style="clip-path:url(#SVGID_00000103245598458149020100000010705780035506333369_);">
			<polyline class="st9" points="11.2,13.3 14.7,13 11.2,15.2 11.5,16.5 14.6,14.7 12.6,17.8 			"/>
			<line class="st9" x1="11.5" y1="11" x2="14.2" y2="11.2"/>
			<polyline class="st9" points="18.9,2.2 20.3,5.1 20.3,1.8 22.7,1.7 22.7,7 25.1,0.8 26.9,2.5 25.5,5.5 			"/>
			<line class="st9" x1="28.6" y1="3.2" x2="25.8" y2="6.4"/>
			<polyline class="st9" points="17.2,2.5 19.7,6.6 15.7,3.4 			"/>
			<polyline class="st9" points="33.5,14.5 29.3,13.4 32.7,15.6 32.1,17.3 28.5,16 31.4,19.3 30.4,20.3 27.5,18.4 			"/>
			<line class="st9" x1="19" y1="23.1" x2="20.2" y2="20.8"/>
			<line class="st9" x1="21.3" y1="24.1" x2="21.5" y2="21.9"/>
			<line class="st9" x1="22.9" y1="21.4" x2="23" y2="24.4"/>
			<line class="st9" x1="14.6" y1="20.7" x2="16" y2="19.1"/>
			<line class="st9" x1="13.1" y1="18.9" x2="15.2" y2="16.6"/>
		</g>
	</g>
</g>
</svg>
