<?xml version="1.0" encoding="utf-8"?>
<!-- Generator: Adobe Illustrator 28.3.0, SVG Export Plug-In . SVG Version: 6.00 Build 0)  -->
<svg version="1.1" id="Layer_1" xmlns="http://www.w3.org/2000/svg" xmlns:xlink="http://www.w3.org/1999/xlink" x="0px" y="0px"
	 viewBox="0 0 259.5 110" style="enable-background:new 0 0 259.5 110;" xml:space="preserve">
<style type="text/css">
	.st0{clip-path:url(#SVGID_00000108283166778311707860000009978131932696796346_);}
	.st1{fill:#75491E;}
	.st2{fill:#4A2811;}
	.st3{opacity:0.5;fill:#FFFFFF;}
	.st4{clip-path:url(#SVGID_00000049184876686974060930000013457979525346441904_);}
	.st5{fill:#1D1D1B;}
	.st6{fill:#2A1400;}
	.st7{clip-path:url(#SVGID_00000167357280364777462360000012159795317647620250_);}
	.st8{fill:#070707;}
	.st9{fill:#440D07;}
	.st10{fill:#E86618;}
	.st11{fill:#AB2F14;}
	.st12{fill:#D74C1C;}
	.st13{fill:#84180B;}
	.st14{fill:#982310;}
	.st15{fill:#700D07;}
	.st16{fill:#D3451D;}
	.st17{opacity:0.6;}
	.st18{fill:#FF9332;}
	.st19{opacity:0.6;fill:#FF9332;}
	.st20{opacity:0.4;fill:#FFD685;}
	.st21{opacity:0.6;fill:#FFD685;}
	.st22{fill:#5E2523;}
	.st23{opacity:0.5;fill:#F8C4BE;}
</style>
<g>
	<g>
		<g>
			<defs>
				<path id="SVGID_1_" d="M86.7,43.8c1-10.1,1.8-20.2,2.3-30.3c-11.9-0.3-74.2,2-81.3,2C8,20.5,9.1,35.9,9.3,38.8
					c7.2-1.1,55.5-4.4,56.6-4.6C65.5,34.5,13,76.4,12.7,76.7c1.1,8,2.9,15.9,4.4,23.9c1.2,0,56.8-0.9,68-1.3
					c0.4-9.3,0.9-18.6,1-27.9c-2.9,0-33.8,1.5-37.3,1.7c0,0,0.1-0.1,0.1-0.1C51.6,71,82.4,48.2,86.7,43.8z"/>
			</defs>
			<use xlink:href="#SVGID_1_"  style="overflow:visible;fill:#F8BC1E;"/>
			<clipPath id="SVGID_00000161631071605918868160000005813021956716237729_">
				<use xlink:href="#SVGID_1_"  style="overflow:visible;"/>
			</clipPath>
			<g style="clip-path:url(#SVGID_00000161631071605918868160000005813021956716237729_);">
				<g>
					<path class="st1" d="M67.9,17.1c0,0-1.3,2.1-2.1,3.3c-0.9,1.3-1.9,2.4,0.7,4.5c2.6,2.1,6.7,6.4,8.1,6.6
						c1.5,0.2,4.1,0.1,4.5-1.3c0.3-1.4,1.7-7.2,0.3-8.3c-1.4-1.1-5.5-5.1-7.7-6.1C69.4,14.8,69,15.5,67.9,17.1z"/>
					<path class="st1" d="M66,11.6c0,0-5.2-3.6-7.1-4c-1.9-0.4-3,0.9-3.1,3.4c-0.1,2.5-1.2,4.7,0.4,6.2c1.6,1.5,4,3.2,5.1,3.3
						C62.6,20.6,67.6,13.7,66,11.6z"/>
					<path class="st1" d="M52.6,20.1c0,0,2.6-1.1,3.4-0.1c0.8,1.1,0.9,2.5,1.1,4.2c0.1,1.8,1.7,4.9,0.7,7c-1,2.1-3.3,6.3-4.8,6.1
						c-1.5-0.2-4.3-3.4-5.7-7.2C45.7,26.4,47.9,22.1,52.6,20.1z"/>
					<path class="st1" d="M59.2,24.3c0,0,1.5,6.6,3,6.8c1.5,0.1,4.1-2.7,2.5-4.5c-1.6-1.8-2.3-4.2-3.9-4.2
						C59.3,22.3,58.6,23,59.2,24.3z"/>
					<path class="st1" d="M63,34.1c0,0,1.5,4.3,2.9,7c1.5,2.7,0.5,3.5-0.5,4.8c-1.1,1.3-2.9-0.1-5.4-1.8c-2.5-1.7-3.3-4.2-2.5-6.6
						c0.9-2.3,2.3-5.3,3.2-5.4C61.6,32.1,62.6,32.7,63,34.1z"/>
					<path class="st1" d="M72,31.1c0,0,5.1,4.6,6.7,7.3c1.6,2.7,1.2,4.3-1.1,8.2c-1.6,2.7-2.7,2.8-4.8-0.7c-2.1-3.5-6-7.1-6-11.3
						C66.9,30.3,69.1,28.7,72,31.1z"/>
					<path class="st1" d="M82.1,25.9c0,0-2.5,3.8-2.7,7.5c-0.2,3.7,1.5,5.9,4.9,8.9c3.5,3,5,5.7,6.6,5.4c1.7-0.3,4.8-4,2.4-9.3
						C91.1,33.1,83.6,23.2,82.1,25.9z"/>
					<path class="st1" d="M70.5,48c0,0-3,1.9-4.5,3.2c-1.5,1.3-1.7,2.7-0.1,4.6c2.2,2.8,5.5,5.9,8,6.2c2.5,0.2,5.6-4.8,4.5-7.6
						C77.3,51.6,73.4,46.4,70.5,48z"/>
					<path class="st1" d="M88.7,68.3h-9.4c0.2,0.7,0.6,1.4,1.3,2c1.6,1.4,3.2,3.7,4.1,6c0.9,2.1,1.5,2.3,3.9,1.1V68.3z"/>
					<path class="st1" d="M50.1,9.8c0,0,2,4.4,0.8,6.4c-1.1,2.1-2.9,5.5-5.4,5.3c-2.5-0.1-5.4,0.1-8.2-2.1c-1.4-1.1-0.6-5.7,2.6-8.4
						C43.2,8.4,49,5.2,50.1,9.8z"/>
					<path class="st1" d="M41.5,25.8c0,0,2,3.4,3.4,5.5c1.5,2.1,0.2,5.2-1.5,7.6c-1.7,2.4-2.5,3.5-5.3,1.2c-2.8-2.3-7.1-5.8-6.4-8.1
						c0.7-2.3,4.1-5.6,5.5-6.9C38.6,23.8,40,22.4,41.5,25.8z"/>
					<path class="st1" d="M55.4,41.5c0,0,2,2.5,1,4.6c-0.9,2.1-4.8,3.2-6.7,4.4c-1.8,1.2-3.7,2.2-4.1-0.2
						c-0.5-2.4-0.2-10.7,2.8-11.3C51.4,38.2,53.8,38.8,55.4,41.5z"/>
					<path class="st1" d="M84.3,90.4c0,0,2.6,1.4,2.6,4.7c0,3.4-0.4,5.2-2,7.9c-1.5,2.7-2.4,4-3.7,1.5c-1.3-2.5-4.2-5.2-3.4-7.1
						C78.5,95.5,81.8,88.3,84.3,90.4z"/>
					<path class="st1" d="M80.3,76.4c0,0,3.6,4.4,0.6,9.7c-3.1,5.3-6.2,8.8-7.4,8.4c-1.1-0.4-3.7-6.2-2.7-10.6
						c1-4.4,4.9-10.6,6.1-10.5C78.1,73.6,79.6,75.4,80.3,76.4z"/>
					<path class="st1" d="M64.6,88.3c0,0,4.7,0,4.6,3.4c-0.1,3.4-1.2,7.6-2,7.7c-0.8,0.1-1.7-3.4-2.4-6.2
						C64.2,90.3,64.1,89.3,64.6,88.3z"/>
					<path class="st1" d="M89.3,4.8c0,0,0.6,10.4-0.8,15c-1.4,4.7-1.7,7-5.3,3.9c-2.5-2.1-5.4-6.8-5.4-10.7c0-3.9,0-5.2,2.8-7.5
						c2.8-2.3,4.2-3.8,6-3.6C88.3,2.2,89.3,2.9,89.3,4.8z"/>
					<path class="st1" d="M55.3,73c0,0-4.6,4.8-4.5,7.1c0.1,2.3,3.4,6.5,4.8,9.6c1.2,2.7,2.1,3,2.4,1.3C58.3,89.4,59.9,81.6,55.3,73
						z"/>
					<path class="st1" d="M44.3,55.2c0,0,3.1,4.1,4.9,8.6c1.3,3.5,0.6,5.4-2.3,8.7c-2.9,3.3-4.6,3.1-6.5,1.1c-1.8-2-6-6.8-6.4-8.9
						c-0.4-2,0.9-3.6,3.6-6.5C40.3,55.3,42.7,53.7,44.3,55.2z"/>
					<path class="st1" d="M41.2,50.4c0,0-4.2,5.6-6.9,9c-2.7,3.4-4.8,2.5-6.7-1.5c-1.9-4-5.5-11.8-0.2-15.6
						c3.3-2.1,7.5-1.7,10.1,0.2C40,44.4,44,47.6,41.2,50.4z"/>
					<path class="st1" d="M29.8,60.1c0,0-1.5,4.5-1.5,7.8s0.3,4.1-1.7,4.2c-2,0.1-4.4-4.6-6.4-9.4c-1.9-4.8-3.5-7.7-0.8-10.5
						c2.7-2.8,4.2-3.7,5.4-1.9C26,52,30.9,57.8,29.8,60.1z"/>
					<path class="st1" d="M49.4,85.2c0,0,2.5,4.1,3.1,8.8c0.6,4.6-0.6,5.4-2.5,3c-1.9-2.4-6.9-6.1-6.7-7.5c0.2-1.4,0.1-4.5,1.5-6.2
						C46.1,81.7,46.9,82.1,49.4,85.2z"/>
					<path class="st1" d="M35.1,72.3c0,0,3.9,7.4,4.7,10.6c0.2,1.8,0,3.6-3.2,1.4c-3.2-2.2-6-3.9-5.6-5.5c0.5-1.6,1.4-3.4,1.4-6.1
						C32.4,70,33.3,68.5,35.1,72.3z"/>
					<path class="st1" d="M42.4,97.3c0,0,0.1-3.9-3.2-5.9c-3.3-2.1-6.6-4.9-9.3-5.8c-2.7-1-2.6-0.2-3.3,2.2
						c-0.7,2.4-2.3,7.5-0.1,10.8s5.3,4.6,8.7,7.6c4.8,4.2,6.1,1.4,6.6-2.2C42.2,100.3,42.4,97.3,42.4,97.3z"/>
					<path class="st1" d="M63,97.9c0,0-2.9-5.4-4.8-5.3c-1.9,0.1-4.3,7.1-4.4,10.8c-0.1,3.7,1.8,7.2,5.3,10c3.2,2.6,4.1,4.3,4.1,4.3
						s0.4-4.5,0.1-8.6C62.9,105.1,62.9,99.4,63,97.9z"/>
					<path class="st1" d="M13.4,73.5c0,0-1,6.1,0.4,9.6c1.5,3.5,5.4,11.3,6.9,11.3c1.5,0,2.7-4.9,2.8-9c0.2-4.1-0.1-6.1-3.4-9.7
						C16.7,72.2,13.9,67.8,13.4,73.5z"/>
					<path class="st1" d="M18.3,97.8c0,0,3.7,1.8,3.5,5.9c-0.2,4.1-2.9,7.2-5,7.3c-1.3,0.1-2.6-4.1-2.4-8
						C14.5,99.2,15.6,96.1,18.3,97.8z"/>
					<path class="st1" d="M15.3,90.2c0,0,1.3,2.4-0.3,3.3c-1.6,1-2.2-0.7-2.2-2.1C12.7,90,13.9,87.5,15.3,90.2z"/>
					<path class="st1" d="M30.8,20c0,0,2.2,3.9,0.4,7c-1.8,3.1-4.9,6.8-5.7,9.6c-0.8,2.9-1,4.2-3.1,4.1c-2.1-0.1-5.1-5.2-5.1-7.4
						C20.2,29.4,25,24.1,30.8,20z"/>
					<path class="st1" d="M26.4,8.2c0,0,1.4,7.2-0.1,10c-1.5,2.8-4.7,5.6-9.9,1.9c-5.1-3.7-5-8.7-3.1-11.7c1.9-3,4-5,7.2-4.1
						C23.8,5.2,26,6.5,26.4,8.2z"/>
					<path class="st1" d="M15,29.6c0,0-6.4,13.1-10.4,12.3c-4-0.8-6.3-13.2-3-15.6C4.8,23.9,19.9,18.4,15,29.6z"/>
				</g>
				<g>
					<g>
						<path class="st1" d="M62.1,55.3c0,0,1.6,5.4,0.9,8.8c-0.7,3.4-3.6,5.8-4.2,4.6c-0.6-1.1-4.7-5.1-5.4-6.8
							c-0.7-1.7-1.2-3.7,0.9-6.5c2.1-2.7,5.7-3.1,6.2-2.9C61.1,52.7,61.6,54.3,62.1,55.3z"/>
						<path class="st1" d="M68.9,70.3c0,0,2,5.1,0.6,8.3c-1.4,3.2-5.1,3-5.4,1.1c-0.3-2-1.3-5.9-1.3-7c0-1.1,1.2-3.7,2.8-5
							C67.1,66.3,68.2,68.2,68.9,70.3z"/>
					</g>
				</g>
			</g>
		</g>
		<path class="st2" d="M16.1,101.9l-0.2-1c-0.4-1.9-0.7-3.7-1.1-5.6c-1.2-6-2.4-12.2-3.3-18.4l-0.1-0.6l0.4-0.4
			c0.4-0.4,38.6-31,50.2-40.2c-1.1,0.1-2.4,0.2-3.9,0.3c-14,1-43.3,3.2-48.6,4l-1.3,0.2l-0.1-1.3C8,37.4,7.7,32.5,7.3,27.3
			C6.9,22.7,6.6,18,6.4,15.7l-0.1-1.3l1.3,0c2.5,0,11.9-0.3,23.9-0.7c18.9-0.6,44.9-1.4,55-1.4c1,0,1.8,0,2.5,0l1.3,0l-0.1,1.3
			c-0.5,10.1-1.3,20.3-2.3,30.3l0,0.4l-0.3,0.3c-3.7,3.8-26.2,20.6-34.8,27c9.3-0.4,30.9-1.4,33.3-1.5l1.2,0l0,1.2
			c0,6.5-0.3,13-0.6,19.3c-0.1,2.8-0.3,5.7-0.4,8.6l0,1.1l-1.1,0c-8.6,0.4-43.1,0.9-59.6,1.2c-4.7,0.1-8.1,0.1-8.3,0.1L16.1,101.9z
			 M14,77.2c0.9,5.9,2,11.8,3.2,17.6c0.3,1.5,0.6,3,0.9,4.6c1.3,0,3.7-0.1,7.3-0.1c15.9-0.3,48.3-0.8,58.5-1.1
			c0.1-2.5,0.2-5,0.3-7.5c0.3-5.9,0.5-12,0.6-18c-5.7,0.2-26.4,1.2-33.6,1.5l-6.4,0.3l3.4-2.5c2.4-1.8,32.2-23.7,37.3-28.7
			c1-9.5,1.7-19,2.2-28.5c-0.4,0-0.7,0-1.2,0c-10.1,0-36,0.8-55,1.4C21.2,16.5,12.7,16.7,9,16.8c0.2,2.5,0.5,6.5,0.7,10.3
			c0.3,4.1,0.6,8.1,0.7,10.3c7.8-0.9,34.3-2.9,47.5-3.8c4.2-0.3,7.5-0.6,7.8-0.6l5.4-0.6l-4.6,2.9C65.1,36.4,19.3,72.9,14,77.2z"/>
		<path class="st3" d="M63.7,40.1C56.1,46.2,48,51.7,40.2,57.6c-7.8,5.9-15,12.2-22.2,18.8c-0.5,0.5-0.2,1.5,0.6,1.1
			c8.5-4.2,15.6-11.4,22.9-17.3c7.8-6.2,15.6-12.5,23-19.2C65.2,40.5,64.5,39.4,63.7,40.1z"/>
		<path class="st3" d="M11.4,17.8C11.4,17.8,11.4,17.8,11.4,17.8C11.4,17.8,11.4,17.7,11.4,17.8c-0.1-0.1-0.2-0.1-0.2,0c0,0,0,0,0,0
			c0,0,0,0.1,0,0.1c0,0,0,0,0,0c-0.5,4.8-0.9,9.7,0.4,14.3c0.2,0.8,1.2,0,1.2-0.5C12.7,27.1,11.9,22.4,11.4,17.8z"/>
		<path class="st3" d="M83.5,86.7c-0.2-3.2-0.3-6.5-0.7-9.7c0-0.4-0.7,0-0.7,0.3c0,0.3-0.1,0.6-0.1,1c-0.1,0.3,0.1,0.3,0.3,0.2
			c-0.2,0.4-0.4,0.8-0.4,1c-0.1,1.9-0.2,3.8-0.4,5.7c-0.2,3.3-0.6,7.3,0.1,10.5c0.3,1.2,1.7,0.2,1.9-0.6
			C84.3,92.3,83.7,89.4,83.5,86.7z"/>
	</g>
	<g>
		<g>
			<g>
				<defs>
					<path id="SVGID_00000163030526492664637730000006762477537637566651_" d="M160.9,41c-4.4-13-17.7-21.4-30-22.3
						c-3.4-0.3-7.2-0.1-10.6,0.8c-10.7,2.7-20.3,10.2-24.4,21.6c-1.7,4.7-3.2,10.7-3.1,15.7c0.2,18.7,15.1,37.3,32.2,38.7
						c4.4,0.4,10-0.1,14.2-1.8c11.2-4.6,20-14.8,22.5-27.7C163.5,57.6,163.7,49,160.9,41z M144.6,58.3c-1.2,6.3-5.5,11.3-11,13.6
						c-2.1,0.8-4.8,1.1-7,0.9c-8.4-0.7-15.7-9.8-15.8-19c0-2.5,0.7-5.4,1.5-7.7c2-5.6,6.7-9.2,12-10.6c1.6-0.4,3.5-0.5,5.2-0.4
						c6,0.5,12.5,4.6,14.7,10.9C145.5,50,145.4,54.2,144.6,58.3z"/>
				</defs>
				<use xlink:href="#SVGID_00000163030526492664637730000006762477537637566651_"  style="overflow:visible;fill:#FFFFFF;"/>
				<clipPath id="SVGID_00000060713625802797444610000011456343018864605578_">
					<use xlink:href="#SVGID_00000163030526492664637730000006762477537637566651_"  style="overflow:visible;"/>
				</clipPath>
				<g style="clip-path:url(#SVGID_00000060713625802797444610000011456343018864605578_);">
					<g>
						<g>
							<path class="st5" d="M97.4,17.6c-0.1,3.1-0.4,6.3-1.1,9.5c-1,5.5-1.2,13.9-4.7,20v10.6c0,0,0-0.1,0-0.1
								c2.1-4.5,3.7-9.3,6.5-13.5c1-1.6,2.2-3.1,2.8-4.8c1.7-4.5,1.6-9.4,2.4-14c0.4-2.6,1.1-5,1.2-7.7H97.4z"/>
						</g>
						<g>
							<path class="st5" d="M129.1,28.4c-0.4-3.6-1.3-7.2-2-10.8h-6.9c0.1,1.8,0.2,3.5,0.2,5.3c0,2.2,0.2,4.5-0.2,6.8
								c-0.4,2.6-2.2,5-3.4,7.4c-1.5,3.2-2.1,6.7-4,9.7c-2.1,3.5-4.5,6.9-6.8,10.3c-2.7,4.2-5,8.5-7.7,12.7
								c-1.7,2.6-5.1,4.5-6.5,7.2c-0.1,0.2-0.2,0.4-0.3,0.6v8.9c0.4-2,1.1-3.9,2.1-5.9c1.9-3.7,6.1-7,9.1-10.3
								c3.7-4.1,7.7-8.6,9.8-13.3c2.2-5.1,3.6-10.6,6.6-15.5c1.6-2.6,2.6-4.7,3.4-7.5c0.4-1.6,0.5-4.3,3.7-3.8
								c0.7,3.9-0.9,7.2-2.8,10.7c-4.9,9.1-8.5,18.1-16,26.3c-2.9,3.2-5.6,6.5-8.4,9.6c-2.5,2.7-5,6.1-5.4,9.4
								c-0.3,2.4-0.4,6.7,1,8.8c1.9-1.4,1-4.9,1.5-6.8c0.4-1.7,1-3.6,1.6-5.2c0.8-1.9,2.2-3.7,3.8-5.3c5-4.8,9.2-9.9,13.6-14.9
								c1.8-2,4.4-3.9,5.6-6.2c1-1.9,1.4-3.7,2.6-5.5c1.7-2.7,3.5-5.3,4.2-8.4C128.8,37.9,129.7,33.3,129.1,28.4z"/>
						</g>
						<g>
							<path class="st5" d="M108.8,17.6c-0.1,2.7-0.2,5.4-0.7,8.2c-1.7,9.6-5.1,19.1-9.9,28.2c-1.2,2.2-2.8,4.2-3.8,6.5
								c-0.9,2-1.8,4-2.9,5.9v7c0.9-0.7,1.8-1.4,2.5-2.3c1.1-1.5,1.8-3,2.9-4.4c1-1.4,2.1-2.6,3-4c2.8-4.4,6.4-9.4,8.1-14
								c1.2-3.2,2.8-6.4,4-9.7c2.1-5.5,3.1-10.7,3.9-16.4c0.2-1.6,0.3-3.3,0.3-4.9H108.8z"/>
						</g>
					</g>
					<g>
						<path class="st5" d="M164.3,43.3c0.6,1.9,1.4,3.7,2.3,5.5V17.6H158c0.4,2.5,0.8,5,1.3,7.5C160.6,31.2,162.3,37.2,164.3,43.3z"
							/>
					</g>
					<g>
						<path class="st5" d="M166.5,58.3c-0.1-0.2-0.3-0.4-0.4-0.6c-1.5-2.3-1.9-4.9-2.7-7.3c-0.9-2.8-3.1-5.2-4.5-7.9
							c-1.3-2.6-1.5-5.3-2.6-7.9c-1-2.4-2-4.5-2.6-7.1c-0.6-2.3-1.2-4.7-1.5-7.1c-0.1-0.9-0.2-1.8-0.2-2.8h-8c0,1.6-0.1,3.3-0.1,4.9
							c0,2.3-0.2,4.6,0.8,6.7c1,2.1,2.8,4,3.7,6.2c1.6,3.9,3.7,7.4,6.2,11.1c1.2,1.8,2.2,3.5,3.3,5.3c0.8,1.3,1.8,2.5,2.5,3.8
							c1.5,2.8,2.9,6,4.1,8.9c0.6,1.4,1.3,2.8,2,4.2V58.3z"/>
					</g>
					<g>
						<path class="st5" d="M166.5,74.5c-0.6-0.9-1.1-1.8-1.5-2.8c-0.8-1.9-1.9-3.7-2.8-5.6c-1-2.2-2.2-4.2-3.9-6.3
							c-1-1.2-1.3-2.6-2.1-3.9c-0.9-1.5-2.2-2-3.5-3.1c-3.4-3-4.4-7.9-6.5-11.4c-1.3-2.3-3.4-4.1-4.3-6.5c-1.2-3.5-0.7-7.8-0.6-11.4
							c0-2,0-3.9,0-5.8h-4.8c0.2,2.2,0.5,5.9-0.8,6.4c-1.4-2-1.8-4.2-2-6.4h-4.6c0.8,3,1.6,6,2.2,9c0.7,3.4,2.8,6.2,5,9.3
							c-0.8,0.5-0.4,0.8-0.1,1.5c3.7,7.5,9.7,14,14.2,21.2c2.3,3.6,5.4,6.9,7.8,10.5c2.1,3.1,3.1,6.6,5.4,9.8c1.1,1.4,2,3,2.9,4.6
							V74.5z"/>
					</g>
					<g>
						<g>
							<path class="st5" d="M166.5,92.2c-0.2-0.7-0.4-1.5-0.7-2.2c-3.6-8.9-8.8-19.5-16.3-27.4c-4.7-4.6-6-10-11.9-13.9
								c-3.4-2.2-3.9-2.6-3.9-5.5c0-2.6,1-6.4-0.5-8.6c0.1,0.1-1.2,2.3-1.3,2.6c-0.3,1.1-0.2,2.2-0.4,3.3c-0.4,2-1.7,3.7-2.4,5.6
								c-1.9,4.7-5,9.1-8.1,13.4c-2.6,3.7-6.7,6.8-9.6,10.3c-2.3,2.8-5,5.5-7.1,8.4c-1.8,2.4-4.3,4.2-4,7.1c1.9-0.4,3.3-4.2,4.9-5.4
								c2.3-1.9,4.4-3.8,6.7-5.8c2.3-1.9,4.2-3.9,6.4-5.8c1.9-1.6,3.2-3.4,5.2-4.8c1.1-0.8,3.8-3.1,5.4-2.9c1.3,0.2,3.2,3.5,4.4,4.4
								c1.9,1.5,3.1,3.3,5,4.9c1.1,0.9,5.1,5.2,1.7,5.4c-2.6,0.2-4.7-3.9-5.9-5c-1.2-1.1-3.8-1.3-4.7-2.5c-0.9-1.2-0.2-3-0.3-4.3
								c-2-0.2-3.5,2.2-4.6,3.1c-2,1.6-4.1,3.2-5.9,4.9c-2.9,2.6-6.3,4.9-9,7.5c-2.1,2-3.9,4.5-5.9,6.5c-1.3,1.3-5.1,4.1-4.8,5.6
								c1.5-1.4,3.8-2.5,5.9-3.5c2.5-1.1,6.2-2.1,8.1-3.4c2-1.3,2-4,5.1-4.3c2.1-0.2,2.6,0.8,4.1,1.5c1.4,0.7,1.9,0.8,3.6,1.2
								c1.3,0.3,3.1,0.5,4.1,1.1c0.2,0.1,2.2,2,1.2,2c-3.6,0.1-5-0.8-8.1-1.8c-1.5-0.5-6.7-1.9-7.5-0.1c-1,2.4,6.7,3.6,8.8,4
								c4.8,1,10.5,2,13.9,4.9c2.8,2.3,5.3,3.3,9.2,4.9c2.4,1,4.5,3,6.1,4.5c0,0,0,0,0,0h4.4c-3.4-4.3-5-9.1-8.1-13.5
								c-2.5-3.5-7.2-5.5-10.4-8.6c-2.1-2-3.8-2.4-6.9-3.3c-1.7-0.5-2.4-0.9-3.7-1.8c-1-0.7-1.6-1.6-3-1.8c-2.6-0.3-3.7,1.5-4.9,2.7
								c-1.4,1.5-2.4,1.8-4.5,2.7c-3.7,1.5-5.9,4.5-8.7,6.2c1.4-2.8,4.7-5.1,7.9-7.2c1.6-1,3.3-2,4.8-3.2c1.3-1,1.9-2.7,3.2-3.5
								c3.3-2.2,6.7,1.3,8.7,2.9c3.1,2.6,2.9,2.2,7.3,2.7c4.2,0.5,5.4,2.6,8,4.9c3.4,3.5,6.5,7.1,9.3,11.1c2.3,3.2,1.8,6,1.3,9.5
								h3.6c0-2.5,0.7-5.6-0.6-7.9c-2.8-4.9-6.5-9.3-9.5-14.1c-2.2-3.4-4.6-6.7-7.2-9.9c-2.6-3.1-5-6-7.3-9.2
								c-1.7-2.4-3-5.4-7.6-5.2c0-1.5,1.2-4.7,2.1-6.1c1.8,0.1,2.5,2.5,3.3,3.6c2.2,2.9,4.5,5.9,7.1,8.6c1.7,1.8,3.8,3.1,4.8,5.1
								c1.1,2.1,2.1,3.9,3.8,5.9c3.5,3.9,6.3,8.2,9,12.4c1.7,2.7,4.5,6.8,4.7,9.8c0.2,2.5-0.6,4.7-0.9,7h3.2c0,0,0,0,0-0.1V92.2z
								 M124.5,76.8c1.4-0.1,2.8,1,3.7,1.6c2.8,1.7,5.3,3.5,8.5,4.9c6.1,2.7,14.3,8.1,13.8,13.7c-3.2-1.8-5.2-4.5-8.3-6.4
								c-3.1-1.8-6.5-3.3-9.3-5.4c-3.1-2.4-5.2-6.2-10.9-6.2C122.1,78.9,123.1,76.9,124.5,76.8z"/>
						</g>
					</g>
					<g>
						<path class="st5" d="M98,95.9c1.9,0.3,3.4-1.9,4-2.8c0.8-1.2,0.6-2.4,3.1-2.1c0.3,1.5-1.8,2.5-1.9,3.9
							c-0.1,1.1,0.6,2.3,1.2,3.3c0.5-0.3,0.1-1,0.1-1.5c0-0.7,0.5-1.3,0.9-1.9c0.9-1.2,2.1-2.6,3.4-3.7c2.1-1.8,3.9-0.4,6.5,0.1
							c2.8,0.5,4.7,1.8,7.4,2.4c1.2,0.3,9.4,2.2,8.7,3.2c-0.4,0.6-3.7,0-4.4-0.1c-1.6-0.3-2.7-1.1-4.1-1.4c-2-0.4-4.1-0.7-6.1-1.3
							c-1.1-0.3-2.2-0.4-3.3-0.7c-0.7-0.2-1.3-0.6-2-0.6c-2.7,0-6,3.2-5.5,5c2,0.4,1.8-2,3.8-2.1c2,0,3.9,0.8,5.9,1.1
							c2.4,0.4,4.3,1.4,6.7,1.8c2.4,0.4,4.8,0.2,7.3,0.3c2.7,0.1,4.5,1.1,6.8,2c0.8,0.3,1.3,0.8,2.1,1.1c0.1,0,0.2,0.1,0.3,0.1h8.2
							c-0.3-0.3-0.6-0.5-0.9-0.7c-1.5-1.1-3.2-1.1-5-1.7c-1.8-0.6-3-1.9-4.4-2.9c-0.9-0.7-1.6-1.7-2.7-2.2c-1.1-0.5-2.5-0.7-3.6-1.1
							c-2-0.8-3.9-1.9-6-2.6c-1.2-0.4-2.4-0.9-3.7-1.3c-1.1-0.4-2.3-0.5-3.2-1c-2.5-1.6-3.9-1.7-7.1-0.9c-1.3,0.3-2.1,0.7-3.2,1.3
							c-1.2,0.6-2.3,0.9-3.5,1.6c-1.6,0.8-2.3,2-3.3,3C100,93.7,97.4,95.8,98,95.9z"/>
					</g>
					<g>
						<path class="st5" d="M107.8,102.1c0.7-0.6,1.6-1,3-0.8c1.2,0.1,2.8,0.5,4.2,0.8h14.5c-1.5-0.5-2.7-0.9-4.7-1.1
							c-2.3-0.2-3.4-0.7-5.4-1.2c-1.4-0.4-3.2-0.3-4.8-0.6c-1.6-0.4-3.5-1.2-5.2-0.7c-0.9,0.2-3,1.7-3.5,2.4
							c-0.3,0.4-0.5,0.9-0.6,1.3H107.8z"/>
					</g>
				</g>
			</g>
		</g>
		<path class="st6" d="M128.1,96.9c-1,0-2.1,0-3.1-0.1c-17.5-1.5-33.1-20.1-33.3-39.9c0-4.5,1.1-10.5,3.2-16.2
			c4-11,13.5-19.4,25.3-22.4c2.4-0.6,5.2-1,8-1c1,0,2,0,2.9,0.1c11.5,0.9,26.1,8.6,31.1,23.2c2.6,7.5,2.9,15.9,1,25.6
			c-2.6,13-11.3,23.7-23.3,28.6C136.6,96.2,132.5,96.9,128.1,96.9z M128.2,19.8c-2.6,0-5.2,0.3-7.4,0.9c-11,2.8-19.9,10.6-23.6,20.9
			c-1.9,5.3-3.1,11.1-3,15.3c0.1,8.7,3.6,17.8,9.5,25.1c6,7.3,13.8,11.8,21.6,12.5c0.9,0.1,1.9,0.1,2.8,0.1c4,0,8-0.7,10.8-1.8
			c11.3-4.6,19.4-14.6,21.8-26.8c1.8-9.3,1.5-17.3-0.9-24.4c-4.4-12.9-17.9-20.6-28.9-21.5C130,19.8,129.1,19.8,128.2,19.8z M128,74
			c-0.5,0-1.1,0-1.5-0.1c-8.9-0.8-16.8-10.2-16.9-20.2c0-3.3,1.1-6.8,1.6-8.1c2-5.6,6.8-9.8,12.8-11.4c1.7-0.4,3.7-0.6,5.6-0.4
			c5.8,0.5,13.2,4.3,15.7,11.8c1.3,3.8,1.5,8,0.5,12.9c-1.3,6.6-5.7,12-11.8,14.5C131.8,73.9,129.3,74,128,74z M128.1,36.3
			c-1.2,0-2.4,0.1-3.5,0.4c-5.2,1.3-9.4,5-11.1,9.8c-0.9,2.5-1.5,5.3-1.4,7.3c0.1,8.6,7.1,17.1,14.7,17.7c0.4,0,0.9,0.1,1.3,0.1
			c1.9,0,3.7-0.3,5.1-0.9c5.3-2.2,9.2-6.9,10.3-12.7c0.9-4.4,0.7-8.2-0.4-11.6c-2.1-6.1-8.4-9.7-13.6-10.1
			C128.9,36.3,128.5,36.3,128.1,36.3z"/>
		<path class="st3" d="M119.9,24.5c-2.9,0.9-5.9,1.8-8.7,3c-3.3,1.4-5.9,3.6-8.7,5.9c-4.7,4-6.7,10.4-7.7,16.2
			c-1.1,6.6,0.4,14.4,3,20.5c2.8,6.3,8.2,11.6,14,15.3c0.2,0.1,0.6-0.2,0.4-0.4c-4.3-3.4-8.6-8.1-11-13c-2.9-6-3.3-12.8-3.1-19.4
			c0.2-5.9,1.9-12.6,5.8-17.3c2-2.3,4-4.5,6.5-6.3c2.8-2,6.2-3.1,9.4-4.3C119.9,24.6,120,24.5,119.9,24.5z"/>
	</g>
	<g>
		<g>
			<defs>
				<path id="SVGID_00000016074044009911225430000010866999943818970299_" d="M246.2,38.8c-5-14.8-20.2-24.3-34.1-25.4
					c-3.9-0.3-8.2-0.1-12,0.9c-12.2,3.1-23,11.6-27.8,24.6c-1.9,5.3-3.6,12.2-3.5,17.9c0.2,21.2,17.1,42.4,36.6,44
					c5,0.4,11.4-0.1,16.2-2c12.8-5.2,22.7-16.8,25.6-31.5C249.2,57.7,249.4,47.9,246.2,38.8z M227.6,58.5
					c-1.4,7.2-6.3,12.9-12.5,15.4c-2.3,1-5.5,1.2-7.9,1c-9.5-0.8-17.8-11.2-17.9-21.5c0-2.8,0.8-6.2,1.7-8.7
					c2.3-6.4,7.6-10.5,13.6-12c1.9-0.5,4-0.6,5.9-0.4c6.8,0.6,14.2,5.2,16.7,12.4C228.6,49.1,228.5,53.8,227.6,58.5z"/>
			</defs>
			<use xlink:href="#SVGID_00000016074044009911225430000010866999943818970299_"  style="overflow:visible;fill:#F8BC1E;"/>
			<clipPath id="SVGID_00000015336096162223599630000013058404843924029833_">
				<use xlink:href="#SVGID_00000016074044009911225430000010866999943818970299_"  style="overflow:visible;"/>
			</clipPath>
			<g style="clip-path:url(#SVGID_00000015336096162223599630000013058404843924029833_);">
				<g>
					<g>
						<path class="st8" d="M275.7,56.6c-0.1,0-0.2-0.1-0.3-0.1c-0.5,0.6-0.9,1.1-1.4,1.7c-4.2,4.6-9.3,8.1-14,11.9
							c-9.4,7.5-18.7,15.8-29.9,19.4c-17.3,5.6-38.2-1.8-49-18.4c-5.2-8-8-18-14-25.3c-3.2-3.9-7.1-6.8-11.6-8.1
							c-3.2-0.9-6.5-1.4-9.8-2.2c-0.2,0-0.5,0.1-0.7,0.3c-4.9,4.4-0.6,6.3,2.4,6.1c2.7-0.2,4.5,1.1,7,2.7c1.9,1.3,3.5,2.2,4.8,4.2
							c3.2,5,6.8,15,8.9,21c1.1,3,0.6,1.2,1.7,4.1c0,0,0,0.1,0,0.1c2.2,5.4,3,8.9,5.7,14c2.5,4.9,5.3,7.8,9.2,11.1
							c3.5,2.9,6.6,4.3,10.7,5.4c8.8,2.9,18.6,3,27.5,1c5.4-1.2,10.8-2.7,15.6-5.9c4.8-3.1,9.1-6,13.4-9.9c3.7-3.4,6.7-5.9,10.1-9.8
							c5.2-6.1,11.9-12.1,15.2-20.2c0.3-0.8,0.8-1.7,0.9-2.6c0.2-0.9,0-1.6-0.3-2.1C277.2,54.6,276.3,56.9,275.7,56.6z"/>
						<g>
							<path class="st9" d="M277.1,54.1c-0.3-0.4-0.8-0.7-1.4-0.9c-0.8-0.3-1.7-0.5-2.5-0.8c-0.6-0.3-1.2-0.7-1.8-1.1
								c-0.6-0.5-1.2-1-1.9-1.2c-0.4-0.1-0.8-0.1-1.1,0c-0.1-1.1-0.6-2-1.3-2.8c-1.1-1.2-2.3-2.2-3.5-3.4c-1.4-1.5-2.7-3.1-4-4.7
								c-2.3-2.9-4.7-5.7-7.1-8.5c-1-1.2-2.4-3-3.9-3.4c-0.3-0.1-0.7-0.1-1-0.1c0.3-0.8,0.3-1.5-0.2-2.2c-0.6-0.9-1.4-1.8-2.1-2.6
								c-0.9-1.1-1.8-2.3-2.7-3.4c-1.5-1.9-3-3.9-4.7-5.6c-1-1-2.1-1.2-3.2-1.1c-1.7-4.4-6.7-6.4-10.9-7.1c-1.7-0.3-3.4-0.4-5.1-0.5
								c-1.9-0.1-3.8-0.4-5.8-0.5c-1.5-0.1-4-0.4-5,0.9c-0.8-0.6-1.6-0.9-2.7-1c-4-0.2-8.2-0.1-12.2,0.2c-2,0.2-3.9,0.5-5.9,0.8
								c-1.9,0.3-4,0.3-5.9,0.8c-1.6,0.4-2.4,1.5-2.8,2.9c-0.2-0.1-0.5-0.3-0.7-0.3c-1.2-0.4-1.8,0.8-2.6,1.6
								c-1.4,1.5-2.8,2.9-4.4,4.2c-1.6,1.3-3.1,2.6-4.6,4c-1.5,1.4-3,2.8-4.4,4.3c-1.3,1.4-2.5,3-3.9,4.2c-0.7,0.6-1.4,1.1-2.1,1.7
								c-0.5,0.4-1.1,0.7-1.5,1.2c-0.5,0.5-0.5,1.1-0.4,1.6c-0.4,0-0.8,0-1.3,0.2c-0.2,0.1-0.5,0.3-0.7,0.5
								c-0.8,0.5-1.5,1.2-2.3,1.7c-1.1,0.7-2.3,1.3-3.5,1.6c-0.8,0.2-1.6,0.5-1.9,1.4c0,0.1-0.1,0.2-0.1,0.4
								c-0.1,0.4,0.2,0.8,0.7,1.1c1.1,0.8,2.6,0.8,3.9,0.9c2.7,0.2,5.5,0.1,8,1.6c1.9,1.2,2.9,3.7,3.6,5.8
								c1.9,5.6,3.7,11.2,5.8,16.8c1,2.8,2.1,5.5,3.2,8.3c0,0,0,0.1,0,0.1c2.1,5.1,4,10.3,6.6,15.1c2.5,4.6,5.8,8.7,9.7,11.7
								c3.4,2.7,7.4,4.5,11.4,5.5c8.7,2.7,18.2,2,27,0.1c5.3-1.1,10.4-3,15.2-5.9c4.8-2.9,9.1-6.6,13.4-10.4
								c3.7-3.2,7.2-6.6,10.5-10.3c5.2-5.7,10.3-11.4,13.6-18.9c0.3-0.8,0.8-1.6,0.9-2.4C277.6,55.2,277.5,54.6,277.1,54.1z
								 M211.8,104.9c-2.6,0.1-5.2,0-7.8-0.3c0.2,0,0.4,0,0.6,0c2.7,0.1,5.3,0.2,8,0.2C212.3,104.8,212.1,104.9,211.8,104.9z"/>
							<path class="st10" d="M211.2,47.8c0,0,0-0.1,0-0.1c-0.2-3.4-2.3-6.4-3.8-9.2c-1.5-2.7-3.4-5.8-6.1-7.2
								c-1.1-0.6-2.4-0.7-3.6-0.9c-2-0.4-3.9-1.1-5.8-1.6c-1.1-0.3-2.5-0.9-3.6-0.5c-0.1,0-0.1,0-0.2,0c-1.1,0.5-1.7,1.8-2.3,2.9
								c-1.3,2.2-2.8,4.2-4.2,6.3c-1.3,1.9-2.4,4-3.9,5.7c-0.7,0.8-1,1.7-0.9,2.7c-0.1,0.9,0,1.9,0.2,2.9c0.6,2.6,1.5,5.3,2.4,7.9
								c1.7,4.8,3.8,9.8,7,13.6c3.2,3.8,6.9,6.5,11.4,7.9c1.7,0.5,3.3,1.1,5.1,1c0.9,0.3,1.8,0.2,2.5-0.5c0.2-0.2,0.4-0.4,0.6-0.6
								c0.1,0,0.2-0.1,0.2-0.1c1.2-1.3,1.3-3.6,1.6-5.4c0.4-3,1-6,1.5-9C210.4,58.4,212.1,53,211.2,47.8z"/>
							<path class="st10" d="M247.1,24.2c-0.5-1.1-1.4-1.9-2.1-2.7c-1.5-1.6-2.9-3.3-4.3-5c-1.5-1.7-3.5-4.8-5.8-4.3
								c-2.7,0.1-5.7,2-7.4,4.3c-1.6,1.2-3.5,3.2-3.4,5.4c0.2,3.9,0.6,7.8,0.8,11.6c0.1,2.4,0.2,4.2,1.9,5.8c1,0.8,2.2,1.2,3.3,1.7
								c0.9,0.4,1.8,0.9,2.6,1.5c2,2.4,5.6,6.5,7.5,3.1c0.5-1,0.6-2.3,0.7-3.4c0.2-1.7,0.6-3.3,1.1-5c0.8-2.6,2.1-5,2.9-7.6
								c0.4-0.3,0.7-0.7,1.1-1c0.6-0.6,1.4-1,1.9-1.7C248.3,25.9,247.8,24.8,247.1,24.2z"/>
							<path class="st11" d="M237.3,93.5c-1.6-3.9-2.7-8.2-3.9-12.3c-0.3-1.2-0.9-2.2-1.7-2.5c0-0.1-0.1-0.2-0.2-0.2
								c-2-0.2-4,0.6-5.9,1c-1.9,0.4-3.9,0.7-5.8,0.8c-0.5,0-2.1-0.1-3.3,0.2c-2.9-0.7-2,3.8-2,6c0.1,3.1,0.3,6.1,0.6,9.1
								c0,1.9,0.1,3.8,0.1,5.7c0,1.5,0.1,3.2,1.4,3.8c1,0.5,2.7-0.2,3.8-0.5c2.3-0.3,4.6-1.1,6.8-1.7c0.4-0.1,0.7-0.2,1.1-0.3
								c2-0.3,4.1-1,5.9-2.1c0.8-0.3,1.6-0.6,2.2-1.1C238.5,97.7,238.2,95.7,237.3,93.5z"/>
							<path class="st10" d="M270.3,67.3c0-0.1,0-0.2-0.1-0.3c-1.5-1.9-3.1-3.6-4.8-5.4c-1.2-1.3-2.3-2.6-4-2.5
								c-1.7,0.1-3.3,2.4-4.6,3.5c-1.5,1.2-3.1,2.2-4.6,3.4c-0.7,0.4-1.4,0.9-1.9,1.7c0,0-0.1,0-0.1,0.1c0,0-0.1,0.1-0.1,0.2
								c-0.4,0.9,0.2,1.7,0.8,2.3c0.1,0.2,0.2,0.3,0.2,0.5c1.2,1.9,2.7,3.6,4,5.5c0.8,1.1,1.3,2.5,2.3,3.4c0.3,0.6,0.7,1.1,1.4,1.1
								c0.9,0,1.8-0.7,2.4-1.5c1.1-1,2.2-2.4,3.1-3.6c1.2-1.2,2.3-2.5,3.5-3.8c0.8-0.8,2.3-1.9,2.4-3.2
								C270.6,68.1,270.6,67.7,270.3,67.3z"/>
							<path class="st10" d="M166.2,34.4c0-0.1-0.1-0.2-0.2-0.3c-3.8-1.4-8.1-3.4-12.2-3.3c-1.9,0-3.2,1.5-4.7,2.7
								c-0.7,0.6-1.5,0.9-2.3,1.2c-0.9,0.1-1.9,0.3-2.3,1.2c-0.4,1.1,0.2,1.9,1,2.4c1.5,1,3.9,0.5,5.5,0.6c2.9,0.2,5.3,0.9,7.4,3.3
								c0.2,0.2,0.4,0.2,0.5,0.1c0.1,0,0.3,0,0.5-0.1c0.4-0.2,0.8-0.7,1.1-1.2c0.6-0.8,1.2-1.4,1.9-2.1c1.2-1.1,3.2-1.9,4-3.5
								C166.8,35,166.6,34.6,166.2,34.4z"/>
							<path class="st12" d="M175.3,44.1c-0.3-0.4-0.6-0.7-0.8-1.1c-1.5-2.2-3.3-4.1-5.1-6c-1.4-1.5-2.8-2-4.5-0.9
								c-1.5,1-3,2.7-4.2,4.4c-1.9,1.5-1.1,3.9-0.1,6.1c0.9,1.9,1.6,4,2.2,6.1c0.5,1.8,0.8,4,2,5.6c1.3,1.7,3-0.5,3.8-1.6
								c1-1.4,1.9-2.8,3.1-4c1.5-1.5,3.2-2.8,4.8-4.3c0.2-0.2,0.2-0.6,0.1-0.8C177.1,46.4,176.2,44.9,175.3,44.1z"/>
							<path class="st12" d="M196.3,77.6c-0.1-0.1-0.2-0.2-0.3-0.3c-3.9-1.3-7.2-5.3-10-8.5c-0.3-0.4-0.8-1-1.2-1.6
								c0,0,0-0.1-0.1-0.1c0,0,0,0,0,0c-0.4-0.4-0.9-0.7-1.3-0.7c-0.5,0-0.8,0.5-1,1c-0.2,0.2-0.4,0.5-0.6,0.8
								c-1.4,2.6-2.3,5.4-3.9,7.9c-1.3,2.1-2.5,4.2-2.9,6.7c-0.3,2.2,0.8,4.3,1.9,6c2.6,4,6,8.4,9.9,10.6c1.5,0.8,3.6,3.2,5.4,2.7
								c0.1,0,0.2-0.1,0.2-0.1c0.6,0,1.2-0.4,1.6-1.2c0.4-0.8,0.4-1.9,0.5-2.7c0.2-1.9,0.4-3.7,0.6-5.6c0.4-3.6,0.9-7.1,1.5-10.7
								C196.9,80.4,197.5,78.4,196.3,77.6z"/>
							<path class="st13" d="M277.6,55.2c0.1-1.9-3-2.6-4.2-3c-1.5-0.4-2.3-1.6-3.7-2.3c-0.2-0.1-0.3-0.1-0.4-0.1
								c-0.9-0.2-1.6,1.5-2,2.3c-0.7,1.5-1.7,2.6-2.7,3.7c-0.8,0.8-1.5,1.3-1.7,2.5c-0.1,0.8,0.5,1.7,1,2.2c1.1,1.3,2.4,2.4,3.6,3.7
								c0.9,1,2.7,3.7,4.1,2.9c1.1-0.4,1.7-2.1,2.2-3c1.4-2.7,3.5-5.5,3.8-8.6C277.6,55.3,277.6,55.3,277.6,55.2z"/>
							<path class="st12" d="M211.7,13.2c-0.1-0.3-0.2-0.5-0.3-0.8c0.1-0.1,0.1-0.2,0-0.4c-0.6-1.8-1.4-3.6-2.2-5.4
								c-0.5-1.1-1.3-2.2-2.4-2.6c-1.4-0.5-2.9-0.4-4.3-0.3c-2.1,0.1-4.2,0.1-6.3,0.1c-4.2,0.1-8.3,0.6-12.5,1
								c-1.5,0.2-3.6,0.4-4.6,1.8c-1,0.9-0.9,2.1,0.2,3.7c2.2,3.3,4.2,6.7,6,10.3c1.4,2.9,2.3,6.1,5.1,7.5c2.9,1.4,6.3,1.7,9.3,2.5
								c2.2,2.2,4.2-2,5-3.8c1.3-2.7,2.7-5.3,4.3-7.8c1.1-1.7,2.6-3.3,2.9-5.4C212,13.5,211.9,13.3,211.7,13.2z"/>
							<path class="st14" d="M186,21c-1.4-3-3.2-5.5-5-8.1c-0.3-0.5-0.6-1-0.9-1.4c-0.5-0.8-1-2-1.7-2.6c0.1-0.2,0.1-0.5-0.2-0.7
								c-1.7-0.9-3.6,1.8-4.7,3c-2.8,3.3-6.3,5.8-9.4,8.7c-2.2,2.1-4.4,4.3-6.5,6.5c-1.5,0.9-3.7,2.3-3.4,3.8
								c-0.1,0.4-0.1,0.7,0.5,0.8c0.6,0.4,1.4,0.5,2,0.5c2.7,0.1,5.2,1.1,7.8,2.1c2.5,1,4.6,2.7,6.5,4.7c1.7,1.7,2.8,4.3,4.8,5.5
								c1.3,0.8,2-0.6,2.9-1.6c1.3-1.6,2.9-4.1,4-6.1c1.6-2,3.3-4,4.3-6.4C187.9,26.9,187.2,23.6,186,21z"/>
							<path class="st11" d="M182.6,66.2c0.3-1,0.3-2.1,0-3.2c-0.3-1-1-2-1.5-2.9c-0.9-1.6-1.3-3.5-1.9-5.2c-0.6-1.8-0.9-4.2-2-5.7
								c-0.7-1-2-0.5-2.7,0.3c-1,0.6-1.9,1.7-2.6,2.5c-0.8,0.9-1.6,1.9-2.4,2.8c-0.7,0.7-1.4,1.4-1.9,2.2c-0.6,0.6-1.1,1.2-1.5,1.9
								c-0.7,1.1-0.5,2.9,0,4.2c0.4,2,1.5,3.9,2.3,5.7c1.1,2.5,1.8,5.3,2.8,7.9c0.9,2.3,2.3,5.9,4.7,3.2c1.3-1.4,2.1-3.7,3-5.4
								c1.3-2.6,2.5-5.3,3.7-8C182.7,66.5,182.7,66.4,182.6,66.2C182.6,66.3,182.6,66.2,182.6,66.2z"/>
							<path class="st13" d="M215.8,102.8c0.2-0.7,0.2-1.4,0.2-2.1c0-2.3-0.5-4.6-0.7-6.9c-0.2-2-0.5-4.1-0.5-6.1c0-1.5,0-3-0.3-4.4
								c-0.7-3-3-3.5-5.5-3.6c-1.7-0.1-3.4,0-5-0.2c-1.5-0.4-3.1-0.7-4.6-1.2c-0.3-0.1-0.8-0.2-1.1-0.1c-0.8-0.2-1.3,0.4-1.5,1.3
								c-0.5,2.6-0.8,5.4-1.2,8c-0.4,3.2-0.7,6.4-1,9.6c-0.2,1.7-1,3.9,0,5.4c0.1,0.1,0.2,0.2,0.3,0.1c0.4,0.4,0.9,0.6,1.5,0.8
								c2.5,0.9,5.2,1.4,7.8,1.8c2.4,0.4,4.8,0.5,7.2,0.4c1.4,0,3.1-0.2,4.2-1.4c0.1-0.1,0.1-0.2,0.1-0.3
								C215.7,103.7,215.9,103.2,215.8,102.8z"/>
							<path class="st15" d="M255,76.3C255,76.2,255,76.2,255,76.3c-0.9-1.3-1.8-2.6-2.7-3.8c-0.7-1.1-1.6-3.5-3-3.8
								c-0.1-0.1-0.2-0.1-0.3-0.1c-0.1,0-0.1-0.1-0.2-0.1c-1.6,0.1-3.2,2.1-4.4,3.1c-2,1.7-4.5,2.8-6.8,4c-1.4,0.8-3.4,1.2-4.5,2.5
								c-0.5,0.6-0.4,1.5-0.1,2.3c0,1.4,0.8,2.8,1.2,4.2c0.2,0.8,0.5,1.5,0.8,2.3c0.4,2.3,1.3,4.4,2,6.6c0.4,1,0.7,2.8,1.8,3.3
								c1.1,0.5,2,0.1,3.1-0.6c1.9-1.2,3.8-2.6,5.6-4.1c3.1-2.6,6.3-5.3,9.2-8.3C259,81.2,256.8,78.3,255,76.3z"/>
							<path class="st11" d="M224.5,28.6c-0.3-2.2,0.3-4.6-0.1-6.7c-0.1-0.6-0.3-1.1-0.6-1.5c0-0.1,0-0.2-0.1-0.3
								c-0.1-0.1-0.1-0.1-0.2-0.2c-0.5-0.6-1.2-1.1-1.9-1.6c-0.2-0.1-0.4-0.3-0.5-0.4c-0.1-0.1-0.2-0.1-0.3-0.2c0,0-0.1,0-0.1,0
								c-0.8-0.5-1.6-1-2.4-1.3c-1.7-0.7-3.7-1.8-5.5-1.5c-2.5,0.4-4.2,4.3-5.4,7c-1.1,1.7-2,3.5-3,5.3c-0.8,1.4-2.1,3.5-1.1,5.2
								c0.4,0.8,1,1.4,1.6,2c1,1.1,1.7,2.2,2.4,3.5c1.4,2.9,2.8,5.8,4.2,8.7c0.1,0.3,0.4,0.3,0.5,0.1c1.3,0.9,2.4,0.2,3.9-0.9
								c1.5-1.1,3-2.2,4.4-3.3c1.1-0.8,2.2-1.6,3.2-2.5c0.9-0.6,1.7-1.6,1.8-2.9C225.4,34.2,224.9,31.3,224.5,28.6z"/>
							<path class="st14" d="M266.8,46.9c-3.6-3.3-6.8-7.2-10-11.1c-1.8-2.2-6.7-10.8-10.1-8.1c-1.5,0.6-2.2,2.2-3,4.2
								c-1.1,3.1-2.5,6.6-3.1,10c-0.4,1.3-0.7,2.7-0.9,4.1c-0.3,2.1,0.3,3.8,1,5.7c1.7,4.7,3.6,9.4,5.1,14.2c0,0.1,0.1,0.2,0.1,0.2
								c0.5,4,5.8,0.3,7.3-0.8c2.8-1.9,5.1-4.2,7.7-6.5c2.5-2.3,4.9-4.4,7-7.2c0.1-0.1,0.1-0.2,0.1-0.2c0.2-0.3,0.3-0.6,0.3-0.9
								C268.7,48.9,267.8,47.9,266.8,46.9z"/>
							<path class="st16" d="M245,62.2c-2.7-4.9-3.1-10.8-6.7-15.1c-1.6-1.9-3.7-3.3-5.7-4.6c-2.1-1.4-4.2-3.1-6.6-3.5
								c-2.1-0.3-4,1.2-5.6,2.5c-2,1.6-4,3.2-6,5c-2,0.9-2.9,2.6-3.2,4.9c-0.3,2.2-0.4,4.4-0.8,6.6c-0.4,2.2-1.1,4.4-1.4,6.7
								c-0.7,3.9-1.1,7.9-1.7,11.8c-0.5,3,2,3.1,3.9,3.5c0.2,0,0.3-0.1,0.4-0.2c6,1.4,12.2,0.2,18.1-0.9c2.7-0.5,5.6-2.1,8-3.5
								c2.4-1.3,4.9-2.5,7.1-4.3c1.4-0.1,1.9-1.7,1.8-3.3C246.9,65.8,245.9,63.9,245,62.2z"/>
							<path class="st15" d="M234.7,11.6c-3-6.4-9.8-7-15.5-7.3c-0.3,0-6.6-0.8-9.3-0.3c0-0.1-0.1-0.3-0.2-0.2
								c-1.8,0.2-1,2.1-0.4,3.3c1.2,2.2,1.3,5.5,3.4,7c1.1,0.8,2.4,1.2,3.6,1.5c2,0.6,3.8,1.8,5.6,2.7c1.9,0.9,3.5,0.2,4.9-1.2
								c1-0.4,1.8-1.6,2.6-2.2c1.5-1.3,3.1-2.1,4.9-2.8C234.5,12.2,234.8,11.9,234.7,11.6z"/>
							<g class="st17">
								<path class="st18" d="M208.4,46.6c0-0.2,0-0.3,0-0.5c-1.3-3-3.1-5.8-4.9-8.3c-0.9-1.2-1.8-2.6-3.1-3.3
									c-2-1.2-4.3-1.4-6.4-2.4c-2.8-1.3-5-2-6.9,1.2c-0.9,1.5-1.6,3.2-2.5,4.8c-1.1,1.9-2.5,3.6-3.8,5.4c-2.9,2.3-1,7,0.3,10.1
									c0.8,2.5,2,4.8,3.1,7.1c1.2,2.7,2.8,5.1,4.8,7c3.2,3.1,7.9,7.2,12.4,7.7c0,0,0.1,0.1,0.2,0.1c0.3,0,0.5,0,0.8,0
									c0.1,0,0.2,0,0.3,0c0.1,0,0.1,0,0.2-0.1c0.9-0.2,1.6-0.8,2.2-1.9c0.6-1.1,0.8-2.5,1.1-3.7c0.5-1.9,0.9-3.9,1.2-5.9
									c0.6-3.6,1-7.4,1.4-11C208.9,50.7,209.1,48.5,208.4,46.6z M207.9,52.7c-0.3,2.7-0.6,5.4-1,8c-0.4,2.7-0.9,5.4-1.5,8.1
									c-0.6,2.6-1,5.2-3.5,5.7c-4.7-0.6-9-4.2-12.6-7.5c-4-3.7-6.1-9.4-8.3-14.5c-0.3-0.9-0.6-1.8-0.9-2.7
									c-0.3-1.2-0.6-2.4-0.4-3.7c0.1-1,0.7-1.7,1.2-2.5c2.1-2.2,3.8-4.9,5.2-7.6c0.7-1.3,1.3-2.7,2.3-3.7c1.7-1.7,4.1-0.2,5.8,0.5
									c1.6,0.7,3.3,0.8,4.9,1.4c1.8,0.7,3.2,2.5,4.2,4.2c1.6,2.9,3.3,5.9,4.6,9C208.3,49.3,208.1,51.1,207.9,52.7z"/>
								<path class="st18" d="M205.8,47c0-0.1,0-0.3,0-0.4c-1.1-2.6-2.6-5.1-4.2-7.3c-0.7-1.1-1.6-2.3-2.6-2.9
									c-1.7-1.1-3.7-1.3-5.5-2.1c-2.4-1.1-4.3-1.8-5.9,1c-0.8,1.4-1.4,2.8-2.1,4.2c-0.9,1.7-2.1,3.2-3.3,4.7
									c-2.5,2-0.9,6.1,0.2,8.9c0.7,2.2,1.7,4.2,2.6,6.2c1.1,2.3,2.4,4.4,4.1,6.2c2.8,2.8,6.8,6.3,10.6,6.8c0,0,0.1,0.1,0.1,0.1
									c0.2,0,0.4,0,0.7,0c0.1,0,0.2,0,0.3,0c0.1,0,0.1,0,0.2-0.1c0.8-0.2,1.4-0.7,1.9-1.7c0.5-1,0.7-2.2,1-3.3
									c0.4-1.7,0.7-3.4,1-5.2c0.5-3.2,0.8-6.5,1.2-9.7C206.2,50.6,206.4,48.6,205.8,47z M205.4,52.3c-0.2,2.4-0.5,4.7-0.8,7.1
									c-0.3,2.4-0.8,4.8-1.3,7.1c-0.5,2.3-0.8,4.6-3,5c-4-0.6-7.7-3.7-10.8-6.6c-3.4-3.2-5.2-8.2-7.1-12.7
									c-0.3-0.8-0.5-1.6-0.7-2.4c-0.3-1.1-0.5-2.1-0.4-3.2c0.1-0.9,0.6-1.5,1-2.2c1.8-1.9,3.2-4.3,4.5-6.7c0.6-1.1,1.1-2.3,2-3.2
									c1.4-1.5,3.5-0.1,5,0.5c1.4,0.6,2.8,0.7,4.2,1.2c1.6,0.6,2.7,2.2,3.6,3.7c1.4,2.6,2.8,5.2,3.9,7.9
									C205.7,49.3,205.5,50.9,205.4,52.3z"/>
								<path class="st18" d="M203.6,47.1c0-0.1,0-0.2,0-0.4c-0.9-2.3-2.3-4.4-3.6-6.3c-0.6-0.9-1.4-1.9-2.3-2.5
									c-1.5-0.9-3.2-1.1-4.7-1.8c-2-1-3.7-1.5-5,0.9c-0.7,1.2-1.2,2.4-1.8,3.6c-0.8,1.5-1.8,2.7-2.8,4c-2.1,1.8-0.8,5.3,0.2,7.6
									c0.6,1.9,1.4,3.6,2.2,5.4c0.9,2,2,3.8,3.5,5.3c2.4,2.4,5.8,5.4,9.1,5.9c0,0,0.1,0,0.1,0.1c0.2,0,0.4,0,0.6,0
									c0.1,0,0.2,0,0.2,0c0.1,0,0.1,0,0.1-0.1c0.7-0.2,1.2-0.6,1.6-1.4c0.4-0.8,0.6-1.9,0.8-2.8c0.4-1.5,0.6-2.9,0.9-4.4
									c0.4-2.8,0.7-5.6,1-8.3C204,50.2,204.1,48.5,203.6,47.1z M203.3,51.7c-0.2,2-0.5,4.1-0.7,6.1c-0.3,2.1-0.7,4.1-1.1,6.1
									c-0.4,2-0.7,3.9-2.6,4.3c-3.5-0.5-6.6-3.2-9.2-5.7c-3-2.8-4.5-7.1-6.1-11c-0.2-0.7-0.4-1.4-0.6-2.1
									c-0.2-0.9-0.4-1.8-0.3-2.8c0.1-0.8,0.5-1.3,0.9-1.9c1.5-1.6,2.8-3.7,3.9-5.8c0.5-1,1-2,1.7-2.8c1.2-1.3,3-0.1,4.3,0.4
									c1.2,0.5,2.4,0.6,3.6,1.1c1.3,0.5,2.4,1.9,3.1,3.2c1.2,2.2,2.4,4.5,3.4,6.8C203.5,49.1,203.4,50.5,203.3,51.7z"/>
								<path class="st18" d="M201.7,47.3c0-0.1,0-0.2,0-0.3c-0.8-2-1.9-3.8-3-5.5c-0.5-0.8-1.1-1.7-1.9-2.2
									c-1.2-0.8-2.7-0.9-3.9-1.6c-1.7-0.8-3.1-1.3-4.2,0.8c-0.6,1-1,2.1-1.5,3.1c-0.7,1.3-1.5,2.4-2.3,3.5
									c-1.8,1.5-0.6,4.6,0.2,6.6c0.5,1.6,1.2,3.2,1.9,4.7c0.8,1.8,1.7,3.3,3,4.6c2,2.1,4.9,4.7,7.6,5.1c0,0,0.1,0,0.1,0
									c0.2,0,0.3,0,0.5,0c0.1,0,0.1,0,0.2,0c0,0,0.1,0,0.1-0.1c0.6-0.1,1-0.5,1.3-1.2c0.4-0.7,0.5-1.6,0.7-2.4
									c0.3-1.3,0.5-2.6,0.7-3.9c0.4-2.4,0.6-4.8,0.8-7.2C202.1,50,202.2,48.6,201.7,47.3z M201.5,51.3c-0.2,1.8-0.4,3.5-0.6,5.3
									c-0.2,1.8-0.6,3.6-0.9,5.3c-0.4,1.7-0.6,3.4-2.1,3.8c-2.9-0.4-5.5-2.8-7.7-5c-2.5-2.4-3.8-6.1-5.1-9.5
									c-0.2-0.6-0.4-1.2-0.5-1.8c-0.2-0.8-0.4-1.6-0.3-2.4c0.1-0.7,0.4-1.1,0.7-1.6c1.3-1.4,2.3-3.2,3.2-5
									c0.4-0.9,0.8-1.7,1.4-2.4c1-1.1,2.5-0.1,3.6,0.4c1,0.4,2,0.5,3,0.9c1.1,0.4,2,1.6,2.6,2.8c1,1.9,2,3.9,2.8,5.9
									C201.7,49.1,201.6,50.3,201.5,51.3z"/>
							</g>
							<path class="st19" d="M238.2,61.9c-0.3-1.5-0.7-2.9-1-4.4c-0.3-1.5-0.7-3.1-1.3-4.5c-1-2.2-2.8-3.4-4.7-4.5
								c-1.2-0.7-2.4-1.3-3.5-1.9c-1-0.6-2-1-3.2-0.9c-1,0.1-2,0.8-2.9,1.4c-0.9,0.6-1.7,1.4-2.5,2.1c-0.2,0.2-0.4,0.3-0.6,0.5
								c-0.8,0.6-1.5,1.4-2.4,2c-0.8,0.5-1.4,1.5-1.7,2.6c-0.8,2-1,4.2-1.2,6.3c-0.3,3.1-0.7,6.2-1,9.3c-0.2,2.1,0.2,3.8,2.2,4.2
								c1,0.2,2.1,0,3-0.1c1.5-0.2,3-0.5,4.5-0.8c2.7-0.6,5.4-1.2,8-2.1c2.4-0.8,5-1.5,7.1-3.1C239,66.5,238.7,64.2,238.2,61.9z
								 M238.1,65c-0.1,1.8-1.5,2.8-2.8,3.4c-2.5,1.2-5.2,2-7.8,2.8c-2.9,0.8-5.8,1.4-8.7,1.9c-1.2,0.2-2.4,0.3-3.6,0.4
								c-0.7,0-1.3-0.1-1.9-0.5c-0.6-0.5-0.7-1.4-0.7-2.2c0-1.4,0.2-2.9,0.4-4.3c0.2-1.5,0.3-3.1,0.5-4.6c0.2-1.5,0.4-3.1,0.7-4.6
								c0,0,0,0,0,0c0.1-0.9,0.3-1.8,0.6-2.6c0.1-0.5,0.3-0.9,0.5-1.3c0.3-0.5,0.7-0.9,1.1-1.2c0,0,0,0.1-0.1,0.1
								c0.7-0.7,1.4-1.3,2.1-1.8c0.4-0.4,0.9-0.9,1.4-1.3c1-0.9,2.1-1.9,3.3-2.5c1.5-0.8,2.9-0.4,4.3,0.4c2.3,1.3,5,2.3,6.9,4.4
								c2,2.2,2.3,5.8,3,8.7C237.8,61.8,238.2,63.4,238.1,65z"/>
							<path class="st19" d="M242.5,66.3C242.5,66.3,242.5,66.3,242.5,66.3c0-0.1,0-0.1,0-0.1c0-0.2-0.1-0.4-0.2-0.6
								c-1.1-4.4-2.1-8.7-3.9-12.8c-0.8-1.7-1.7-3.4-3.1-4.6c-1.6-1.4-3.5-2.1-5.3-3.1c-1.7-0.9-3.2-2.4-5.1-2.8
								c-1.8-0.4-3.4,1.3-4.7,2.5c-1.6,1.5-3.2,2.9-4.8,4.4c-0.8,0.7-1.4,1.5-1.9,2.4c0,0.1-0.1,0.1-0.1,0.2c0,0,0,0,0,0
								c-1.2,2.2-1.2,5.2-1.7,7.7c-0.8,4.1-1.4,8.2-2.1,12.3c-0.3,1.3,0,2.7,0.7,3.8c0.7,1.1,2.1,1.3,3.2,1.3c1.7,0.1,3.5,0,5.3-0.1
								c0.9-0.1,1.9-0.3,2.8-0.6c0.3,0,0.6-0.1,0.9-0.1c1.2-0.2,2.4-0.6,3.7-0.8c2.6-0.5,5.1-1,7.7-1.9c2.4-0.8,4.8-2,6.9-3.5
								c0.8-0.5,1.6-1.2,1.8-2.2C242.8,67.5,242.6,66.8,242.5,66.3z M241.3,69c-0.8,0.7-1.8,1.2-2.8,1.8c-2,1.1-4.1,2-6.2,2.7
								c-2.3,0.8-4.7,1.1-7.1,1.7c-0.3,0.1-0.6,0.2-1,0.3c-1.4,0.1-2.8,0.5-4.1,0.8c-0.2,0-0.3,0.1-0.5,0.1c-0.3,0-0.5,0.1-0.8,0.1
								c0,0,0,0-0.1,0c-1.1,0.1-2.2,0.1-3.3,0.2c-1.5,0-3.3,0.1-4.5-1c-1.3-1.2-0.9-3.4-0.7-4.9c0.5-3.5,1-7.1,1.8-10.6
								c0.4-1.7,0.7-3.3,1-5c0.2-1.5,0.6-2.7,1.3-3.9c0.5-0.7,1.1-1.3,1.8-1.9c1.5-1.3,2.9-2.5,4.3-3.9c1.6-1.5,3.2-2.9,5.4-2
								c1.7,0.7,3.2,1.9,4.9,2.7c1.7,0.8,3.4,1.6,4.8,3c1.4,1.4,2.3,3.4,3,5.3c1.2,3.4,2,7,2.9,10.5c0,0.1,0,0.1,0,0.2
								c0.1,0.1,0.1,0.2,0.1,0.3c0.1,0.4,0.2,0.8,0.3,1.2c0,0,0,0,0,0c0,0.2,0,0.3,0.1,0.5C242.1,67.9,241.9,68.4,241.3,69z"/>
							<path class="st19" d="M236.5,64.6c0-1-0.1-1.8-0.4-2.7c-0.3-1.2-0.5-2.4-0.7-3.6c-0.4-1.8-0.6-4-2-5.2
								c-0.7-0.6-1.5-1-2.2-1.5c-0.8-0.7-1.6-1.3-2.5-2c-0.7-0.5-1.4-1-2.2-1.2c-0.4-0.1-0.6-0.2-0.9-0.2c0-0.1-0.1-0.1-0.2-0.1
								c-1.7,0.2-2.6,1.8-3.9,2.9c-0.7,0.7-1.5,1.4-2.4,1.9c-0.7,0.5-1.6,0.8-2.2,1.5c-1,1.2-1.4,2.9-1.5,4.4c0,0.5-0.1,1-0.1,1.5
								c-0.1,0.8-0.2,1.5-0.3,2.3c-0.2,0.8-0.2,1.7-0.3,2.6c-0.2,1.2-0.4,2.4-0.4,3.6c0,4,4.3,2.5,6.5,2.2c1.7-0.2,3.3-0.4,5-0.8
								c1.9-0.5,3.7-1.1,5.5-1.6c1.9-0.4,4.9-1.4,5-3.8C236.4,64.8,236.5,64.7,236.5,64.6z M235.4,66.1c-0.4,0.6-1.1,0.9-1.7,1.2
								c-1.3,0.6-2.7,0.8-4,1.2c-1.3,0.3-2.6,0.9-4,1.3c-1.5,0.5-3,0.7-4.5,0.9c-1.4,0.2-2.7,0.6-4.1,0.6c-1.1,0-2-0.5-2.2-1.7
								c-0.1-0.9,0.1-1.9,0.2-2.7c0.2-1.5,0.3-3,0.4-4.5c0.1-0.7,0.3-1.5,0.3-2.3c0.1-1.8,0.3-3.7,1.3-5.1c0.5-0.7,1.3-1,2-1.4
								c0.7-0.5,1.4-1.1,2.1-1.7c0.7-0.6,1.4-1.3,2-1.9c0.6-0.6,1.1-0.9,1.8-1.2c0.5-0.1,0.9,0,1.5,0.2c0.8,0.3,1.5,0.9,2.2,1.4
								c1.4,1.2,2.9,1.9,4.4,3c0.7,0.6,1,1.6,1.1,2.5c0.2,1,0.5,2,0.7,3c0.3,1.6,0.6,3.2,1,4.9c0,0-0.1,0.1-0.1,0.2
								C235.9,64.7,235.9,65.4,235.4,66.1z"/>
							<path class="st19" d="M233.7,63.1c-0.4-1.8-0.8-3.6-1-5.5c-0.1-1.2-0.4-2.4-1.1-3.2c-0.9-1-2.2-1.6-3.4-2.2
								c-1-0.5-2.4-1.5-3.6-1.1c-1.3,0.5-2.3,1.7-3.3,2.7c-1,1-2.2,1.7-3,2.9c-0.8,1.2-0.9,2.7-1,4.1c0,0,0,0.1,0,0.1
								c-0.2,1.4-0.2,2.9-0.3,4.3c-0.1,0.9-0.2,1.8,0.2,2.7c0.8,1.8,3.8,0.7,5.1,0.4c2.6-0.7,5.3-1.7,7.9-2.3c1-0.2,3.2-1.1,3.4-2.6
								C233.7,63.3,233.7,63.2,233.7,63.1z M228.2,66c-1.8,0.6-3.6,1.1-5.4,1.6c-1.3,0.4-4.7,1.7-5.3-0.4c-0.3-0.9,0-2.2,0.1-3.1
								c0-0.2,0-0.3,0-0.5c0-0.4,0.1-0.8,0.1-1.2c0.2-1.6,0.2-3.1,0.7-4.6c0.5-1.3,1.5-2.3,2.5-3.2c1-0.9,1.9-1.8,2.9-2.6
								c1.5-1.2,2.9-0.2,4.3,0.5c1.2,0.6,2.5,1.2,3.4,2.3c0.8,1.1,0.8,2.8,0.9,4.2c0.1,1.1,0.4,2.3,0.6,3.4c0,0,0,0.1,0,0.1
								C233.2,65.2,229.8,65.5,228.2,66z"/>
							<path class="st19" d="M231,63c-0.1-1.2-0.2-2.4-0.4-3.6c-0.1-0.9,0-2-0.4-2.8c-0.4-0.8-1.1-1.2-1.8-1.6
								c-0.8-0.4-1.6-1.1-2.5-1.1c-0.8,0-1.5,0.4-2.2,0.9c-0.3,0.3-0.6,0.7-0.9,1.1c-0.5,0.5-1.1,1-1.6,1.5
								c-0.5,0.5-0.8,0.9-0.9,1.7c0,0.2,0,0.4-0.1,0.6c0,0.2-0.1,0.3-0.1,0.5c-0.1,0.6-0.2,1.3-0.1,1.6c0,0,0,0.1,0,0.1
								c0,0,0,0,0,0.1l0,0.1c0,0.9-0.1,1.9-0.1,2.8c0.1,1.6,1.5,1.8,2.6,1.5c0.9-0.3,1.9-0.2,2.8-0.5c1-0.3,2.1-0.5,3.1-0.8
								c0.8-0.3,2.2-0.6,2.5-1.6C230.9,63.2,231,63.1,231,63z M228.7,64.1c-0.6,0.2-1.2,0.5-1.9,0.6c-0.7,0.1-1.3,0.4-2,0.5
								c-0.5,0.1-1.1,0.1-1.7,0.2c-0.8,0.2-1.7,0.6-2.4,0.1c-0.6-0.4-0.4-1.5-0.4-2.1c0-1,0-2.1,0-3.1c0-0.2,0.1-0.5,0.1-0.7
								c0-0.3,0.1-0.5,0.1-0.8c0.1-0.7,0.6-0.9,1-1.3c0.5-0.4,1-0.8,1.5-1.3c0.8-0.8,1.4-1.7,2.6-1.8c0.8-0.1,1.7,0.5,2.3,0.9
								c1,0.6,1.8,1,2.1,2.4c0.3,1.4,0.3,3,0.4,4.4c-0.1,0-0.1,0.1-0.1,0.2C230.5,63.5,229.5,63.9,228.7,64.1z"/>
							<path class="st19" d="M228.6,59.6c-0.1-0.7-0.1-1.4-0.3-2c-0.3-0.8-1.3-1.7-2.1-1.6c-1.1,0.1-1.7,1.2-2.4,2.1
								c-0.3,0.3-0.5,0.7-0.7,1.2c-0.3,1.1-0.1,2.6-0.1,3.8c0.1,2.5,3.2,0.8,4.3,0.5c0.9-0.2,1.4-0.8,1.6-1.8
								C228.9,61.1,228.6,60.2,228.6,59.6z M226.4,63.2c-0.5,0.1-1,0.4-1.5,0.6c-1.4,0.5-1.6-0.8-1.5-2c0-1-0.2-2,0.2-3
								c0.1-0.2,0.1-0.3,0.2-0.4c0,0,0,0,0,0c0.4-0.3,0.7-0.7,1.1-1.1c0.2-0.2,0.4-0.4,0.6-0.5c0,0,0,0,0,0c1.1-0.8,2.4,0.6,2.5,1.9
								c0.1,0.8,0.2,1.6,0.3,2.4C228.6,62.6,227.5,63,226.4,63.2z"/>
							<path class="st19" d="M227.4,60c-0.1-0.3-0.2-0.6-0.2-1c0-0.2,0-0.5-0.1-0.6c-0.4-0.6-0.7-0.2-1,0.3
								c-0.6,0.9-1.1,2.1-0.6,3.2c0.3,0.7,1.7,0.6,1.9-0.2C227.5,61.2,227.5,60.5,227.4,60z M226.4,61.9c-0.7,0.1-0.7-0.7-0.7-1.2
								c0-0.3,0-0.7,0.2-1c0.1,0,0.1,0,0.1-0.1c0.2-0.3,0.7-1.7,0.8-0.6c0.1,0.7,0.3,1.3,0.3,2C227.1,61.6,226.9,61.8,226.4,61.9z"
								/>
							<path class="st19" d="M198.7,47.9c-0.8-1.4-1.8-2.7-2.5-4.2c-0.3-0.7-0.6-1.4-1-2c-0.4-1.2-2.2-1.8-3.1-2.1
								c-1.5-0.5-1.8,0.6-2.3,2.1c-0.3,0.7-0.6,1.3-0.9,2c-0.7,1.4-1.6,2.5-2.3,3.8c-0.6,1.1-0.5,2.3,0,3.4c0.2,0.5,0.5,1,0.8,1.4
								c0.4,0.8,0.6,1.6,0.9,2.5c0.7,2.4,1.8,4.7,3.6,6.4c1.1,1,3.6,2.8,4.9,1.6c0.6-0.4,1-1.1,1.2-1.8c0.4-1.6,0.7-3.2,1-4.8
								C199.7,53.4,200,50.4,198.7,47.9z M198.7,55.7c-0.3,1.2-0.6,2.4-0.8,3.6c-0.1,0.7-0.3,1.3-0.5,1.9c-0.2,0.6-0.7,0.9-1.1,1.2
								c-1,0.4-2.3-0.6-3.2-1c-1-0.5-1.8-1.4-2.5-2.3c-1.3-1.8-1.8-4-2.5-6.2c-0.3-1-0.9-1.9-1.3-2.9c-0.5-1.5,0.5-2.9,1.3-4
								c1-1.4,1.6-3,2.1-4.6c0.1-0.2,0.2-0.4,0.3-0.6c0.4-0.6,1.1-0.5,1.8-0.4c0.3,0,0.5,0.1,0.7,0.2c0.7,0.4,1.3,0.9,1.9,1.5
								c0.1,0.1,0.2,0.2,0.2,0.4c0.5,1,0.9,2.1,1.5,3c0.6,1,1.2,1.9,1.8,2.9C199.6,50.6,199.2,53.4,198.7,55.7z"/>
							<path class="st19" d="M195.2,45.2c-0.4-0.9-0.9-1.7-1.6-2.4c-0.4-0.4-1.2-0.9-1.8-0.8c-0.6,0.2-0.9,0.7-1,1.4
								c-0.1,0.6-0.2,1.1-0.3,1.7c-0.4,0.7-0.7,1.4-1.2,2.1c-0.4,0.7-0.6,1.5-0.6,2.3c0,1,0.5,2,0.9,2.9c0.6,1.3,1.1,2.5,1.6,3.8
								c0.6,1.5,1.5,3.7,3.1,4c1.2,0.2,1.9-1.5,2.2-2.4c0.3-0.9,0.4-1.9,0.5-2.9c0.1-1.1,0.3-2.2,0.3-3.3
								C197.3,49.2,196.2,47.1,195.2,45.2z M196.8,51.9c-0.1,1.8-0.2,3.8-0.7,5.5c-0.4,1.4-1.4,3-2.8,1.9c-0.6-0.5-0.9-1.3-1.3-2
								c-0.5-1-0.9-2-1.3-3c-0.7-1.7-1.9-3.5-1.8-5.4c0-0.6,0.3-1.2,0.6-1.7c0,0,0.1,0,0.1,0c0.4-0.5,0.7-1.1,1-1.7
								c0.3-0.8,0.3-1.6,0.6-2.4c0.5-1.2,2,0.2,2.4,0.7c0.7,0.7,1.1,1.8,1.5,2.8C196,48.2,197,49.7,196.8,51.9z"/>
							<path class="st19" d="M195.2,49.5c-0.3-1.3-0.6-2.9-1.4-3.9c-0.4-0.5-1.3-1-1.8-0.4c-0.3,0.4-0.3,0.9-0.4,1.4
								c0,0.2-0.1,0.4-0.1,0.6c-0.4,0.9-0.7,1.8-0.7,2.8c0,1.4,1.1,2.8,1.8,3.8c0.4,0.7,0.6,2.3,1.6,2.2c0.9,0,1.4-1,1.5-2
								C195.7,52.6,195.5,50.9,195.2,49.5z M195.1,54.6c-0.3,1-1.4,1-1.7,0c-0.3-0.8-0.8-1.5-1.2-2.1c-0.6-0.9-1.1-1.9-1.1-3.1
								c0-0.1,0-0.1,0-0.2c0,0,0.1,0,0.1-0.1c0.2-0.7,0.6-1.4,0.7-2.1c0-0.2,0.1-0.4,0.1-0.6c0-0.6,0.4-0.9,1.2-0.7
								c0.4,0.3,0.6,0.8,0.7,1.3c0.3,0.7,0.4,1.5,0.7,2.3c0.4,1.1,0.4,2.3,0.5,3.5C195.2,53.4,195.3,54,195.1,54.6z"/>
							<path class="st19" d="M222.9,27.9c-0.1-1.3-0.2-2.7-0.4-4c-0.1-1-0.4-2-1-2.9c-0.5-0.8-1.3-1.3-2-1.8c-1-0.7-2-1.3-3.1-1.9
								c-0.8-0.5-1.8-0.8-2.7-0.8c-0.9,0.1-1.6,1.2-2.1,1.9c0,0,0,0,0,0c-0.9,1.1-1.8,2.3-2.5,3.6c-0.5,1-1,2-1.5,3
								c-0.5,0.9-1.1,1.9-1.5,2.8c-0.7,1.7-0.5,3.3,0.3,4.9c0.5,1,1.2,1.8,1.8,2.7c0.7,1,1.2,2.1,1.6,3.2c0.5,1.7,1,3.4,2.1,4.7
								c1.1,1.3,2.5,0.9,3.7-0.1c1.6-1.4,3.1-2.8,4.8-3.9c0.8-0.5,1.6-1.1,2.2-2c0.2-0.4,0.4-0.8,0.4-1.3c0.1,0,0.1-0.1,0.1-0.2
								C223.2,33.4,223.1,30.6,222.9,27.9z M222.4,34.8c-0.1,1-0.1,1.9-0.8,2.7c-0.6,0.8-1.5,1.3-2.3,1.8c-1.5,1-2.7,2.1-4,3.4
								c-3.7,3.5-4.6-3.3-5.8-5.8c-0.8-1.5-1.8-2.7-2.7-4.1c-0.6-1-0.9-2-0.9-3.2c0.1-1,0.6-1.9,1-2.7c0.9-1.7,1.7-3.3,2.6-5
								c0.7-1.4,1.7-2.7,2.7-3.9c0.6-0.5,1.2-1,2-0.9c1,0.1,2,0.7,2.8,1.2c1.7,1,3.7,2,4.5,4c0.4,1,0.5,2.2,0.5,3.3
								c0.1,1.1,0.3,2.3,0.3,3.4c0.1,1.8,0.1,3.7,0.1,5.5C222.5,34.7,222.5,34.7,222.4,34.8z"/>
							<path class="st19" d="M220.9,29.9c-0.1-0.7-0.2-1.4-0.3-2.1c0-0.4-0.1-0.9-0.1-1.3c-0.1-0.6,0-1.3-0.2-1.9
								c0.2-3.5-3-5.8-5.8-6.1c-1.6-0.1-2.4,0.9-3.2,2.3c-0.8,1.4-1.8,2.6-2.5,4.2c-0.2,0.3-0.4,0.5-0.5,0.8c-0.9,1.6-1,3.3-0.6,5.1
								c0.5,2,1.8,3.7,2.7,5.5c0.7,1.5,1.5,3.7,3,4.3c1.3,0.5,2.6-0.8,3.6-1.6c1.3-1.1,3-2.1,3.8-3.8
								C221.7,33.9,221.2,31.6,220.9,29.9z M220.7,34.1c-0.2,1.8-1.9,3-3.2,4c-1.2,1-3,2.9-4.5,1.8c-0.6-0.4-1-1.4-1.3-2.1
								c-0.4-0.8-0.8-1.5-1.2-2.3c-0.9-1.7-1.9-3.2-2.4-5.1c-0.5-2.1,0.2-3.8,1.2-5.4c0.6-1,1.1-1.9,1.7-2.9c0.8-1.1,1.4-2.8,2.8-3
								c1.4-0.2,3.1,0.7,4.2,1.6c1,0.7,1.5,2,1.8,3.2c0.1,1,0.2,2,0.3,2.9c0,0.1,0,0.2,0,0.3c0,0.6,0.1,1.2,0.2,1.8
								C220.5,30.7,220.9,32.4,220.7,34.1z"/>
							<path class="st19" d="M219.2,32.1c-0.1-2.1-0.4-4.2-0.4-6.3c0-1.7-0.3-2.8-1.6-3.7c-0.8-0.5-2.7-1.9-3.7-1.1
								c-0.9,0.8-1.6,2.1-2.2,3.3c-0.2,0.3-0.3,0.6-0.5,0.9c-0.5,1-1.2,2-1.5,3.2c-0.2,1.1,0.5,2.2,1,3c0.7,1.2,1.4,2.4,2,3.7
								c0.4,0.9,1,1.9,1.8,2.3c0.7,0.4,1.6-0.2,2.1-0.7c1.3-1.1,2.6-2.6,2.7-4.5C219.1,32.3,219.2,32.2,219.2,32.1z M216.2,36.1
								c-0.9,0.9-1.8,1.2-2.7,0.1c-0.6-0.8-1-1.8-1.4-2.7c-0.9-1.7-2.8-3.7-2-5.8c0.5-1.4,1.3-2.8,2-4.1c0.4-0.6,0.8-1.1,1.2-1.6
								c0.8-0.9,1.5-0.5,2.3-0.1c0.6,0.3,1.2,0.6,1.8,1.1c1.2,0.9,0.8,2.8,0.9,4.2c0,1.5,0.3,3,0.4,4.4c-0.1,1-0.3,1.8-0.8,2.6
								C217.4,34.9,216.8,35.5,216.2,36.1z"/>
							<path class="st19" d="M217.3,28.6c-0.2-1.1-0.3-2.2-0.4-3.3c-0.2-1.2-1-2.1-2.1-2.2c-0.9-0.1-1.6,1.1-2,1.9
								c0,0.1,0,0.1,0,0.2c-0.4,0.7-0.8,1.4-1.1,2.1c-0.6,1.1-0.7,2.3-0.1,3.5c0.3,0.6,0.7,1.2,1.1,1.9c0.4,0.6,0.6,1.5,1.1,2
								c0.8,0.8,1.8,0.3,2.5-0.4c0.9-0.9,1.3-2.1,1.3-3.4C217.6,30,217.5,29.3,217.3,28.6z M215.7,34c-0.6,0.6-1.4,0.6-1.9-0.2
								c-0.2-0.4-0.4-0.8-0.6-1.2c-0.5-0.9-1.1-1.7-1.4-2.7c-0.4-1.2,0.3-2.3,0.7-3.3c0.3-0.6,0.5-1.2,0.8-1.7
								c0.6-0.7,1.1-1.5,2.1-1c1.2,0.6,1,2.5,1.2,3.7c0.2,1.1,0.5,2.1,0.5,3.2C217.1,32.1,216.6,33.1,215.7,34z"/>
							<path class="st19" d="M216.3,29c-0.2-0.7-0.2-1.7-0.7-2.2c-0.3-0.3-0.7-0.6-1-0.2c-0.2,0.3-0.3,0.7-0.3,1.1
								c-0.2,0.4-0.5,0.8-0.6,1.3c-0.2,0.8,0,1.2,0.4,1.9c0.6,1.2,1.7,2,2.3,0.3C216.5,30.6,216.5,29.7,216.3,29z M214.9,31.4
								c-0.4-0.4-1-1.4-0.9-2c0-0.1,0-0.2,0.1-0.3c0.1-0.2,0.2-0.3,0.3-0.5c0.1-0.2,0.7-2.3,1.1-1c0.3,0.8,0.5,1.8,0.6,2.7
								C216.1,30.9,215.6,32.3,214.9,31.4z"/>
							<path class="st19" d="M244.5,25.1C244.5,25.1,244.5,25,244.5,25.1C244.5,25,244.5,25,244.5,25.1c0-0.9-0.6-1.9-1.1-2.5
								c-1.2-1.6-2.2-3.4-3.4-5.1c-0.5-0.7-1.1-1.4-1.7-1.9c-0.5-0.5-1.2-1.3-1.9-1.5c-1.5-0.3-2.5-0.1-3.6,1c-1.7,1-3.5,2.1-5,3.5
								c-1.6,1.3-2.3,3.1-2.1,5.4c0.2,1.4,0.5,2.8,0.6,4.2c0.2,1.5,0.1,3.1,0.1,4.7c0,1.2,0.1,2.4,0.6,3.6c0.4,1,1.3,1.6,2,2.2
								c0.9,0.6,1.8,1.2,2.7,1.7c1.1,0.7,2.1,1.5,3.2,2.1c0.7,0.4,1.7,0.7,2.5,0.4c0.8-0.4,1.2-1.5,1.4-2.4c0.8-2.7,1.3-5.3,2.5-7.8
								c0.9-1.9,1.9-3.7,2.5-5.6C244.3,26.3,244.5,25.8,244.5,25.1z M241.5,31.3c-0.9,1.9-1.6,3.9-2.2,6c-0.3,1.1-0.5,2.3-0.9,3.4
								c-0.2,0.7-0.5,1.2-1.1,1.5c-0.6,0.3-1.5-0.3-2.1-0.6c-1.8-1.1-3.6-2.3-5.4-3.5c-0.8-0.5-1.6-1.2-2.1-2.1
								c-0.7-1.2-0.6-2.8-0.6-4.1c0-2.5-0.3-4.9-0.6-7.4c-0.2-1.2-0.3-2.4,0.2-3.6c0.4-1,1.2-1.8,2-2.5c1.6-1.3,3.3-2.4,5-3.6
								c1.1-0.6,2.3-0.8,3.4,0c1.2,0.9,2.2,2.1,3.1,3.4c0.9,1.2,1.6,2.6,2.5,3.8c0.5,0.7,1,1.3,1.3,2.1c0.1,0.3,0.2,0.7,0.2,1
								C243.4,27.4,242.4,29.3,241.5,31.3z"/>
							<path class="st19" d="M240.4,21.3c-1-2.1-2.6-4.8-4.7-5.4c-0.5-0.1-0.9-0.1-1.3,0.1c0,0,0,0,0,0c0,0,0,0,0,0c0,0,0,0,0,0
								c-2.1,1-4.4,2.4-5.9,4.4c-1.7,2.2-1.2,4.8-0.9,7.5c0.3,2.7,0.1,5.9,1.6,8.1c0.7,1,1.7,1.8,2.6,2.5c1,0.8,2,1.6,3.1,2
								c2.1,0.8,3.2-1.5,3.8-3.4c1-2.8,1.7-5.8,2.5-8.7C241.9,26,241.6,23.6,240.4,21.3z M241,26.6c-0.3,2.6-1.3,5.2-1.9,7.6
								c-0.6,2.1-1.3,6.3-3.9,5.9c-1.1-0.2-2.2-1-3-1.7c-0.9-0.7-1.8-1.5-2.5-2.4c-1.6-2-1.4-5.2-1.6-7.8c-0.1-1.2-0.3-2.4-0.4-3.6
								c-0.1-1.6,0.4-2.9,1.3-4.1c0.6-0.8,1.4-1.5,2.2-2.1c0.1-0.1,0.3-0.2,0.4-0.2c0.3-0.1,0.6-0.3,0.9-0.5c0,0,0.1,0,0.1,0
								c1-0.9,2.1-1.8,3.4-1.2c1,0.4,1.9,1.6,2.5,2.6C240,21.3,241.3,23.9,241,26.6z"/>
							<path class="st19" d="M239.1,24.5c-0.4-2-0.6-4.9-2.5-5.8c-1.2-0.6-2.6,0.1-3.8,1c-1.2,0.6-2.3,1.3-2.9,2.5
								c-1.1,2.1-0.3,4.9,0,7.1c0.1,1.2,0.1,2.5,0.4,3.7c0.3,1.1,0.8,1.9,1.4,2.7c1,1.2,2.7,3.3,4.2,2.1c0.7-0.6,1-1.8,1.3-2.6
								c0.4-1.2,0.9-2.5,1.3-3.7C239.4,29.2,239.6,27,239.1,24.5z M238.1,31.4c-0.7,1.9-1.2,4-2.2,5.7c-1.2,2.1-3.9-1.4-4.6-2.6
								c-1.1-1.7-0.8-4-1.1-5.9c-0.3-1.9-0.9-4.1-0.1-6c0.3-0.7,0.8-1.2,1.3-1.6c0,0.1,0.1,0.1,0.2,0c1.5-0.9,3.3-2.4,5.1-1.6
								c0.9,0.4,1.2,1.7,1.4,2.7c0.2,1,0.4,2,0.7,3C239.2,27.3,238.9,29.3,238.1,31.4z"/>
							<path class="st19" d="M236.8,24.3c-0.3-1.1-0.6-2.5-1.6-2.9c-1-0.4-1.8,0.4-2.3,1.2c-0.6,0.5-1.2,1-1.2,1.7
								c0,0.9,0.3,1.8,0.4,2.7c0.2,1,0.2,1.9,0.2,2.9c0,1.7,0.6,3.1,1.5,4.4c0.6,0.8,1.4,1,1.9-0.1c0.7-1.5,1.1-3.3,1.4-5
								C237.6,27.6,237.3,26,236.8,24.3z M235.9,33.1c-0.2,0.5-0.7,2.1-1.5,1.2c-0.4-0.4-0.7-0.9-0.9-1.4c-0.7-1.2-0.7-2.6-0.7-4
								c-0.1-1.1-0.3-2.2-0.5-3.3c-0.3-1,0.1-1.8,0.6-2.4c0,0,0.1,0,0.1,0c0.7-0.7,1.7-1.8,2.6-0.9c0.7,0.6,0.9,2.1,1.1,2.9
								C237.3,27.9,236.8,30.6,235.9,33.1z"/>
							<path class="st19" d="M235.8,28.9c-0.1-1.2-0.1-2.4-0.4-3.6c-0.1-0.5-0.7-1.4-1.2-1.1c-0.6,0.3-0.7,0.9-0.7,1.5
								c0,0.1-0.1,0.3-0.1,0.4c0,1.1,0.4,2.4,0.6,3.5c0.1,0.5,0.1,1.6,0.4,2c0.3,0.3,0.7,0.2,1-0.2
								C235.9,30.6,235.9,29.8,235.8,28.9z M235.2,31.2c-0.4,0.7-0.6-1.2-0.7-1.4c-0.1-0.5-0.2-1-0.3-1.5c-0.2-0.9-0.5-1.7-0.3-2.5
								c0.1-0.2,0.1-0.5,0.2-0.7c0.7,0,1,0.3,1.1,1c0.1,0.3,0.1,0.7,0.2,1C235.5,28.2,235.8,30.2,235.2,31.2z"/>
							<path class="st19" d="M264.1,47c-0.7-2-2.4-3.6-3.8-5c-1.8-1.8-3.5-3.6-5-5.7c-1.3-1.8-2.7-3.8-4.5-5
								c-1.1-0.8-2.8-1.4-3.9-0.3c-1.6,1.2-2,4.3-2.6,6.3c-0.5,1.7-1.1,3.3-1.5,5c-0.2,1-0.4,2-0.6,2.9c-0.2,0.8-0.4,1.6-0.4,2.4
								c0,1.7,0.8,3.3,1.5,4.8c0.8,1.8,1.5,3.6,2,5.4c0.5,1.6,1,3.2,1.7,4.7c0.5,1,1.2,1.7,2.1,1.7c1.3,0.5,2.6,0.3,3.7-0.7
								c0.7-0.6,1.4-1.4,2-2.1c0.9-1,1.8-2,2.7-2.9c1.7-1.8,3.4-3.6,5-5.6C263.7,51.2,264.9,49.3,264.1,47z M261.6,53.1
								c-1.2,1.6-2.7,3.1-4.1,4.5c-1.4,1.5-2.8,3.1-4.3,4.6c-1.3,1.3-4.3,2.6-5.7,0.5c-0.4-0.6-0.6-1.4-0.9-2.1
								c-0.5-1.3-0.9-2.7-1.3-4c-0.4-1.4-1-2.8-1.6-4.1c-0.6-1.5-1.4-3-1.6-4.7c-0.1-0.7,0.2-1.6,0.4-2.3c0.2-0.7,0.3-1.4,0.4-2.2
								c0.3-1.7,0.8-3.3,1.4-4.9c0.4-1.3,0.8-2.7,1.2-4c0.2-0.9,0.4-1.7,0.9-2.4c0.3-0.5,0.7-0.8,1.2-1.1c1.6-0.5,3.1,0.8,4.3,1.9
								c1.5,1.4,2.6,3.2,3.8,4.8c2.4,3.2,5.7,5.4,7.6,9C264.7,49.1,263,51.4,261.6,53.1z"/>
							<path class="st19" d="M261.4,48.1c0-0.3-0.1-0.5-0.1-0.8c-0.3-1.2-1.1-2.2-1.8-3.2c-0.7-1-1.2-2.1-2-3.1
								c-0.8-1-1.5-2-2.3-2.9c-0.9-1-1.8-1.9-2.6-2.9c-0.6-0.8-1.1-1.8-1.9-2.4c-1.7-1.3-2.8,1.1-3.5,2.4c0,0,0,0,0,0.1
								c-0.6,1.1-1.1,2.4-1.5,3.7c-0.3,1.2-0.6,2.4-0.9,3.6c-0.3,1-0.6,1.9-0.7,2.9c-0.2,1.8,1,3.5,1.7,5c1.1,2.2,1.7,4.5,2.6,6.7
								c0.5,1.3,1.3,3.3,2.6,3.6c1.6,0.3,2.8-1.3,3.8-2.5c2.6-3,6-5.4,6.6-9.8C261.5,48.2,261.4,48.1,261.4,48.1z M259,52.9
								c-1,1.4-2.4,2.6-3.6,3.9c-1.1,1.2-2.7,4-4.5,3.3c-1.5-0.6-2.2-3.3-2.6-4.8c-0.5-1.7-1.1-3.3-1.9-4.8
								c-0.9-1.8-2.1-3.5-1.7-5.7c0.1-0.9,0.5-1.7,0.7-2.5c0.3-1,0.4-2,0.7-2.9c0.4-1.7,1-3.1,1.8-4.6c0.4-0.5,0.7-1.1,1.2-1.5
								c1.2-1,2.2,0.4,2.9,1.4c1,1.5,2.3,2.7,3.5,4.1c1.3,1.6,2.6,3.3,3.6,5.1c0.5,0.8,1,1.6,1.4,2.4c0.3,0.6,0.6,1.1,0.7,1.8
								c0,0.2,0,0.4,0,0.6c-0.2,0.6-0.3,1.1-0.5,1.7C260.1,51.3,259.5,52.2,259,52.9z"/>
							<path class="st19" d="M257.7,43.2c-1.4-2-2.9-3.8-4.2-5.9c-0.5-0.8-1.1-1.6-1.9-2.1c-0.5-0.3-1-0.3-1.5-0.2
								c-0.2,0.1-0.5,0.3-0.7,0.5c0,0.1-0.1,0.2-0.1,0.2c0,0,0,0,0,0c-1,1.9-1.8,3.9-2.4,6c-0.3,1.2-0.4,2.5-0.3,3.8
								c0.2,1.3,0.8,2.5,1.4,3.6c0.6,1.2,1.2,2.4,1.8,3.6c0.5,1,1,2,1.7,2.8c1.4,1.5,3.6-0.2,4.7-1.3c1.5-1.6,3.1-3.4,3.4-5.7
								C259.9,46.6,258.7,44.7,257.7,43.2z M256.2,53.5c-0.7,0.8-1.4,1.5-2.3,2c-1.3,0.7-2.2-0.1-3-1.3c-1.1-1.8-1.9-4-2.9-5.9
								c-1.3-2.4-1.2-4.8-0.4-7.3c0.5-1.8,1.3-3.5,2-5.2c0.9-0.3,1.6-0.3,2.4,0.5c0.7,0.7,1.3,1.7,1.9,2.6c1,1.5,2,2.9,3.1,4.3
								c1,1.3,2,2.8,2.2,4.6C259.3,50,257.5,52.1,256.2,53.5z"/>
							<path class="st19" d="M257.4,47.4c0.1-1.9-1.5-3.2-2.4-4.5c-0.6-0.9-1.1-1.9-1.6-2.9c-0.3-0.8-0.5-1.6-1-2.3
								c-0.4-0.7-1.1-0.6-1.6-0.2c-0.3,0.2-0.5,0.5-0.6,1c-0.2,1.3-0.3,2.6-0.7,3.9c-0.2,0.8-0.8,1.8-0.8,2.6c0,1,0.5,1.9,1,2.7
								c0.7,1.1,1.3,2.1,1.8,3.3c0.4,0.8,0.8,1.5,1.5,2c1,0.7,1.9-0.6,2.6-1.7C256.6,50.2,257.3,49,257.4,47.4z M254.9,51.9
								c-0.3,0.3-0.5,0.6-0.9,0.8c-0.6,0.3-1.3-0.7-1.5-1.1c-0.4-0.6-0.7-1.4-1-2.1c-0.4-0.8-0.8-1.4-1.3-2.1
								c-0.5-0.8-1.2-1.8-0.8-2.8c0.2-0.7,0.4-1.4,0.6-2.1c0.2-0.8,0.4-1.6,0.5-2.5c0-0.7,0.1-1.4,0.4-2c1.3-1.2,2,1.4,2.4,2.4
								c0.5,1.1,1.2,2.2,1.9,3.2c0.8,1.2,1.8,2.2,1.9,3.8c0,1-0.5,2-1,2.9C255.6,50.9,255.2,51.4,254.9,51.9z"/>
							<path class="st19" d="M253.1,41.6c-0.1-0.2-0.5-1.3-0.9-0.9c-0.4,0.4-0.4,1.1-0.4,1.8c-0.2,0.7-0.3,1.4-0.4,2.1
								c-0.1,1.2,0.7,2.3,1.3,3.2c0.3,0.4,0.8,2.1,1.4,2.2c0.9,0.1,1.1-1.1,1.4-1.9C256.1,45.8,254,43.6,253.1,41.6z M255.1,47.7
								c0,0.4-0.2,0.9-0.3,1.2c-0.1,0.5-0.4,0.7-0.9,0.5c-0.1-0.2-0.2-0.4-0.3-0.6c-0.3-0.7-0.7-1.3-1.1-2c-0.6-1-0.8-1.8-0.6-3.1
								c0-0.1,0-0.1,0-0.2c0,0,0,0,0.1-0.1c0.3-0.6,0.3-1.2,0.3-1.8c0.1-0.8,0.7,0.8,0.8,1C253.9,44.2,255.3,45.7,255.1,47.7z"/>
							<path class="st19" d="M231.2,8.1C231.2,8.1,231.1,8.2,231.2,8.1c0.3,0.6,0.8,0.9,0.8,1.7c0,0.7-0.8,1.1-1.2,1.3
								c-0.9,0.5-1.9,0.7-2.8,1.3c-1.1,0.7-2,1.6-2.9,2.6c-0.5,0.5-0.9,0.9-1.4,1.2c-0.8,0.6-1.6,0.2-2.3-0.3
								c-2-1.3-4.1-2.3-6.3-3.4c-1.2-0.6-1.8-2.1-2.2-3.4c-0.2-0.6-0.5-1.1-0.8-1.6c-0.5-1-1.5-2.2-0.4-3.2c0.1-0.1,0-0.2-0.1-0.2
								c-1,0.6-0.8,1.6-0.4,2.7c0.4,0.9,0.9,1.9,1.2,2.9c0.3,0.8,0.6,1.5,1,2.2c0.9,1.2,2.2,1.4,3.4,2c1.6,0.8,3.2,1.7,4.7,2.7
								c1.2,0.8,2.2,0.2,3.2-0.7c1.4-1.3,2.7-2.7,4.4-3.4c1-0.4,2.4-0.7,3-1.8C232.9,9.5,232.1,8.6,231.2,8.1z"/>
							<path class="st19" d="M228.6,6.7c-0.1,0-0.2,0.1-0.1,0.2c0.5,0.3,1.4,0.9,0.7,1.5c-0.4,0.4-1,0.5-1.4,0.8
								c-0.7,0.4-1.3,1.1-1.9,1.7c-0.7,0.7-1.4,1.3-2.1,2c-1.2,1-2.4,1-3.7,0.1c-1.5-1-3.6-1.2-4.7-2.8c-0.3-0.4-0.3-1.1-0.4-1.6
								c-0.1-0.5-0.2-0.9-0.4-1.4c-0.2-0.4-0.4-0.8-0.6-1.2c-0.4-0.8,0-1.1,0.6-1.2c0.1,0,0.1-0.2,0-0.2c-0.4,0-1.2-0.1-1.3,0.5
								c-0.1,0.4,0.2,0.8,0.3,1.2c0.5,1,0.8,1.9,1,3c0.4,2.8,3.9,3.2,5.7,4.4c2.5,1.6,4.6-1.4,6.4-3c1-0.8,2.3-1.1,3.2-2.1
								C230.9,7.5,229.2,6.9,228.6,6.7z"/>
							<path class="st19" d="M226.5,5.6c-0.1-0.1-0.2,0-0.1,0.1c1.2,1.7-1,2.6-1.9,3.2c-0.6,0.4-1.1,0.8-1.6,1.2
								c-0.8,0.7-1.5,0.6-2.4,0.1c-0.9-0.5-2.1-0.6-2.9-1.3c-0.5-0.4-0.6-1.3-0.7-1.9c-0.1-0.5-1.1-2.2,0-2.1c0.1,0,0.1-0.1,0-0.1
								c-1.6-0.5-0.6,1.9-0.4,2.7c0.2,0.8,0.3,1.7,1,2.1c0.9,0.6,1.9,0.6,2.8,1.1c0.8,0.4,1.5,0.6,2.3,0.2c0.9-0.5,1.7-1.3,2.6-1.9
								C226.4,8.4,228,6.9,226.5,5.6z"/>
							<path class="st19" d="M224.1,5.5c-0.1,0-0.2,0.2,0,0.2c0.1,0,1.4,0.5,0.8,1c-0.3,0.3-0.7,0.5-1.1,0.6
								c-0.6,0.3-1.2,0.7-1.9,0.8c-0.8,0.1-1.6-0.8-2.2-1.3c-0.3-0.3-1.6-1.1-1-1.8c0.1-0.1,0-0.1-0.1-0.1c-0.8,0.5-0.4,1.1,0.2,1.7
								c1,0.9,1.7,2.3,3.1,2.2c0.5,0,1-0.3,1.5-0.6c0.6-0.4,1.4-0.7,1.9-1.4C225.9,6.1,224.5,5.5,224.1,5.5z"/>
							<path class="st19" d="M195.7,9.6c-0.4-0.9-0.8-1.7-1.3-2.6c-0.4-0.7-0.9-1.6-1.5-2c-0.1-0.1-0.2,0.1-0.1,0.2
								c0.9,0.9,1.5,2.1,2,3.2c0.4,0.7,0.7,1.5,0.9,2.3c0.1,0.3,0.7,2.8-0.5,1.7c-0.9-0.8-1.3-2.1-1.9-3.1c-0.7-1.3-1.3-2.6-1.5-4.1
								c0-0.1-0.1-0.1-0.1,0c-0.1,1.9,1,3.6,1.7,5.3c0.4,1,1.3,3.2,2.5,2.8C197.1,12.9,195.9,10.1,195.7,9.6z"/>
							<path class="st19" d="M198.8,11.4c-0.7-2.8-2.7-4.4-4.4-6.4c-0.1-0.1-0.3,0.1-0.2,0.2c0.6,0.8,1.3,1.4,1.9,2.2
								c0.6,0.8,1,1.6,1.5,2.5c0.6,1.3,0.8,2.2,0.6,3.7c-0.1,1-0.6,3.2-1.8,3.1c-0.9-0.1-1.6-1.4-2.1-2.2c-0.6-1-1.2-2.1-1.8-3.1
								c-1.2-1.9-2.1-4-2.7-6.2c0-0.1-0.1,0-0.1,0.1c0.6,2.9,1.9,5.2,3.2,7.7c0.7,1.4,2.3,5,4.2,4.2c0.7-0.3,1.1-1.3,1.3-2
								C198.8,14.1,199.1,12.6,198.8,11.4z"/>
							<path class="st19" d="M199,8.1c-0.8-1.2-1.6-2.9-3-3.5c-0.1-0.1-0.2,0.1-0.1,0.2c1.1,0.6,1.8,2.1,2.5,3.2
								c0.8,1.3,1.7,2.6,1.8,4.2c0.1,1.6-0.6,3.2-1.2,4.6c-0.5,1.2-1.1,2.6-2.1,3.3c-1.3,1-2.9-1.6-3.6-2.5c-1-1.2-1.8-2.5-2.5-4
								c-1.2-2.6-2-5.4-2.9-8.1c0-0.1-0.1,0-0.1,0c1,3.5,1.8,7,3.5,10.2c0.8,1.5,1.9,2.8,3,3.9c0.8,0.9,1.7,1.6,2.9,0.9
								c1-0.6,1.6-2.2,2.1-3.2c0.7-1.4,1.5-3.2,1.4-4.8C200.7,10.9,199.9,9.5,199,8.1z"/>
							<path class="st19" d="M201.9,8.9c-0.5-1-1.1-2-1.7-3c-0.4-0.7-0.6-1.2-1.3-1.4c-0.2-0.1-0.2,0.2-0.1,0.3
								c0.7,0.5,1,1.3,1.4,2.1c0.4,0.8,0.8,1.6,1.2,2.4c1,2,1.6,3.8,0.9,6.1c-0.9,3-2.3,7.6-5.5,7.7c-3.5,0.2-5.3-3.8-6.8-6.8
								c-0.8-1.7-1.8-3.3-2.5-5c-0.7-1.7-1.2-3.5-1.6-5.3c0-0.1-0.1,0-0.1,0c0.4,2.1,0.9,4.1,1.7,6c0.8,2,1.8,3.9,2.8,5.8
								c1.5,3,4,6.6,7.5,5.6c1.5-0.4,2.5-1.7,3.2-3.2c0.9-1.8,1.7-3.9,2.1-5.9C203.5,12.3,202.7,10.6,201.9,8.9z"/>
							<path class="st19" d="M205.1,9.5c-0.6-1.7-1.2-4.1-2.8-5.1c-0.1-0.1-0.2,0.1-0.1,0.2c1,1.5,1.6,3,2.3,4.8
								c0.8,2.1,1.9,4.5,1.1,6.8c-0.8,2.1-2.2,4-3.4,5.8c-0.5,0.9-1.1,1.7-1.7,2.5c-0.8,1-1.8,1.3-3,1.1c-1.9-0.2-3.8-0.8-5.5-1.8
								c-1.8-1.1-2.7-3-3.6-5c-0.9-2.1-2-4.1-2.9-6.2c-0.9-2.1-1.5-4.3-2.2-6.5c0-0.1-0.2-0.1-0.2,0.1c1.2,5.1,3.4,9.6,5.5,14.3
								c0.9,2,2.1,3.3,3.9,4.2c1.8,0.9,4.1,1.7,6.1,1.5c1.9-0.2,3-2.3,4-3.9c1.3-2,2.9-4.2,3.7-6.5C206.9,13.8,205.8,11.5,205.1,9.5
								z"/>
							<path class="st19" d="M209.3,12.6c-0.5-2.4-1.6-4.6-2.9-6.5c-0.1-0.2-0.2-0.4-0.4-0.6c0,0-0.1-0.1-0.1-0.1c0,0,0,0,0,0
								c-0.2-0.3-0.5-0.5-0.8-0.7c0,0-0.1,0-0.1,0.1c0.2,0.2,0.2,0.4,0.4,0.6c0.3,0.3,0.6,0.5,0.8,0.9c0.1,0.1,0.1,0.3,0.2,0.4
								c0.9,1.7,1.7,3.6,2.2,5.5c0.4,1.3,0.4,2.7-0.1,3.9c-0.4,1.2-1.2,2.2-1.9,3.2c-1.2,1.8-2.3,3.7-3.6,5.6
								c-0.7,1.1-1.5,2.1-2.6,2.7c-1.1,0.7-2.5,0.5-3.7,0.3c-2.1-0.4-4.3-1-6-2.5c-1.6-1.4-2.7-3.4-3.7-5.4
								c-1.1-2.1-2.1-4.2-3.2-6.2c-1.2-2.3-2.1-4.6-2.9-7c0-0.1-0.1-0.1-0.2,0c0,0,0,0,0,0c-0.1,0.1,0.1,0.3,0.2,0.2
								c-0.3,0.3,0.8,2.8,1,3.3c0.4,1.2,0.9,2.3,1.5,3.4c1.2,2.5,2.6,5,3.8,7.5c1,2,2.3,3.9,4,5.1c2,1.4,4.5,2.1,6.8,2.3
								c2.2,0.2,3.7-1,5-2.8c1.6-2.1,2.9-4.5,4.4-6.7C208.7,17.1,209.8,15.2,209.3,12.6z"/>
							<path class="st19" d="M170.7,20.6c-0.5-0.6-1.1-1.2-1.6-1.9c-0.4-0.5-1.1-0.6-1.6-0.8c-0.1,0-0.2,0.1-0.1,0.2
								c0.4,0.3,0.8,0.4,1.2,0.7c0.4,0.3,0.7,0.9,1,1.3c0.3,0.4,0.7,0.8,1,1.2c0.6,0.8-0.6,0.7-0.7,0.7c-0.2,0-0.5-0.1-0.7-0.2
								c-1.5-0.6-3.4-1.5-5-0.8c-0.1,0-0.1,0.2,0,0.2c1.5-0.2,2.9,0.5,4.2,1c0.8,0.3,1.6,0.8,2.4,0.3C171.6,22,171,21,170.7,20.6z"
								/>
							<path class="st19" d="M173.1,21c-1-1.5-2.3-3.8-4-4.5c-0.1,0-0.2,0.1-0.1,0.2c1.4,1,2.4,2.9,3.4,4.4c0.6,0.9,1.3,1.8,1.2,3.1
								c0,0.6-0.3,1.3-0.9,1.5c-0.5,0.3-1.2-0.2-1.6-0.4c-2.7-1.5-5.8-3.5-8.9-2.7c-0.1,0-0.1,0.2,0,0.2c2.4-0.1,4.8,0.8,6.9,1.9
								c1.1,0.6,3.2,2.6,4.4,1.2C174.9,24.4,174.1,22.5,173.1,21z"/>
							<path class="st19" d="M175.7,21.8c-1.1-2.7-3-4.8-4.9-6.8c-0.1-0.1-0.3,0.1-0.2,0.2c1.6,1.7,2.9,3.7,4.1,5.9
								c0.7,1.2,1.3,2.8,1.6,4.2c0.2,1.2-1.7,2.9-2.4,3.5c-1,0.9-2.7-0.6-3.7-1.1c-1.1-0.6-2.3-1.1-3.4-1.6c-1.9-0.9-4-2-6.1-1.8
								c-0.1,0-0.1,0.2,0,0.2c0.6,0.1,1.2,0.1,1.8,0.2c0.8,0.2,1.5,0.6,2.3,0.9c1.4,0.6,2.7,1.3,4.1,2c1.3,0.6,2.4,1.6,3.7,2.2
								c0.9,0.4,1.7-0.4,2.4-1.1c0.8-0.8,1.8-1.8,2-3C177.1,24.5,176.2,22.9,175.7,21.8z"/>
							<path class="st19" d="M179.1,22.6c-0.9-1.8-2-3.3-2.9-5.1c-0.9-1.8-2.2-2.8-3.6-4c-0.3-0.2-0.6,0.2-0.3,0.4
								c1.3,1.1,2.4,2.1,3.3,3.7c0.8,1.4,1.6,2.8,2.5,4.2c1,1.7,1.6,3.4,0.8,5.4c-0.6,1.6-1.5,3.2-2.5,4.5c-0.7,0.9-1.5,1.4-2.5,0.8
								c-0.7-0.4-1.3-1-2-1.5c-1.2-1-2.6-1.5-4-2c-1.4-0.6-2.7-1.3-4.1-1.8c-1.4-0.6-2.8-0.8-4.2-1c0,0,0,0,0,0
								c1.7,0.4,3.4,0.8,5,1.7c1.6,0.9,3.2,1.6,4.9,2.4c1.7,0.7,2.9,2.1,4.4,3.1c1.2,0.7,2.3-0.3,3.1-1.3c1-1.4,1.9-3.1,2.5-4.8
								C180,25.6,179.8,24,179.1,22.6z"/>
							<path class="st19" d="M181.8,22.6c-0.3-1.2-1.2-2.6-2-3.4c-0.5-0.6-1-1.2-1.4-1.9c-0.4-0.7-0.9-1.4-1.4-2.1
								c-0.9-1.2-1.6-2.5-2.8-3.5c-0.1-0.1-0.3,0.1-0.1,0.2c0.9,1,1.7,2.1,2.4,3.3c0.7,1.2,1.4,2.4,2.1,3.5c0.3,0.5,0.8,0.9,1.2,1.3
								c0.4,0.5,0.6,1.1,0.9,1.6c0.7,1.3,1,2.5,1,3.9c-0.5,3.1-1.9,5.6-3.7,7.9c-0.9,1.2-1.8,2.8-3.4,1.9c-1.1-0.6-2.1-1.5-3.2-2.2
								c-1.1-0.6-2.1-1.3-3.2-1.9c-1.2-0.6-2.4-1.2-3.6-1.9c-1.1-0.6-2.4-0.9-3.7-1.3c-1-0.3-2.3-0.8-3.4-0.4c0,0,0,0.1,0,0.1
								c1.4-0.1,3,0.6,4.3,1c1.5,0.5,2.7,1.2,4.1,2c1.3,0.8,2.7,1.3,4,2.1c1.2,0.8,2.5,1.6,3.7,2.5c0.8,0.6,1.5,1.1,2.5,0.8
								c1.1-0.3,1.9-1.7,2.6-2.7c1.8-2.4,3.2-5,3.6-8.1c0,0,0-0.1,0-0.1C182.3,24.5,182,23.5,181.8,22.6z"/>
							<path class="st19" d="M184.8,25.2c-0.1-0.4-0.2-0.8-0.3-1.1c-0.1-0.5-0.4-0.9-0.6-1.3c-0.3-0.8-0.6-1.6-1-2.4
								c-0.9-1.8-1.8-3.8-2.9-5.4c-0.6-0.8-1.2-1.5-1.8-2.3c-0.7-0.9-1.4-1.8-2.3-2.5c-0.1-0.1-0.2,0.1-0.1,0.1
								c1.3,1.2,2.3,2.9,3.4,4.4c1.1,1.5,1.8,3.2,2.7,4.9c0.8,1.5,1.4,3,2,4.5c0.3,0.7,0.4,1.5,0.7,2.2c0.1,0.4,0.1,0.8,0,1.1
								c-0.2,0.4-0.5,0.9-0.7,1.3c-0.1,0.2-0.3,0.4-0.3,0.6c0,0.1,0,0.1,0,0.2c-0.3,0.7-0.5,1.3-0.8,2c-0.8,1.7-2,3.1-3,4.6
								c-0.9,1.5-1.9,3.6-3.6,4c-0.9,0.2-1.7-0.9-2.2-1.5c-0.4-0.6-0.9-1.1-1.4-1.6c-2.3-2.3-4.7-4.4-7.6-5.6
								c-1.5-0.6-3.1-0.9-4.6-1.2c-1.5-0.4-2.9-1-4.4-0.8c-0.1,0,0,0.1,0,0.1c1.7-0.1,3.4,0.8,5,1.3c1.8,0.5,3.6,0.9,5.3,1.9
								c1.6,0.9,3,1.9,4.4,3.2c1.2,1.2,2.4,2.3,3.5,3.6c0.8,0.9,1.7,1.6,2.8,1.1c1.3-0.6,2.2-2.2,3-3.4c0.9-1.5,2.1-2.8,3-4.4
								c0.6-1.1,1-2.4,1.5-3.5c0.4-0.5,0.8-1.1,0.9-1.7C185.4,26.6,185.1,26,184.8,25.2z"/>
							<path class="st19" d="M162.4,34.7c-0.7-0.9-2.5-1-3.5-1.3c-2.6-0.8-6-1.7-8.4,0.2c0,0,0,0.1,0,0.1c-0.2,0.1-0.3,0.2-0.5,0.3
								c-0.5,0.2-1,0.5-1.1,1c0,0.1,0,0.2,0.1,0.2c0.6,0.7,2,0.5,2.8,0.6c1.3,0.2,2.7,0.4,4,0.8c0.7,0.2,1.3,0.5,1.9,0.8
								c0.4,0.2,1,0.6,1.5,0.5c0.8-0.2,1.5-0.7,1.7-1.6c0.2-0.9-0.7-1.6-1.3-1.9c-1-0.6-2.2-0.6-3.3-0.9c-1-0.2-2.1-0.5-3.2-0.6
								c0.4,0,0.7,0,1.1,0c1.2,0.1,2.4,0.2,3.6,0.6c1.2,0.4,2.3,0.7,3.5,1.1c2.3,0.9-0.5,3.8-1.5,4.4c-1.5,0.8-2.6-0.4-3.8-1.2
								c-0.9-0.6-1.7-0.9-2.7-1.1c-2.3-0.6-4.6-1-7-0.5c-0.1,0-0.1,0.1,0,0.1c1.6-0.1,3.1,0.1,4.7,0.4c1.5,0.3,3.1,0.6,4.5,1.4
								c1.2,0.7,2,1.7,3.5,1.6c1.3-0.1,2.4-1.2,3.1-2.3C162.7,36.7,163.1,35.5,162.4,34.7z M151.2,34.1c1.4-0.5,2.8,0,4.1,0.4
								c0.7,0.2,1.5,0.3,2.2,0.7c0.1,0.1,0.2,0.1,0.3,0.2c0.4,0.2,0.3,0.3-0.3,0.3c-0.3-0.1-0.6-0.2-0.9-0.3
								c-1.1-0.5-2.3-0.6-3.5-0.9c-0.4-0.1-0.8-0.1-1.3-0.1c-0.2,0-0.4,0-0.6,0C151.1,34.3,151.1,34.2,151.2,34.1z M155.4,33.8
								c0.9,0.2,1.8,0.4,2.7,0.6c1,0.2,3.6,1.2,2.1,2.7c-1,1-2.4-0.2-3.4-0.6c-0.9-0.4-1.8-0.6-2.7-0.7c-0.9-0.2-1.8-0.4-2.8-0.5
								c-0.5-0.1-1-0.1-1.5-0.1c-0.2-0.3-0.1-0.5,0.1-0.6c0.3-0.2,0.5-0.3,0.8-0.5c0,0.1-0.1,0.2-0.1,0.3c0,0.4,0.5,0.5,0.8,0.5
								c1,0,1.9,0.1,3,0.4c0.7,0.2,1.4,0.3,2.1,0.6c0.5,0.2,0.8,0.3,1.3,0.4c0.2,0,0.8-0.1,0.6-0.5c-0.1-0.4-0.9-0.7-1.2-0.8
								c-1-0.5-2.2-0.7-3.3-1c-0.8-0.2-1.7-0.3-2.5-0.1c0.1-0.1,0.2-0.2,0.2-0.2c0.2,0,0.3-0.1,0.5-0.1
								C153.3,33.2,154.4,33.6,155.4,33.8z"/>
							<path class="st19" d="M173.2,43.6c-0.6-1-1.4-1.8-2.2-2.7c-0.8-1-1.7-2-2.6-2.8c-0.6-0.5-1.4-1.1-2.2-1
								c-0.8,0.1-1.3,0.5-1.8,1.2c-1.1,0.8-2.2,1.8-2.9,3.2c-1.2,2.4,0.4,4.9,1.3,7c0.9,2.1,1,4.7,2.5,6.4c1.3,1.4,2.9-0.1,3.7-1.3
								c0.7-0.9,1.3-1.9,2-2.8c0.9-1,1.9-1.6,2.9-2.4C175.6,47,174,44.8,173.2,43.6z M172.6,49c-1.5,1-2.4,2.5-3.5,3.9
								c-1.1,1.5-2.7,2.8-4,0.7c-0.5-0.9-0.8-2-1-3c-0.3-1-0.6-2-1.1-3c-0.9-2.1-2-4.2-0.8-6.5c0.5-0.9,1.2-1.7,2-2.3c0,0,0,0,0,0
								c0,0,0,0,0,0c0.4-0.3,0.8-0.6,1.2-0.9c0.4-0.2,0.8-0.3,1.3-0.2c0.8,0.2,1.6,1.1,2.2,1.7c1.3,1.4,2.7,2.9,3.8,4.5
								c0.5,0.7,1,1.5,1.4,2.4C174.7,47.6,173.4,48.4,172.6,49z"/>
							<path class="st19" d="M171.1,42.9c-1.2-1.2-1.9-3.1-3.3-4c-1.4-0.9-2.7,0.1-3.6,1.3c-0.1,0.1-0.3,0.3-0.4,0.4
								c-0.6,0.5-0.9,1-1.1,1.8c-0.1,0.7,0.2,1.5,0.4,2.2c0.4,1.1,0.9,2.1,1.2,3.2c0.5,1.8,0.5,3.8,1.8,5.3c1.1,1.3,2.5-0.8,3.2-1.6
								c0.7-0.9,1.5-1.6,2.2-2.4c0.6-0.6,1.2-1.2,1.5-2C173.6,45.4,172,43.9,171.1,42.9z M171.9,47.9c-0.8,1.2-2,2-2.9,3.1
								c-0.4,0.5-0.8,1-1.2,1.5c-0.4,0.5-0.9,0.9-1.6,0.3c-0.4-0.3-0.6-1-0.8-1.5c-0.5-1.4-0.6-2.9-1-4.3c-0.5-1.4-1.3-2.7-1.4-4.3
								c-0.1-0.8,0.3-1.5,0.9-2.1c0,0.1,0.1,0.1,0.1,0c1.3-1.4,2.8-2.3,4.3-0.8c0.9,0.9,1.4,2.2,2.2,3.1
								C171.7,44.4,173.3,45.9,171.9,47.9z"/>
							<path class="st19" d="M169.6,43.3c-0.8-1-1.5-2.5-2.6-2.9c-0.3-0.1-0.5,0-0.7,0.1c0,0,0,0,0,0c-0.7,0.6-1.8,1.5-1.9,2.6
								c-0.1,0.5,0.2,1,0.4,1.5c0.3,0.6,0.5,1.3,0.7,2c0.4,1.1,0.6,2.5,1.3,3.4c0.7,0.8,1.6,0.3,2.2-0.3c0.4-0.5,0.7-1.1,1.1-1.6
								c0.3-0.4,0.8-0.9,0.9-1.4C171.2,45.3,170.3,44.3,169.6,43.3z M169,48.9c-0.3,0.4-0.5,0.7-1,1c-0.9,0.5-1.3-0.9-1.5-1.5
								c-0.2-0.9-0.5-1.7-0.8-2.5c-0.3-0.7-0.6-1.4-0.9-2.2c-0.3-0.6,0.1-1.2,0.5-1.8c0,0.1-0.1,0.1-0.1,0.2
								c-0.1,0.1,0.1,0.4,0.2,0.2c0.4-0.4,1.1-1.6,1.7-1.4c0.8,0.3,1.4,1.7,2,2.4c0.7,0.9,1.4,1.6,1.6,2.8
								C170.7,47,169.4,48.2,169,48.9z"/>
							<path class="st19" d="M168.6,44.1c-0.6-0.7-1.6-2.9-2.3-1.5c-0.7,0.9,0.4,2.1,0.8,3.2c0.2,0.5,0.8,3.5,1.8,2.1
								C170,46.6,169.6,45.2,168.6,44.1z M168.2,47.5c-0.3-0.8-0.6-1.7-1-2.5c-0.3-0.7-0.8-1.2-0.8-1.8c0,0,0,0,0,0
								c0.7-0.9,1.3,0.7,1.7,1.1c0.4,0.5,0.9,1,1,1.6c0,0.4,0,0.7-0.1,1C168.9,47.3,168.6,47.5,168.2,47.5z"/>
							<path class="st19" d="M180.3,62.3c-0.5-1-0.9-2-1.2-3.1c-0.3-1.2-0.9-2.4-1.2-3.6c-0.5-1.7-0.3-3.5-1.9-4.3
								c-0.5-0.2-0.9-0.1-1.3,0.3c-0.4,0.3-0.7,0.7-1.1,1.1c-0.8,0.8-1.6,1.8-2.4,2.8c-1.2,1.5-2.6,2.8-3.2,4.7
								c-0.7,2,0.3,3.6,1,5.3c0.4,1,0.6,2,0.9,3c0.4,1.2,0.9,2.2,1.3,3.3c0.6,1.6,0.6,3.4,1.5,4.8c0.8,1.3,2.1,1.3,3.1,0.4
								c1.3-1.2,1.9-3.5,2.8-5.1c0.9-1.7,1.9-3.3,2.3-5.2C181.5,65.4,180.8,63.5,180.3,62.3z M178.6,71.1c-0.9,1.5-1.5,3.2-2.3,4.7
								c-0.5,0.8-1.2,1.6-2.1,1.4c-0.9-0.1-1.4-1.4-1.7-2.2c-0.5-1.5-0.7-2.9-1.4-4.3c-0.8-1.7-1.2-3.5-1.8-5.3
								c-0.6-1.9-1.6-3.5-0.7-5.5c0.6-1.5,1.9-2.8,2.9-4.1c0.5-0.7,1-1.4,1.5-2.1c0.5-0.4,0.9-0.7,1.3-1.1c0.2-0.2,0.3-0.4,0.5-0.5
								c0.7-0.7,1.5,0.1,1.8,0.7c0.4,0.6,0.3,1.7,0.5,2.5c0.2,0.9,0.5,1.7,0.8,2.6c0.5,1.4,0.8,2.8,1.4,4.1c0.4,0.8,0.7,1.5,0.9,2.3
								c0.1,0.3,0.1,0.6,0.2,0.9c0.1,0.6,0,1.1,0,1.7c-0.1,0.5-0.3,1.1-0.5,1.6C179.6,69.3,179.1,70.2,178.6,71.1z"/>
							<path class="st19" d="M178,60.9c-1-1.9-0.8-4.4-2-6.2c-0.4-0.6-1.1-0.8-1.8-0.7c-0.8,0.2-1.3,1-1.6,1.7l0,0
								c-1.1,1.2-2.1,2.5-2.8,4c-1,2.1,0.4,4.4,1.2,6.3c0.5,1.2,0.8,2.6,1.1,3.9c0.2,1.1,0.4,2.2,0.9,3.2c0.9,1.9,2.6,1.4,3.6,0
								c0.6-0.8,0.9-2.1,1.2-3c0.4-1.2,1.1-2.3,1.5-3.5C180,64.4,178.9,62.7,178,60.9z M178.4,67.4c-0.4,0.8-0.8,1.6-1.1,2.5
								c-0.3,0.8-0.5,1.6-0.9,2.4c-0.6,1.4-2,2.2-3,0.8c-0.5-0.7-0.7-1.8-0.9-2.6c-0.4-2-0.9-3.8-1.7-5.6c-0.3-0.8-0.7-1.7-0.9-2.6
								c-0.3-1.2,0.1-2.2,0.6-3.2c0.8-1.7,2.1-3.1,3.3-4.5c0.4-0.2,0.8-0.3,1.2-0.1c0.8,0.3,1.2,1.6,1.4,2.4c0.4,1.6,0.6,3,1.3,4.4
								c0.4,0.8,0.9,1.6,1.1,2.6C179.2,65.2,178.8,66.3,178.4,67.4z"/>
							<path class="st19" d="M176.1,58.9c-0.2-1.1-0.7-2.3-1.8-2.5c-0.9-0.2-1.6,0.9-2,1.7c-0.6,0.7-1.1,1.5-1.3,2.3
								c-0.2,0.8,0,1.3,0.3,2c0.4,1,0.7,1.9,1,2.9c0.3,1.3,1.5,7,3.5,4.1c0.8-1.2,1-3,1-4.5C176.7,62.9,176.4,60.8,176.1,58.9z
								 M175.5,68.9c-0.9,2-1.8,0.1-2.2-0.9c-0.4-1.2-0.7-2.5-1-3.8c-0.3-1.3-1.4-2.5-0.9-3.9c0.4-1.1,1.3-1.9,1.9-2.8
								c0.4-0.4,0.9-0.6,1.5-0.1c0.8,0.7,0.9,2.4,1.1,3.4C176.3,63.4,176.7,66.4,175.5,68.9z"/>
							<path class="st19" d="M175.1,64.6c0-1.1-0.1-2.2-0.1-3.3c0-1.4-1.3-2-1.9-0.8c-0.3,0.3-0.5,0.6-0.5,1.1
								c-0.1,0.9,0.5,2,0.7,2.8c0.1,0.5,0.7,3,1.5,1.9C175.2,65.8,175.1,65.1,175.1,64.6z M174.6,65.8c-0.2,0.6-0.7-0.8-0.7-0.9
								c-0.2-0.5-0.2-1.1-0.4-1.6c-0.1-0.4-0.3-0.8-0.4-1.2c-0.1-0.5,0-0.9,0.2-1.2c0,0,0.1,0,0.1-0.1c0.2-0.4,0.6-0.4,1.1,0
								c0.1,0.2,0.1,0.5,0.1,0.7c0,0.4,0.1,0.8,0.1,1.3C174.7,63.7,174.8,65,174.6,65.8z"/>
							<path class="st19" d="M193.7,79.9c0-0.3,0-0.5-0.1-0.8c0,0,0,0,0,0c0-0.1,0-0.2-0.1-0.2c-0.2-0.5-0.5-0.9-0.8-1.3
								c-0.7-0.8-1.8-1.1-2.6-1.8c-0.9-0.7-1.5-1.6-2.3-2.4c-0.6-0.7-1.5-1.2-2.2-1.8c-0.6-0.5-1.2-0.8-1.9-0.8
								c-1.5,0-1.9,2.1-2.2,3.5c-0.7,1.6-1.4,3.1-2.2,4.7c-0.9,1.7-1.8,3.6-1.4,5.6c0.2,0.9,0.7,1.7,1.2,2.4c0.7,1,1.4,2,2.2,2.9
								c1.4,1.8,2.9,3.4,4.4,5.1c1.1,1.2,2.6,3.1,4.3,2.8c1.4-0.3,1.9-2.8,2.2-4c1-3.8,1.3-7.8,1.3-11.7
								C193.6,81.4,193.7,80.7,193.7,79.9z M193,85.3c-0.2,2.1-0.5,4.2-0.8,6.3c-0.2,1.1-0.4,2.1-0.7,3.1c-0.3,1-0.7,2.4-1.8,2.7
								c-0.9,0.2-2-1.1-2.6-1.7c-0.7-0.6-1.3-1.3-1.9-2c-1.3-1.3-2.5-2.8-3.6-4.2c-1.1-1.5-2.5-3.1-3.1-4.9c-0.6-2,1-4.5,1.8-6.2
								c0.8-1.7,1.5-3.5,2-5.3c0.5-1.1,1.1-1.9,2.4-1.3c0.6,0.3,1.2,0.9,1.7,1.3c0.7,0.5,1.2,1,1.8,1.7c0.5,0.6,1,1.2,1.6,1.7
								c0.6,0.5,1.2,0.8,1.8,1.2c0.8,0.5,1.2,1.2,1.4,2.1C193,81.6,193.1,83.4,193,85.3z"/>
							<path class="st19" d="M191.4,81.8c0-0.5,0-1-0.1-1.5c-0.2-0.7-0.7-1.2-1.1-1.7c-0.5-0.6-0.9-1.3-1.4-1.8
								c-0.6-0.6-1.2-1.2-1.8-1.8c-1-1-1.8-1.5-3.1-0.9c-0.6,0.2-1,0.6-1.2,1.1c0,0-0.1,0-0.1,0c-0.5,1.8-1,3.6-1.9,5.2
								c-0.7,1.2-1,2.3-0.6,3.7c0.4,1.4,1.4,2.6,2.4,3.6c1.2,1.3,2.3,2.5,3.5,3.7c0.9,0.9,2,2,3.2,1.9c1.1-0.1,1.4-1.6,1.6-2.6
								c0.3-1.8,0.5-3.7,0.7-5.6C191.6,84.1,191.6,82.9,191.4,81.8z M190.6,88.8c-0.1,1.3-0.3,4.1-1.9,3.9c-1.2-0.2-2.5-1.8-3.3-2.7
								c-1.7-1.9-4.1-3.8-4.9-6.4c-0.5-1.6,0.8-3.1,1.3-4.5c0.2-0.7,0.4-1.4,0.6-2.1c0.5-1,0.5-1.9,1.7-2.4c1.4-0.6,2.3,0.6,3.2,1.5
								c0.9,0.9,1.7,1.8,2.4,2.9c0.3,0.4,0.6,0.7,0.8,1.1c0,0,0,0.1,0.1,0.1c0.1,1.3,0.4,2.5,0.4,3.8
								C191,85.6,190.7,87.2,190.6,88.8z"/>
							<path class="st19" d="M187.9,78c-0.8-0.9-2-1.9-3.2-1.7c-1.2,0.2-1.6,2.4-1.8,3.5c0,0,0,0.1,0,0.1c-0.3,0.9-0.5,1.7-0.5,2.6
								c0,1.6,1.3,2.8,2.2,3.8c1,1.1,1.9,3,3.4,3.1c0.9,0.1,1.4-1,1.6-1.8c0.2-0.8,0.2-1.7,0.2-2.6c0.1-0.9,0.3-1.9,0.3-2.8
								C190,80.5,188.9,79.1,187.9,78z M189.5,83.3c-0.2,1.3-0.2,2.5-0.3,3.8c-0.1,0.5-0.2,0.9-0.4,1.3c-0.5,0.9-1.4,0.3-2-0.2
								c-0.8-0.8-1.5-1.9-2.3-2.7c-1.1-1.2-1.8-2.2-1.5-4c0.2-1.3,0.7-2.4,1-3.7c0.3-0.6,0.8-1,1.4-0.9c1.1,0.2,2.2,1.3,2.9,2.3
								C189.1,80.3,189.7,81.7,189.5,83.3z"/>
							<path class="st19" d="M188.5,82.1c0-1.2-0.7-2.3-1.3-3.2c-1.3-1.7-2.6-0.2-2.9,1.5c0,0.1,0,0.1,0,0.1c-0.2,0.5-0.3,1-0.4,1.6
								c-0.2,1.3,0,1.8,0.8,2.8c0.6,0.8,1.2,1.8,2.2,2.2c0.7,0.2,1.1-0.7,1.3-1.3C188.6,84.7,188.6,83.3,188.5,82.1z M187.9,85.2
								c0,0.3-0.1,0.6-0.2,0.9c-0.4,1-1.2,0.1-1.5-0.2c-0.5-0.6-1-1.2-1.5-1.9c-0.8-1-0.2-3,0.3-4.3c0.1-0.2,0.2-0.4,0.3-0.5
								c0.7-1.1,1.7,0.4,2,1C188.3,81.7,188,83.5,187.9,85.2z"/>
							<path class="st19" d="M186.7,82.3c-0.1-0.3,0-0.6-0.2-0.9c-0.2-0.3-0.4-0.5-0.7-0.6c0,0,0,0,0,0c0-0.1-0.2-0.1-0.2,0
								c-0.2,0.7-0.7,1.7-0.3,2.4c0.2,0.4,0.6,1.3,1.2,1C187,83.9,186.7,82.8,186.7,82.3z M186.1,83.6c-0.2-0.3-0.4-0.6-0.5-0.9
								c-0.1-0.3,0-0.7,0.1-1c0.1,0.1,0.2,0.1,0.3-0.1c0,0,0-0.1,0-0.1c0.2,0.2,0.3,0.5,0.3,0.9c0,0.1,0.1,0.6,0.1,0.7
								C186.3,83.1,186.4,83.9,186.1,83.6z"/>
							<path class="st19" d="M213.3,99c-0.1-1.3-0.4-2.5-0.5-3.8c-0.1-2.9-0.5-5.9-0.5-8.8c0-2.2-0.7-3.9-2.8-4.3
								c-1.3-0.2-2.6-0.5-3.9-0.7c-1-0.2-2-0.1-3.1-0.2c-0.4-0.2-0.8-0.4-1.2-0.5c-0.6-0.2-1.2-0.1-1.8,0.2
								c-1.3,0.6-1.7,2.4-1.9,3.8c-0.6,4.4-1.2,8.7-1.4,13.1c-0.2,4.1,3.5,4.6,6.3,4.8c2,0.1,4,0.2,5.9,0.4c1.5,0.1,2.6-0.1,3.7-1.1
								c0.1,0,0.2,0,0.2-0.1C213,100.9,213.4,100.1,213.3,99z M207.9,102.3c-1.6-0.1-3.1-0.2-4.7-0.3c-1.5-0.1-3.1-0.2-4.6-0.8
								c-1.9-0.8-1.9-2.8-1.7-4.8c0.2-1.8,0.2-3.7,0.5-5.5c0.3-1.8,0.6-3.6,0.8-5.4c0.1-1.8,0.4-4,2.3-4.4c1.3-0.3,2.3,1,3.6,0.5
								c0,0,0,0,0,0c1.2,0.1,2.4,0.4,3.5,0.7c1.1,0.3,2.4,0,3.3,0.8c1,0.8,0.9,2.3,0.9,3.6c0,2.5,0.1,5,0.4,7.5
								c0.1,1.2,0.1,2.4,0.3,3.5c0.1,0.5,0.2,1,0.2,1.6c0.1,0.6-0.3,1.2-0.5,1.7c-0.5,0.5-1,0.9-1.7,1.2
								C209.7,102.6,208.7,102.4,207.9,102.3z"/>
							<path class="st19" d="M211.3,89.8c-0.1-2.3,0-4.6-2-6c-1.8-1.2-4.2-0.9-6.1-0.9c-0.9,0-2-0.2-2.8,0.5
								c-0.2,0.1-0.3,0.4-0.4,0.7c0,0,0,0.1,0,0.1c0,0,0,0,0,0c-0.3,1.5-0.5,3.1-0.8,4.6c-0.2,1.5-0.5,3-0.5,4.5
								c0,1.3-0.2,2.5-0.3,3.8c0,1,0.2,1.8,1,2.3c0.8,0.5,1.7,0.7,2.6,0.8c1.3,0.2,2.5,0.5,3.9,0.5c1.3,0,2.7,0,4-0.2
								c0.8-0.1,1.2-0.5,1.5-1.2c0.1,0,0.1-0.1,0.1-0.2c0,0,0-0.1,0-0.1c0-0.1,0.1-0.2,0.1-0.3c0-0.1,0-0.2,0-0.2
								C212,95.6,211.4,92.8,211.3,89.8z M210.3,99.8c-0.5,0.2-1.1,0.2-1.6,0.3c-1,0.1-2.1,0-3.2,0.1c-1.2,0-2.3-0.2-3.4-0.5
								c-0.9-0.2-1.8-0.2-2.6-0.8c-1-0.8-0.5-2.3-0.4-3.4c0.1-1.2,0-2.3,0.1-3.5c0.1-2,0.4-3.9,0.6-5.8c0.2-0.8,0.3-2.2,0.9-2.4
								c1-0.4,2.3-0.2,3.3-0.2c1.7,0,3.7,0,5.2,1.2c1.7,1.3,1.3,4.4,1.4,6.3c0.1,1.3,0.3,2.6,0.4,3.9c0.1,1.4,0,2.8-0.1,4.1
								c0,0,0,0,0,0C210.9,99.4,210.7,99.6,210.3,99.8z"/>
							<path class="st19" d="M210.3,91.1c0.1-1.2,0.3-2.4,0.1-3.6c-0.5-2.5-2.5-3.1-4.4-3.3c-1.6-0.2-4-0.6-4.9,1.4
								c-0.4,0.9-0.1,2.1-0.2,3c0,0,0,0.1,0,0.1c-0.2,1.8-0.2,3.7-0.3,5.6c-0.1,2,0.4,4.1,2.2,4.6c1,0.3,2.3-0.1,3.4,0.1
								c1,0.2,1.9,0.5,2.9,0c1.4-0.7,1.6-2.5,1.5-4.1C210.4,93.6,210.2,92.4,210.3,91.1z M208,98.7c-0.8,0.1-1.7-0.3-2.5-0.4
								c-0.9-0.1-1.8,0.2-2.8,0c-2.3-0.4-1.8-4.1-1.7-5.8c0-1.2,0-2.4,0.1-3.6c0.1-0.7,0.1-1.4,0.2-2c0.2-1.3,0.6-2,1.9-2.1
								c1-0.1,2,0,3,0.1c0.9,0.1,1.8,0.3,2.6,0.9c1,0.8,1.2,2.3,1.1,3.5c0,0.8-0.2,1.7-0.2,2.5c0,1,0.1,1.9,0.2,2.9
								C210,96.4,209.9,98.5,208,98.7z"/>
							<path class="st19" d="M208.5,92.1c-0.1-0.9-0.2-1.9-0.2-2.8c0-0.8,0-1.6-0.3-2.3c-0.6-1.1-1.9-1.3-2.9-1.3
								c-1.4,0-1.8,1.3-2,2.7c-0.1,1,0,2.1,0.1,3.1c0,0.2,0,0.4,0,0.7c0,0.6-0.1,1.1-0.2,1.7c-0.2,1.3,0.4,2.2,1.4,2.7
								c1,0.5,2.2,0.5,3.2-0.1C208.9,95.7,208.7,93.4,208.5,92.1z M207.3,96.1c-0.9,0.7-2.4,0.3-3.2-0.3c-0.4-0.3-0.5-0.6-0.6-1
								c0-0.4,0-0.7,0-1.1c0.1-0.4,0.1-0.9,0.1-1.3c0-1.2-0.1-2.4-0.1-3.6c0.1-1.2,0.4-2.4,1.4-2.5c1-0.2,2.4,0.1,2.8,1.2
								c0.3,0.6,0.2,1.5,0.2,2.2c0,0.7,0.1,1.4,0.2,2.1C208.2,93.1,208.4,95.1,207.3,96.1z"/>
							<path class="st19" d="M207.4,92.6c-0.1-0.6-0.1-1.2-0.1-1.9c0-0.6-0.2-1.2-0.3-1.9c-0.1-0.5-0.1-1.5-0.6-1.7
								c-0.6-0.3-1.2,0-1.7,0.5c-0.4,0.4-0.3,1-0.1,1.5c-0.1,0.8-0.1,1.6-0.2,2.4c0,0.5-0.3,2,0.2,2.4c0.6,0.5,1.5,0.9,2.2,0.5
								C207.5,94.2,207.5,93.2,207.4,92.6z M207,93.6c-0.2,0.8-1.2,0.4-1.7,0.2c-0.7-0.3-0.5-1.3-0.5-2c0-0.6,0-1.3,0-1.9
								c0.1,0,0.2,0,0.2-0.1c0-0.4,0-0.7-0.1-1.1c-0.2-0.8,1-1.8,1.4-0.8c0.1,0.2,0.1,0.5,0.2,0.8c0.1,0.6,0.2,1.1,0.3,1.7
								c0.1,0.6,0,1.2,0.1,1.9C207,92.8,207.1,93.1,207,93.6z"/>
							<path class="st19" d="M235.2,91.8c-0.4-1.5-0.8-2.9-1.4-4.3c-0.6-1.3-1.1-2.6-1.6-4c-0.4-0.8-0.8-1.7-1.6-2.1
								c-1.1-0.7-2.3-0.3-3.5-0.1c-1.4,0.3-2.9,0.3-4.4,0.6c-1.3,0.3-2.6,0.5-3.8,0.9c-0.8,0.1-1.8,0.4-2,1.4
								c-0.4,1.8,0.4,3.8,0.5,5.6c0.1,2.1,0,4.2,0.2,6.3c0.2,1.6,0.3,3.3,1,4.7c0.6,1.2,1.6,1.5,2.7,1.2c0.7-0.2,1.4-0.7,2-1
								c0.9-0.4,1.8-0.7,2.7-0.9c1.9-0.6,3.8-1.1,5.7-1.7c0.8-0.2,1.5-0.6,2.2-1c0,0.1,0.2,0.2,0.3,0.2c0.8-0.4,1.6-1.1,1.9-2.1
								C236.3,94.3,235.5,92.8,235.2,91.8z M227.7,98.9c-1.3,0.4-2.7,0.8-4,1.3c-1.3,0.5-3,2.1-4.3,0.9c-1-0.9-1.1-3-1.2-4.3
								c-0.2-1.7-0.3-3.4-0.3-5.1c0-1.7-0.1-3.2-0.4-4.9c-0.2-0.9-0.3-1.8,0-2.7c0.2-0.5,0.7-0.8,1.2-0.9c2.3-0.5,4.7-0.9,7.1-1.1
								c1.2-0.1,2.3-0.4,3.5-0.5c1.1-0.1,1.9,0.9,2.4,1.8c0.4,0.8,0.7,1.7,1,2.5c0.5,1.3,1.2,2.4,1.6,3.7c0.4,1.3,0.8,2.7,1.2,4.1
								c0.2,0.8,0.4,1.5,0,2.1c-1,0.6-1.9,1.1-2.9,1.6C230.8,98.1,229.2,98.5,227.7,98.9z"/>
							<path class="st19" d="M231.6,88c-0.6-2-1.5-4.3-3.5-4.9c-1-0.3-2-0.2-3,0.1c-1.4,0.4-2.8,0.8-4.2,1c-1.3,0.1-3.1,1-2.4,2.8
								c0,0.1,0.1,0.1,0.1,0.1c-0.1,1.4,0.4,2.8,0.6,4.3c0.2,1.4,0.1,2.8,0.3,4.2c0.1,0.9,0.4,2.1,1.2,2.6c2.1,1.1,4.3-0.8,6.3-1.5
								c1.3-0.4,2.7-0.4,4-0.6c0.7-0.1,1.8-0.6,2-1.4C233.6,92.6,232.2,90.1,231.6,88z M231.9,95.2c-0.7,0.5-1.7,0.5-2.5,0.6
								c-0.9,0.1-1.7,0.2-2.5,0.5c-1.8,0.6-3.7,2.4-5.7,1.6c-1.1-0.4-1.2-2.2-1.2-3.3c-0.1-1.1-0.1-2.1-0.2-3.2
								c-0.1-1.1-0.5-2.1-0.6-3.1c-0.2-1.1,0-2,0.4-3c1-0.6,2.8-0.6,3.5-0.7c1.9-0.4,3.7-1.5,5.6-0.6c1.6,0.8,2.2,3.1,2.7,4.7
								C231.7,90.5,233.6,93.8,231.9,95.2z"/>
							<path class="st19" d="M230.8,91c-0.3-0.9-0.8-1.7-1.2-2.6c-0.3-0.8-0.6-1.6-1.1-2.3c-0.8-1.3-2.2-1.7-3.6-1.3
								c-1,0.3-2,0.7-3.1,1c-0.3,0.1-0.6,0.2-0.9,0.4c0,0-0.1,0-0.1,0c-0.1,0.1-0.2,0.2-0.4,0.4c-0.1,0.1-0.3,0.3-0.4,0.5
								c0,0.1,0,0.1,0,0.2c-0.4,0.9-0.1,2,0.2,3.2c0.4,1.7,0,3.6,0.6,5.1c0.6,1.5,2.1,1,3.2,0.5c1-0.5,1.8-0.8,2.9-0.9
								c0.9-0.1,1.9,0,2.7-0.4C231.2,94.1,231.3,92.4,230.8,91z M228.6,94.4c-1.3,0.2-2.6,0.1-3.8,0.7c-1.2,0.6-3.1,1.7-3.6-0.5
								c-0.3-1.2-0.1-2.5-0.3-3.8c-0.1-0.6-0.3-1.1-0.4-1.6c-0.2-0.9-0.2-1.6,0.1-2.2c0.5-0.6,1.2-0.8,1.9-0.9
								c0.6-0.1,1.2-0.4,1.8-0.6c1.5-0.6,3-0.5,4,1c0.7,1,1.1,2.3,1.6,3.5c0.3,0.7,0.6,1.4,0.7,2.2
								C230.8,93.8,229.5,94.3,228.6,94.4z"/>
							<path class="st19" d="M227.9,88.8c-0.6-0.9-0.9-2-2-2.3c-0.5-0.2-1-0.2-1.6-0.1c-0.5,0.1-1,0.5-1.5,0.8
								c-0.6,0.2-1.1,0.6-1.3,1.2c-0.2,0.5-0.1,0.8,0.1,1.2c0.3,0.8,0.4,1.5,0.5,2.4c0.1,0.8,0.2,1.9,1.1,2.2c1,0.4,2-0.3,3-0.6
								c0.8-0.3,2.5-0.1,2.7-1.4C229,91,228.5,89.9,227.9,88.8z M227.6,92.8c-0.4,0.1-0.9,0.1-1.3,0.2c-0.8,0.2-1.5,0.7-2.3,0.8
								c-1.2,0.2-1.3-1.2-1.5-2.2c-0.1-0.7,0-1.4-0.4-2c-0.6-1,0-1.6,0.7-2c0.6-0.2,1.2-0.6,1.8-0.7c1-0.2,1.8,0.3,2.3,1.2
								c0.4,0.7,0.9,1.5,1.2,2.3C228.4,91.2,228.7,92.6,227.6,92.8z"/>
							<path class="st19" d="M226.1,89.1c-0.3-0.6-0.7-0.8-1.2-0.8c-0.3,0-0.5,0.2-0.7,0.4c-0.3,0.3-0.6,0.5-0.8,0.7
								c-0.1,0.1-0.1,0.3,0.1,0.3c-0.1,0.5,0.1,1,0.1,1.5c0.1,1.3,1.2,1.7,2.1,1c0.4-0.3,0.8-0.9,1-1.4
								C226.8,90.2,226.3,89.5,226.1,89.1z M225.8,91.4c-0.3,0.4-0.8,0.7-1.3,0.7c-0.6-0.1-0.6-0.8-0.7-1.3c-0.1-0.5-0.3-1,0.1-1.4
								c0.1-0.1,0.3-0.2,0.4-0.3c0.1-0.1,0.2-0.1,0.4-0.2c0.2-0.1,0.3-0.1,0.5,0c0.3,0.1,0.6,0.8,0.7,1.1c0.1,0.2,0.2,0.4,0.2,0.6
								C226.3,90.9,226,91.2,225.8,91.4z"/>
							<path class="st19" d="M251.9,75.3c-1.2-1.5-3-3.8-5-3.3c-0.4,0.1-0.7,0.4-1,0.7c0,0,0,0-0.1,0c-2.4,1.6-4.8,3.2-7.2,4.7
								c-1.8,1.1-3.7,2.4-2.7,5c0.5,1.3,1.2,2.4,1.6,3.8c0.4,1.5,0.6,3.1,1.1,4.5c0.7,2,2.1,3.2,3.9,2c1.1-0.8,2.1-1.7,3.2-2.5
								c1.2-0.9,2.3-1.8,3.5-2.8c1.8-1.6,4.1-3.3,5.1-5.6C255.2,79.3,253.1,76.8,251.9,75.3z M250.3,85.5c-1.9,1.7-3.8,3.2-5.8,4.8
								c-0.9,0.7-1.8,1.6-2.9,2.1c-1.4,0.8-2.3-1.1-2.7-2.3c-0.4-1.1-0.6-2.3-0.8-3.5c-0.2-1.2-0.7-2.3-1.2-3.4
								c-0.7-1.5-1.2-3,0.1-4.2c0.8-0.7,1.8-1.3,2.7-1.8c1.3-0.8,2.6-1.7,3.9-2.7c0,0.1,0.1,0.1,0.1,0.1c0.7-0.4,1.4-0.7,2-1.2
								c1-0.9,1.9-1.1,3.1-0.4c0.9,0.6,1.7,1.5,2.4,2.4c0.8,1,1.7,2.1,2.3,3.3C255,81.4,252,84,250.3,85.5z"/>
							<path class="st19" d="M252.3,78.4c-0.5-1.2-1.3-2.3-2.1-3.3c-0.6-0.8-1.3-1.4-2.1-1.8c-0.6-0.2-1.3,0.1-1.8,0.5
								c-2.1,1.1-4,2.4-6,3.7c-1.5,1-2.9,2.6-2.4,4.7c0.3,1.2,0.9,2.3,1.4,3.4c0.5,1,0.5,2.3,1,3.3c1,1.9,2.8,1.1,4.1,0.2
								c2-1.5,3.6-3.6,5.6-5.2C251.6,82.5,253.4,80.9,252.3,78.4z M248.9,84.2c-1.5,1.4-2.9,2.9-4.4,4.3c-0.6,0.5-1.4,1-2.2,1.2
								c-1.1,0.2-1.8-0.9-2.1-2c-0.2-0.8-0.3-1.7-0.7-2.5c-0.5-1-1.1-2.1-1.3-3.3c-0.4-2.2,1.7-3.5,3.1-4.4c0.5-0.3,0.9-0.6,1.3-1
								c0.6-0.3,1.3-0.6,1.9-0.9c0.8-0.5,1.6-1.1,2.5-1.5c1.2-0.6,2.2,0.7,3,1.7c0.7,0.8,1.2,1.7,1.7,2.7
								C253.1,81.1,250.5,82.7,248.9,84.2z"/>
							<path class="st19" d="M250.8,78.6c-0.4-1.7-1.7-3.2-3.1-3.7c-0.5-0.2-1.1,0-1.5,0.4c-0.2,0.1-0.4,0.3-0.6,0.5
								c-1.4,0.6-2.7,1.2-4,2.1c-1.2,0.8-2.5,2.1-2.3,3.9c0.1,0.8,0.5,1.5,0.9,2.2c0.5,0.9,0.7,2,1.3,2.9c0.9,1.4,2.3,0.9,3.4,0.1
								c0.8-0.6,1.5-1.4,2.2-2.1c0.7-0.7,1.5-1.3,2.2-2C250.3,81.7,251.2,80.2,250.8,78.6z M248.1,83.1c-1.1,0.9-2.1,1.9-3.1,2.8
								c-0.6,0.6-1.3,1.1-2.1,1.2c-1,0.2-1.5-1.2-1.8-2c-0.5-1.4-1.6-2.8-1.4-4.3c0.2-1.6,2.2-2.7,3.4-3.3c0.2-0.1,0.4-0.2,0.7-0.4
								c-0.1,0.1,0,0.2,0.1,0.2c0.5-0.2,1-0.4,1.4-0.7c0.6-0.4,1.1-1,1.7-1.1c0.7-0.2,1.5,0.6,2,1.1c0.6,0.6,1.1,1.5,1.3,2.5
								C250.7,80.8,249.2,82.2,248.1,83.1z"/>
							<path class="st19" d="M249.3,77.8c-0.5-1-1.3-1.5-2.4-1.2c-0.5,0.1-0.9,0.5-1.3,0.8c-1,0.5-2,1.1-3,1.7
								c-0.9,0.5-1.5,1.6-1.2,2.8c0.3,1.1,0.9,2.7,1.9,3.1c1.1,0.4,2.3-0.6,3.2-1.1c1.2-0.7,2.3-1.7,3.1-2.9
								C250.2,79.8,249.7,78.8,249.3,77.8z M249,81c-0.6,0.8-1.4,1.5-2.2,2c-0.9,0.6-1.9,1.3-2.9,1.4c-1.1,0.1-2-2-2.1-3
								c-0.2-1.4,1.3-2.1,2.2-2.6c0.1,0,0.1-0.1,0.2-0.1c0.5-0.2,0.9-0.4,1.3-0.6c1-0.7,2.2-1.7,3.2-0.5
								C249.4,78.6,249.8,79.9,249,81z"/>
							<path class="st19" d="M248.3,79.4c-0.4-1.6-1.4-1.3-2.2-0.6c-1.1,0.6-2.5,1.2-2.5,2.7c0,0.6,0.3,1.3,0.8,1.7
								c0.5,0.3,1,0,1.4-0.3C246.9,82.1,248.8,81.1,248.3,79.4z M246,82.2c-0.4,0.3-1,0.9-1.5,0.6c-0.8-0.6-0.5-1.9,0.1-2.5
								c0.2-0.2,0.4-0.3,0.6-0.5c0,0.1,0.1,0.1,0.1,0.1c0.3-0.2,0.6-0.3,0.9-0.5c0.1-0.1,0.3-0.2,0.4-0.4c0.8-0.6,1.1,0,1.3,0.6
								C248.5,80.8,246.7,81.6,246,82.2z"/>
							<path class="st19" d="M266.9,65.5c-0.7-0.9-1.6-1.6-2.3-2.4c-0.7-0.8-1.5-1.4-2.4-1.8c-1.6-0.6-2.6,0.5-3.6,1.7
								c-0.4,0.4-0.8,0.7-1.2,1.1c-0.9,0.8-1.9,1.5-2.8,2.4c-0.7,0.6-1.3,1.3-1.6,2.3c-0.2,0.8,0.2,1.6,0.6,2.2
								c0.7,1,1.5,1.8,2.3,2.7c0.7,0.9,1.2,1.8,1.9,2.6c1.4,1.4,3.2,0.3,4.3-0.9c0.8-0.9,1.4-2.2,2.1-3.2c0.6-1,1.5-1.6,2.2-2.5
								C267.6,68.4,268.1,66.9,266.9,65.5z M265.4,69.9c-1.3,1.3-2.2,2.7-3.2,4.3c-0.5,0.8-1.3,1.5-2.1,1.9
								c-1.2,0.6-2.1-0.2-2.8-1.2c-1-1.3-1.9-2.6-3-3.9c-0.4-0.4-0.7-0.8-0.9-1.4c-0.2-0.6,0.2-1.4,0.6-1.8c0.6-0.8,1.3-1.4,2-2
								c1-0.9,2-1.9,3-2.9c0.9-0.9,1.8-1.6,3.2-1.1c1.5,0.5,2.6,2.3,3.7,3.4c0.8,0.7,1.4,1.6,0.9,2.8
								C266.6,68.8,265.9,69.4,265.4,69.9z"/>
							<path class="st19" d="M264.8,65.9c-0.7-0.8-1.4-1.6-2.2-2.4c-0.5-0.5-1.1-0.7-1.8-0.7c-0.8,0-1.5,0.7-2.1,1.5
								c-0.9,0.8-1.8,1.7-2.6,2.5c-0.9,1-1.4,2.2-0.9,3.5c0.5,1.3,1.8,2.6,2.8,3.5c1,0.9,2.3,0.6,3.3-0.2c0.7-0.5,1.1-1.2,1.6-1.9
								c0.6-0.8,1.3-1.6,1.9-2.4C266.1,68.2,265.8,67,264.8,65.9z M263.8,70.1c-0.9,1-1.6,2.3-2.6,3.2c-1.2,1-2.3,0.7-3.3-0.4
								c-0.8-0.9-1.7-1.8-2.2-2.9c-0.6-1.5,0.7-2.6,1.6-3.5c0.1-0.1,0.2-0.2,0.2-0.3c0,0,0.1,0.1,0.1,0c0.9-0.8,1.7-1.7,2.5-2.5
								c1.4-1.3,3.1,1.2,3.9,2.1c0.6,0.7,1.5,1.5,1.1,2.6C264.9,69,264.2,69.6,263.8,70.1z"/>
							<path class="st19" d="M261.9,65.3c-0.6-0.5-1.4-1-2.1-0.4c-0.3,0.2-0.4,0.6-0.6,0.9c0,0.1-0.1,0.2-0.1,0.2
								c-0.6,0.7-1.2,1.4-1.7,2.2c-0.6,0.9-0.3,1.7,0.2,2.4c0.4,0.6,1.4,1.5,2.2,1.6c1,0.1,1.7-0.5,2.2-1.4c0.6-0.8,1.2-2.1,1.3-3.1
								C263.5,66.8,262.5,65.8,261.9,65.3z M261.9,70.1c-0.4,0.9-1.2,1.9-2.2,1.6c-0.7-0.2-1.4-1-1.9-1.6c-0.5-0.7-0.3-1.4,0.2-2.1
								c0,0,0.1,0,0.1,0c0.4-0.5,0.8-1,1.2-1.5c0.5-0.7,0.8-1.7,1.7-1c0.6,0.4,1.2,0.9,1.6,1.6C263.2,67.9,262.2,69.3,261.9,70.1z"
								/>
							<path class="st19" d="M260.8,66.8c-0.4-0.2-0.8,0.1-1,0.5c0,0.1-0.1,0.1-0.1,0.2c-0.1,0.1-0.1,0.1-0.2,0.2
								c-0.2,0.2-0.3,0.5-0.5,0.7c-0.2,0.3-0.4,0.7-0.2,1.1c0.3,0.4,0.7,0.7,1.2,0.7c0.5,0,0.8-0.4,1-0.8
								C261.5,68.5,261.9,67.3,260.8,66.8z M261.1,68c-0.1,0.3-0.2,0.6-0.3,0.9c-0.2,0.4-0.5,0.8-0.9,0.7c-0.2,0-0.4-0.2-0.5-0.3
								c-0.1-0.1-0.1-0.2-0.1-0.2c0.4-0.5,0.7-1,1-1.5C260.5,67.1,261.2,67.4,261.1,68z"/>
							<path class="st19" d="M274.2,53.3c-0.6-0.5-1.4-0.8-2-1.2c-0.5-0.3-1.2-0.7-1.8-0.6c-0.5,0-0.8,0.2-1.1,0.5c0,0,0,0-0.1,0
								c-0.1,0.1-0.1,0.2-0.2,0.3c-0.2,0.3-0.4,0.6-0.6,1c-0.2,0.4-0.5,0.7-0.7,1.1c-0.5,0.7-1.1,1.3-1.7,2
								c-0.9,1.1-1.1,2.2-0.4,3.5c0.8,1.3,2.2,2.6,3.4,3.3c1.2,0.7,2.3-0.3,3-1.3c1-1.5,1.6-3.4,2.5-5.1
								C275.1,55.7,275.2,54.2,274.2,53.3z M273.2,58.1c-0.5,1.2-1,2.3-1.6,3.4c-0.3,0.6-0.8,1-1.3,1.3c-0.8,0.4-1.7-0.5-2.2-1
								c-0.9-0.7-1.9-1.7-2.4-2.8c-0.5-1.3,1-2.7,1.7-3.6c0.2-0.3,0.5-0.6,0.7-1c0.7-1,1.4-2.4,2.4-2.5c1.1-0.1,2.7,1.1,3.5,1.8
								C275.4,54.9,273.8,56.9,273.2,58.1z"/>
							<path class="st19" d="M273.7,54.4c-0.3-1-1.5-1.6-2.2-2c-1-0.4-1.3,0.5-2,1c0,0,0,0.1,0,0.1c-0.4,0.5-0.8,1.1-1.2,1.8
								c-0.5,0.9-1.7,1.6-1.7,2.9c0,1.2,0.9,2,1.8,2.6c0.9,0.6,1.8,1,2.7,0.2c0.8-0.7,1.4-2.2,1.9-3.2
								C273.5,56.8,274.2,55.8,273.7,54.4z M272.5,57.7c-0.4,0.9-0.9,1.8-1.4,2.6c-0.9,1.3-2.1,0.5-3-0.3c-0.4-0.3-0.8-0.7-1-1.2
								c-0.3-0.7,0.2-1.5,0.6-2c0.8-1.2,1.4-2.5,2.4-3.5c0.3-0.2,0.6-0.5,1-0.4c0.8,0.1,1.8,1,2.1,1.8
								C273.7,55.7,272.9,56.8,272.5,57.7z"/>
							<path class="st19" d="M272.3,54.3c-0.7-1.4-1.7-0.2-2.4,1c-0.4,0.5-0.8,1-1.1,1.5c-0.3,0.5-0.8,1.3-0.6,2
								c0.5,1.3,2.1,2,2.8,0.5c0.4-0.9,0.9-1.9,1.3-2.9C272.5,55.8,272.6,54.9,272.3,54.3z M271.1,57.8c-0.3,0.6-0.5,2-1.5,1.7
								c-0.9-0.3-1.1-1.2-0.7-2.1c0.2-0.3,0.3-0.6,0.5-0.9c0,0,0,0,0,0c0.4-0.4,1.9-2.7,2.4-2.1C272.6,55.3,271.4,57,271.1,57.8z"/>
							<path class="st19" d="M271.7,55.3c-0.2-0.3-0.6-0.2-0.8,0c-0.4,0.3-0.6,0.7-0.8,1.1c-0.3,0.4-0.4,0.8-0.5,1.2
								c0,0.2-0.1,0.8,0.3,0.8c0.4,0,0.7-0.3,1-0.6c0.3-0.4,0.6-0.8,0.8-1.4C271.7,56.1,271.9,55.6,271.7,55.3z M270.8,57.3
								c-0.2,0.2-0.4,0.4-0.6,0.6c-0.4,0.4-0.3-0.3-0.3-0.5c0.2-0.6,0.7-1.4,1.3-1.6c0,0,0-0.1,0-0.1c0,0,0,0,0.1,0
								C271.4,56.1,271.1,56.9,270.8,57.3z"/>
						</g>
						<g>
							<path class="st20" d="M206.8,5.6c-4.4,0.1-8.8,0.2-13.2,0.2c-4.1,0.1-8.6-0.7-12.5,0.8c-0.4,0.1-0.7,0.3-1.1,0.5
								c-0.1,0.4-0.1,0.7-0.1,1.1c0.7-0.3,1.4-0.5,2.2-0.6c4.3-0.6,8.7,0.3,13,0.5c4.3,0.2,8.7,0.3,13,0.2
								C208,7.3,207.5,6.3,206.8,5.6z"/>
							<path class="st21" d="M233.8,10.7c-3.1-2.8-6.5-4.9-10.8-5.5c-4.4-0.7-8.9,0.1-13.4,0.3c0.2,0.9,0.6,1.8,0.8,2.2
								c0.1,0.2,0.3,0.4,0.4,0.6c4.1-0.2,8.2-0.8,12.3-0.2c2.7,0.4,5.1,1.5,7.3,3.1C231.7,11.3,232.8,11.2,233.8,10.7z"/>
							<path class="st20" d="M246.6,25.8c-1.1-1.3-2.1-2.6-3.2-4c-2.2-2.9-4.5-5.9-6.9-8.6c-0.9-0.1-1.9,0.1-2.8,0.6
								c3.3,3.2,6.2,7.1,9,10.4c0.7,0.9,1.5,1.8,2.2,2.7C245.4,26.5,246,26.1,246.6,25.8z"/>
							<path class="st21" d="M263.9,47.3c-3.1-4.6-6.8-8.8-10.3-13c-1.6-2-3.3-3.9-4.9-5.9c-0.7,0.1-1.2,0.5-1.8,0.9
								c1.9,2.1,3.8,4.3,5.6,6.4c3.5,4.1,7,8.5,10.9,12.1C263.7,48.1,264.1,47.7,263.9,47.3z"/>
							<path class="st21" d="M223,22.1c-0.9-2.1-2.9-3.4-4.7-4.3c-1.5-0.7-3.8-1.9-5.5-1.5c-1.9,0.5-2.6,2.8-3.4,4.5
								c0,0.1,0,0.1,0.1,0.1c1.1-1.2,2.1-2.9,3.8-2.7c1.5,0.2,3.2,1.2,4.5,2c1.4,0.8,2.6,1.9,3.5,3.4c1.2,1.9,1.4,4.1,1.6,8.2
								c0,0.3,1,3.8,1,3.5C223.8,31.4,224,24.4,223,22.1z"/>
							<path class="st20" d="M208.7,45.7c-1.9-6.6-5-12.6-11-14.6c-2.3-0.8-5.7-2.2-7.9-0.6c-2.1,1.4-3.3,4.5-4.5,6.7
								c-0.1,0.1,0.1,0.2,0.2,0.1c1.5-2,2.5-4.1,4.8-5c1.2-0.5,2.6,0,3.8,0.4c1.4,0.5,2.8,0.9,4.2,1.4c5.4,2,10.6,10.9,10.1,16.7
								C208.2,51,208.8,46,208.7,45.7z"/>
							<path class="st21" d="M238.5,51.6c-1.6-2.5-2.6-3.7-4.7-5.6c-1.9-1.8-4.3-4.2-6.8-5.1c-2.4-0.9-4.3,0.6-6.1,2.2
								c-2.6,2.3-4.8,5.1-6.8,8c-0.1,0.1,0.1,0.3,0.1,0.2c1.9-1.9,3.9-3.7,6-5.3c2.2-1.7,4.3-3.7,7-2.2c2,1.1,3.5,2.8,5.4,4.1
								c2,1.4,5.5,3.3,6.1,7.1C238.9,55.4,238.7,51.9,238.5,51.6z"/>
						</g>
					</g>
				</g>
			</g>
		</g>
		<path class="st22" d="M208.9,102.1L208.9,102.1c-1.2,0-2.3,0-3.5-0.1c-9.5-0.8-19.2-6.3-26.4-15.1c-7.1-8.7-11.3-19.6-11.4-30.1
			c-0.1-5.1,1.3-11.9,3.6-18.3c4.5-12.4,15.2-21.9,28.6-25.4c2.8-0.7,5.9-1.1,9.1-1.1c1.1,0,2.2,0,3.3,0.1c7.3,0.6,14.7,3.4,21,7.8
			c6.8,4.8,11.7,11.2,14.2,18.4c2.9,8.5,3.3,18,1.1,29.1c-2.9,14.7-12.7,26.9-26.4,32.4C218.5,101.3,213.8,102.1,208.9,102.1z
			 M209,14.5c-3,0-5.9,0.3-8.5,1c-12.6,3.2-22.7,12.1-26.9,23.8c-2.2,6.1-3.5,12.6-3.5,17.4c0.1,9.9,4.1,20.4,10.8,28.6
			c6.8,8.3,15.8,13.5,24.7,14.2c1,0.1,2.1,0.1,3.3,0.1c4.6,0,9.1-0.8,12.4-2.1c12.9-5.2,22.2-16.7,24.9-30.6
			c2.1-10.6,1.7-19.7-1-27.8c-5.1-14.8-20.4-23.6-33-24.6C211,14.5,210,14.5,209,14.5z M208.8,76.2c-0.6,0-1.2,0-1.7-0.1
			c-10-0.8-18.9-11.5-19-22.8c0-3.7,1.2-7.7,1.8-9.2c2.3-6.3,7.7-11.1,14.4-12.8c1.9-0.5,4.1-0.7,6.3-0.5
			c6.5,0.5,14.9,4.9,17.7,13.3c1.5,4.3,1.6,9,0.6,14.5c-1.5,7.4-6.4,13.5-13.3,16.3C213.1,76,210.3,76.2,208.8,76.2z M208.9,33.3
			c-1.4,0-2.8,0.2-4,0.5c-6,1.5-10.7,5.7-12.7,11.3c-1.1,2.9-1.7,6-1.7,8.3c0.1,9.9,8.1,19.6,16.8,20.3c0.5,0,1,0.1,1.5,0.1
			c2.2,0,4.3-0.4,5.8-1c6.1-2.5,10.5-7.9,11.8-14.5c1-5.1,0.8-9.4-0.5-13.3c-2.4-7-9.7-11.1-15.6-11.6
			C209.8,33.3,209.3,33.3,208.9,33.3z"/>
		<path class="st23" d="M209,14.5c-13.3,2.3-25.3,8.8-31.9,21.7c-3.2,6.2-5.1,12.6-5.2,19.7c-0.1,7.3,2.1,13.9,4.9,20.6
			c0.1,0.2,0.3-0.1,0.3-0.2c-2-6.5-3.5-12.8-2.9-19.6c0.3-2.9,0.8-5.7,1.4-8.6c0.7-3.3,1.9-6.1,3.2-9.2c5.2-13,17.9-19.5,30.1-23
			C209.5,15.7,210,14.3,209,14.5z"/>
	</g>
</g>
</svg>
