<?xml version="1.0" encoding="utf-8"?>
<!-- Generator: Adobe Illustrator 28.3.0, SVG Export Plug-In . SVG Version: 6.00 Build 0)  -->
<svg version="1.1" id="Layer_1" xmlns="http://www.w3.org/2000/svg" xmlns:xlink="http://www.w3.org/1999/xlink" x="0px" y="0px"
	 viewBox="0 0 58.3 48.1" style="enable-background:new 0 0 58.3 48.1;" xml:space="preserve">
<style type="text/css">
	.st0{fill:#FFFFFF;}
	.st1{fill:#2BB8D8;}
	.st2{fill:#FF808D;}
	.st3{fill:#FFCCD6;}
	.st4{fill:#FFFCFF;}
	.st5{fill:#1E0E05;}
	.st6{fill:none;stroke:#1E0E05;stroke-width:0.1103;stroke-miterlimit:10;}
	.st7{clip-path:url(#SVGID_00000041290315418446069580000002440834417142914452_);fill:#1E0E05;}
</style>
<rect y="0" class="st0" width="58.3" height="48.1"/>
<g>
	<path d="M4,36.1h1.5V37H2.8v-4.7H4V36.1z"/>
	<path d="M9.6,35.4H7c0,0.2,0.1,0.4,0.2,0.5c0.1,0.1,0.3,0.2,0.5,0.2c0.3,0,0.5-0.1,0.6-0.4h1.2c-0.1,0.2-0.2,0.5-0.3,0.7
		c-0.2,0.2-0.4,0.4-0.6,0.5C8.3,37,8,37.1,7.7,37.1c-0.4,0-0.7-0.1-1-0.2c-0.3-0.2-0.5-0.4-0.7-0.7c-0.2-0.3-0.2-0.6-0.2-1
		c0-0.4,0.1-0.7,0.2-1c0.2-0.3,0.4-0.5,0.7-0.7c0.3-0.2,0.6-0.2,1-0.2c0.4,0,0.7,0.1,1,0.2c0.3,0.2,0.5,0.4,0.7,0.7
		c0.2,0.3,0.2,0.6,0.2,1C9.6,35.2,9.6,35.3,9.6,35.4z M8.4,34.8c0-0.2-0.1-0.4-0.2-0.5c-0.1-0.1-0.3-0.2-0.5-0.2
		c-0.2,0-0.4,0.1-0.5,0.2C7.1,34.4,7,34.6,7,34.8H8.4z"/>
	<path d="M12.5,37l-1.1-1.6V37h-1.2v-5h1.2v2.8l1.1-1.5h1.4l-1.6,1.9L14,37H12.5z"/>
	<path d="M16.7,37l-1.1-1.6V37h-1.2v-5h1.2v2.8l1.1-1.5h1.4l-1.6,1.9l1.6,1.9H16.7z"/>
	<path d="M22.1,35.4h-2.6c0,0.2,0.1,0.4,0.2,0.5c0.1,0.1,0.3,0.2,0.5,0.2c0.3,0,0.5-0.1,0.6-0.4H22c-0.1,0.2-0.2,0.5-0.3,0.7
		c-0.2,0.2-0.4,0.4-0.6,0.5c-0.2,0.1-0.5,0.2-0.8,0.2c-0.4,0-0.7-0.1-1-0.2c-0.3-0.2-0.5-0.4-0.7-0.7c-0.2-0.3-0.2-0.6-0.2-1
		c0-0.4,0.1-0.7,0.2-1c0.2-0.3,0.4-0.5,0.7-0.7c0.3-0.2,0.6-0.2,1-0.2c0.4,0,0.7,0.1,1,0.2c0.3,0.2,0.5,0.4,0.7,0.7
		c0.2,0.3,0.2,0.6,0.2,1C22.1,35.2,22.1,35.3,22.1,35.4z M20.9,34.8c0-0.2-0.1-0.4-0.2-0.5c-0.1-0.1-0.3-0.2-0.5-0.2
		c-0.2,0-0.4,0.1-0.5,0.2c-0.1,0.1-0.2,0.3-0.2,0.5H20.9z"/>
	<path d="M24.4,33.4c0.2-0.1,0.4-0.2,0.7-0.2v1.2h-0.3c-0.3,0-0.5,0.1-0.6,0.2c-0.1,0.1-0.2,0.3-0.2,0.7V37h-1.2v-3.8h1.2v0.6
		C24,33.7,24.2,33.5,24.4,33.4z"/>
	<path d="M29.1,36.1v1h-0.6c-0.4,0-0.7-0.1-1-0.3c-0.2-0.2-0.4-0.5-0.4-1v-1.5h-0.5v-1h0.5v-0.9h1.2v0.9h0.8v1h-0.8v1.5
		c0,0.1,0,0.2,0.1,0.2c0.1,0,0.1,0.1,0.3,0.1H29.1z"/>
	<path d="M33.3,35.4h-2.6c0,0.2,0.1,0.4,0.2,0.5c0.1,0.1,0.3,0.2,0.5,0.2c0.3,0,0.5-0.1,0.6-0.4h1.2c-0.1,0.2-0.2,0.5-0.3,0.7
		c-0.2,0.2-0.4,0.4-0.6,0.5c-0.2,0.1-0.5,0.2-0.8,0.2c-0.4,0-0.7-0.1-1-0.2c-0.3-0.2-0.5-0.4-0.7-0.7c-0.2-0.3-0.2-0.6-0.2-1
		c0-0.4,0.1-0.7,0.2-1c0.2-0.3,0.4-0.5,0.7-0.7c0.3-0.2,0.6-0.2,1-0.2c0.4,0,0.7,0.1,1,0.2c0.3,0.2,0.5,0.4,0.7,0.7
		c0.2,0.3,0.2,0.6,0.2,1C33.3,35.2,33.3,35.3,33.3,35.4z M32.1,34.8c0-0.2-0.1-0.4-0.2-0.5c-0.1-0.1-0.3-0.2-0.5-0.2
		c-0.2,0-0.4,0.1-0.5,0.2c-0.1,0.1-0.2,0.3-0.2,0.5H32.1z"/>
	<path d="M36.2,37l-1.1-1.6V37h-1.2v-5h1.2v2.8l1.1-1.5h1.4l-1.6,1.9l1.6,1.9H36.2z"/>
	<path d="M41.6,35.4H39c0,0.2,0.1,0.4,0.2,0.5c0.1,0.1,0.3,0.2,0.5,0.2c0.3,0,0.5-0.1,0.6-0.4h1.2c-0.1,0.2-0.2,0.5-0.3,0.7
		c-0.2,0.2-0.4,0.4-0.6,0.5c-0.2,0.1-0.5,0.2-0.8,0.2c-0.4,0-0.7-0.1-1-0.2c-0.3-0.2-0.5-0.4-0.7-0.7c-0.2-0.3-0.2-0.6-0.2-1
		c0-0.4,0.1-0.7,0.2-1c0.2-0.3,0.4-0.5,0.7-0.7s0.6-0.2,1-0.2c0.4,0,0.7,0.1,1,0.2c0.3,0.2,0.5,0.4,0.7,0.7c0.2,0.3,0.2,0.6,0.2,1
		C41.7,35.2,41.6,35.3,41.6,35.4z M40.5,34.8c0-0.2-0.1-0.4-0.2-0.5c-0.1-0.1-0.3-0.2-0.5-0.2c-0.2,0-0.4,0.1-0.5,0.2
		c-0.1,0.1-0.2,0.3-0.2,0.5H40.5z"/>
	<path d="M45.6,33.7c0.3,0.3,0.4,0.7,0.4,1.2V37h-1.1v-2c0-0.3-0.1-0.4-0.2-0.6c-0.1-0.1-0.3-0.2-0.5-0.2c-0.2,0-0.4,0.1-0.5,0.2
		c-0.1,0.1-0.2,0.3-0.2,0.6v2h-1.2v-3.8h1.2v0.5c0.1-0.2,0.3-0.3,0.5-0.4c0.2-0.1,0.4-0.1,0.7-0.1C45,33.2,45.4,33.4,45.6,33.7z"/>
	<path d="M50.3,35.4h-2.6c0,0.2,0.1,0.4,0.2,0.5c0.1,0.1,0.3,0.2,0.5,0.2c0.3,0,0.5-0.1,0.6-0.4h1.2c-0.1,0.2-0.2,0.5-0.3,0.7
		c-0.2,0.2-0.4,0.4-0.6,0.5c-0.2,0.1-0.5,0.2-0.8,0.2c-0.4,0-0.7-0.1-1-0.2c-0.3-0.2-0.5-0.4-0.7-0.7c-0.2-0.3-0.2-0.6-0.2-1
		c0-0.4,0.1-0.7,0.2-1c0.2-0.3,0.4-0.5,0.7-0.7s0.6-0.2,1-0.2c0.4,0,0.7,0.1,1,0.2c0.3,0.2,0.5,0.4,0.7,0.7c0.2,0.3,0.2,0.6,0.2,1
		C50.4,35.2,50.4,35.3,50.3,35.4z M49.2,34.8c0-0.2-0.1-0.4-0.2-0.5c-0.1-0.1-0.3-0.2-0.5-0.2c-0.2,0-0.4,0.1-0.5,0.2
		c-0.1,0.1-0.2,0.3-0.2,0.5H49.2z"/>
	<path d="M54.3,33.7c0.3,0.3,0.4,0.7,0.4,1.2V37h-1.1v-2c0-0.3-0.1-0.4-0.2-0.6c-0.1-0.1-0.3-0.2-0.5-0.2c-0.2,0-0.4,0.1-0.5,0.2
		c-0.1,0.1-0.2,0.3-0.2,0.6v2H51v-3.8h1.2v0.5c0.1-0.2,0.3-0.3,0.5-0.4c0.2-0.1,0.4-0.1,0.7-0.1C53.7,33.2,54.1,33.4,54.3,33.7z"/>
	<path d="M18.4,41.8c0.3,0.3,0.4,0.7,0.4,1.2v2.2h-1.1v-2c0-0.2-0.1-0.4-0.2-0.6c-0.1-0.1-0.3-0.2-0.5-0.2c-0.2,0-0.4,0.1-0.5,0.2
		c-0.1,0.1-0.2,0.3-0.2,0.6v2h-1.1v-2c0-0.2-0.1-0.4-0.2-0.6c-0.1-0.1-0.3-0.2-0.5-0.2c-0.2,0-0.4,0.1-0.5,0.2
		c-0.1,0.1-0.2,0.3-0.2,0.6v2h-1.2v-3.8h1.2v0.5c0.1-0.2,0.3-0.3,0.5-0.4c0.2-0.1,0.4-0.1,0.6-0.1c0.3,0,0.5,0.1,0.8,0.2
		c0.2,0.1,0.4,0.3,0.5,0.5c0.1-0.2,0.3-0.4,0.5-0.5c0.2-0.1,0.5-0.2,0.7-0.2C17.8,41.3,18.1,41.5,18.4,41.8z"/>
	<path d="M23.2,43.5h-2.6c0,0.2,0.1,0.4,0.2,0.5c0.1,0.1,0.3,0.2,0.5,0.2c0.3,0,0.5-0.1,0.6-0.4h1.2c-0.1,0.2-0.2,0.5-0.3,0.7
		c-0.2,0.2-0.4,0.4-0.6,0.5c-0.2,0.1-0.5,0.2-0.8,0.2c-0.4,0-0.7-0.1-1-0.2c-0.3-0.2-0.5-0.4-0.7-0.7c-0.2-0.3-0.2-0.6-0.2-1
		c0-0.4,0.1-0.7,0.2-1c0.2-0.3,0.4-0.5,0.7-0.7c0.3-0.2,0.6-0.2,1-0.2c0.4,0,0.7,0.1,1,0.2c0.3,0.2,0.5,0.4,0.7,0.7
		c0.2,0.3,0.2,0.6,0.2,1C23.2,43.3,23.2,43.4,23.2,43.5z M22,42.9c0-0.2-0.1-0.4-0.2-0.5c-0.1-0.1-0.3-0.2-0.5-0.2
		c-0.2,0-0.4,0.1-0.5,0.2c-0.1,0.1-0.2,0.3-0.2,0.5H22z"/>
	<path d="M25.9,44.2v1h-0.6c-0.4,0-0.7-0.1-1-0.3c-0.2-0.2-0.4-0.5-0.4-1v-1.5h-0.5v-1H24v-0.9h1.2v0.9h0.8v1h-0.8v1.5
		c0,0.1,0,0.2,0.1,0.2c0.1,0,0.1,0.1,0.3,0.1H25.9z"/>
	<path d="M29.6,41.5c0.2-0.1,0.4-0.2,0.7-0.2c0.3,0,0.6,0.1,0.8,0.2c0.3,0.2,0.5,0.4,0.6,0.7c0.1,0.3,0.2,0.6,0.2,1
		c0,0.4-0.1,0.7-0.2,1c-0.1,0.3-0.3,0.5-0.6,0.7c-0.3,0.2-0.5,0.2-0.8,0.2c-0.3,0-0.5-0.1-0.7-0.2c-0.2-0.1-0.4-0.2-0.5-0.4v0.5H28
		v-5h1.2v1.8C29.2,41.7,29.4,41.6,29.6,41.5z M30.5,42.6c-0.2-0.2-0.4-0.2-0.6-0.2c-0.2,0-0.4,0.1-0.6,0.2c-0.2,0.2-0.2,0.4-0.2,0.7
		c0,0.3,0.1,0.5,0.2,0.7c0.2,0.2,0.4,0.2,0.6,0.2c0.2,0,0.4-0.1,0.6-0.3c0.2-0.2,0.2-0.4,0.2-0.7C30.8,43,30.7,42.7,30.5,42.6z"/>
	<path d="M33.7,40.1v5h-1.2v-5H33.7z"/>
	<path d="M38.3,41.4v3.8h-1.2v-0.5c-0.1,0.2-0.3,0.3-0.5,0.4c-0.2,0.1-0.4,0.2-0.7,0.2c-0.3,0-0.5-0.1-0.8-0.2
		c-0.2-0.1-0.4-0.3-0.5-0.6c-0.1-0.2-0.2-0.5-0.2-0.9v-2.2h1.1v2c0,0.3,0.1,0.4,0.2,0.6c0.1,0.1,0.3,0.2,0.5,0.2
		c0.2,0,0.4-0.1,0.5-0.2c0.1-0.1,0.2-0.3,0.2-0.6v-2H38.3z"/>
	<path d="M40.7,41.5c0.2-0.1,0.4-0.2,0.7-0.2c0.3,0,0.6,0.1,0.8,0.2c0.3,0.2,0.5,0.4,0.6,0.7c0.1,0.3,0.2,0.6,0.2,1
		c0,0.4-0.1,0.7-0.2,1c-0.1,0.3-0.3,0.5-0.6,0.7c-0.3,0.2-0.5,0.2-0.8,0.2c-0.3,0-0.5-0.1-0.7-0.2c-0.2-0.1-0.4-0.2-0.5-0.4v0.5
		h-1.2v-5h1.2v1.8C40.4,41.7,40.5,41.6,40.7,41.5z M41.6,42.6c-0.2-0.2-0.4-0.2-0.6-0.2c-0.2,0-0.4,0.1-0.6,0.2
		c-0.2,0.2-0.2,0.4-0.2,0.7c0,0.3,0.1,0.5,0.2,0.7c0.2,0.2,0.4,0.2,0.6,0.2s0.4-0.1,0.6-0.3c0.2-0.2,0.2-0.4,0.2-0.7
		C41.9,43,41.8,42.7,41.6,42.6z"/>
	<path d="M46.2,40.5c0.3,0.3,0.4,0.6,0.4,1.1c0,0.4-0.1,0.8-0.4,1s-0.6,0.4-1.1,0.4l0,0.5h-1l0-1.3h0.4c0.3,0,0.6,0,0.8-0.1
		c0.2-0.1,0.3-0.2,0.3-0.5c0-0.2,0-0.3-0.1-0.4c-0.1-0.1-0.2-0.1-0.4-0.1c-0.2,0-0.3,0-0.4,0.1c-0.1,0.1-0.1,0.2-0.1,0.4h-1.1
		c0-0.3,0-0.5,0.2-0.7c0.1-0.2,0.3-0.4,0.6-0.5c0.2-0.1,0.5-0.2,0.9-0.2C45.5,40.1,45.9,40.3,46.2,40.5z M44.1,45
		c-0.1-0.1-0.2-0.3-0.2-0.4c0-0.2,0.1-0.3,0.2-0.5c0.1-0.1,0.3-0.2,0.5-0.2c0.2,0,0.4,0.1,0.5,0.2c0.1,0.1,0.2,0.3,0.2,0.5
		c0,0.2-0.1,0.3-0.2,0.4c-0.1,0.1-0.3,0.2-0.5,0.2C44.4,45.2,44.2,45.1,44.1,45z"/>
</g>
<path class="st1" d="M19.1,6.1C22.3,9.2,28,4,33.5,6.7C40.1,10,38.4,20.5,43.8,22c3.7,1,5.4-3.5,10.5-3.3c1.5,0.1,2.7,0.5,3.9,1.1V0
	H17.7C17.3,2.3,17.7,4.7,19.1,6.1z"/>
<g>
	<polygon class="st2" points="29.8,30 29.8,29.9 28,29.7 27.9,24.2 28.3,19 27.3,19 27.3,24.2 27.3,24.2 27.3,24.2 27.8,29.7 
		29.2,30.8 29.3,30.7 28.1,29.8 	"/>
	<polygon class="st2" points="31.2,27 29.7,25.7 24.5,23.6 26,18.9 25.1,18.6 23.9,23.7 23.8,24 24.1,24.1 29.6,25.8 30.2,27.6 
		30.3,27.6 29.8,25.9 31.1,27.1 	"/>
	<ellipse class="st3" cx="26.8" cy="16.6" rx="4.2" ry="3"/>
	<path class="st2" d="M22.5,16c0.7-1.5,2-2.4,4.3-2.4s4.2,1.3,4.2,3c0,0-1.2,0.4-2.3,0.8c-1.3,0.4-2.1,0.3-2.1,0.3l0.5-0.7
		c0,0-1.2,0.9-2.2,0.8C24,17.7,24.8,17,24.8,17s-0.4,0.5-1.4,0.7c-1,0.1-1.5-0.1-1.5-0.1S22.1,16.9,22.5,16z"/>
	<path class="st3" d="M30.2,18.3c0.1,0,2.1-0.3,3.1-1.7c0.5-0.7,0.6-1.5,0.4-2.5c-0.2-1-1-1.9-1.7-2.8c-0.4-0.4-0.8-0.9-1.1-1.4
		C30,8.7,30,7.1,30.5,6.2c0.1-0.2,0.3-0.6,0.7-0.6V4.3c-0.8,0-1.4,0.5-1.9,1.3c-0.7,1.3-0.7,3.5,0.5,5.2c0.4,0.5,0.8,1,1.2,1.5
		c0.7,0.8,1.3,1.5,1.5,2.2c0.1,0.6,0.1,1-0.2,1.4c-0.6,0.9-2.1,1.1-2.1,1.1L30.2,18.3z"/>
	<ellipse class="st2" cx="31.1" cy="6.2" rx="2.4" ry="2.1"/>
	<g>
		<path class="st4" d="M34.9,7.7c1,1.1,0.7,2.8,0.7,2.8s-1.9-2-3.6-2.3C31,8,31.4,5.9,32.8,6C33.5,6.1,34.1,6.8,34.9,7.7z"/>
		<circle class="st4" cx="31.5" cy="6.1" r="0.7"/>
		<circle class="st5" cx="31.5" cy="6" r="0.2"/>
		<path class="st6" d="M35.3,9.8c0,0-1.4-1-2.6-2.5"/>
		<g>
			<defs>
				<path id="SVGID_1_" d="M34.9,7.7c1,1.1,0.7,2.8,0.7,2.8s-1.9-2-3.6-2.3C31,8,31.4,5.9,32.8,6C33.5,6.1,34.1,6.8,34.9,7.7z"/>
			</defs>
			<clipPath id="SVGID_00000013158847354122356350000014808510913066139782_">
				<use xlink:href="#SVGID_1_"  style="overflow:visible;"/>
			</clipPath>
			
				<ellipse style="clip-path:url(#SVGID_00000013158847354122356350000014808510913066139782_);fill:#1E0E05;" cx="35.8" cy="10" rx="2" ry="1.9"/>
		</g>
	</g>
</g>
</svg>
