<?xml version="1.0" encoding="UTF-8"?><svg id="Layer_1" xmlns="http://www.w3.org/2000/svg" viewBox="0 0 58.32 58.32"><defs><style>.cls-1{fill:#e95614;}.cls-1,.cls-2{stroke-width:0px;}.cls-2{fill:#fff;}</style></defs><circle class="cls-1" cx="29.16" cy="29.16" r="29.16"/><path class="cls-2" d="M39.65,21.21v.33s-.03.03-.03.05c-.06.51-.34.89-.69,1.24-2.04,2.03-4.07,4.07-6.11,6.1-.07.07-.17.11-.26.17,0,.04,0,.08.01.11.08.06.16.1.23.17,2.07,2.06,4.13,4.13,6.19,6.19.28.28.49.58.58.97.02.08.05.17.07.25v.33s-.04.09-.05.13c-.05.34-.19.65-.42.89-.34.36-.7.71-1.06,1.06-.5.49-1.47.53-2,.24-.21-.12-.41-.28-.58-.45-2.07-2.06-4.13-4.12-6.19-6.19-.07-.07-.14-.13-.24-.22-.08.1-.14.18-.21.25-2.03,2.04-4.07,4.07-6.1,6.1-.08.08-.16.15-.24.23-.6.6-1.81.6-2.42,0-.35-.34-.7-.67-1.03-1.03-.37-.4-.51-.89-.43-1.44.06-.46.28-.82.6-1.13,2.07-2.07,4.14-4.14,6.21-6.2.07-.07.13-.13.25-.26-.1-.07-.19-.11-.26-.17-2.05-2.04-4.09-4.09-6.13-6.13-.08-.08-.16-.16-.24-.25-.6-.69-.6-1.72.02-2.39.32-.35.66-.69,1.02-1.01.41-.37.9-.52,1.46-.45.46.06.82.29,1.13.6,2.07,2.07,4.14,4.14,6.2,6.21.07.07.14.13.25.24.07-.1.13-.19.2-.26,2.07-2.07,4.13-4.14,6.2-6.21.81-.8,1.89-.8,2.7,0,.27.26.53.53.8.8.25.25.41.54.49.88.02.08.04.17.07.25Z"/></svg>