<?xml version="1.0" encoding="utf-8"?>
<!-- Generator: Adobe Illustrator 28.3.0, SVG Export Plug-In . SVG Version: 6.00 Build 0)  -->
<svg version="1.1" id="Layer_1" xmlns="http://www.w3.org/2000/svg" xmlns:xlink="http://www.w3.org/1999/xlink" x="0px" y="0px"
	 viewBox="0 0 62.3 52.7" style="enable-background:new 0 0 62.3 52.7;" xml:space="preserve">
<style type="text/css">
	.st0{fill:#FFFFFF;}
	.st1{fill:#DA9A00;}
	.st2{fill:#EBAE00;}
	.st3{fill:#BB5E0D;}
	.st4{fill:#58494C;}
	.st5{fill:#1E0E05;}
	.st6{fill:#FFBB94;}
	.st7{clip-path:url(#SVGID_00000134238978846271397160000008338960385459855534_);}
	.st8{fill:none;stroke:#E37D34;stroke-width:0.326;stroke-miterlimit:10;}
</style>
<path class="st0" d="M44.6,19.6c-0.1,0.6-0.5,1.1-1,1.5c-5.1,5.1-10.2,10.2-15.3,15.3c-0.4,0.4-0.9,0.6-1.4,0.5
	c-0.2-0.1-0.5-0.2-0.6-0.4c-2.5-2.5-5.1-5.1-7.6-7.6c-0.9-0.9-0.9-2.1,0-3c0.3-0.3,0.6-0.6,0.9-0.9c0.9-0.9,2.1-0.9,3,0
	c1.5,1.5,3,3,4.5,4.5c0.1,0.1,0.1,0.2,0.2,0.3c0.1-0.2,0.2-0.3,0.2-0.3c4.2-4.2,8.4-8.4,12.5-12.5c1-1,2.2-1,3.2,0
	c0.1,0.1,0.3,0.3,0.4,0.4c0.5,0.4,0.9,0.9,1,1.5V19.6L44.6,19.6z"/>
<g>
	<path class="st1" d="M21.6,42.8c0,0,0,6.9-0.4,8.1c-0.4,1.3-0.4,1.8-0.4,1.8h2.7l2.7-11.2L21.6,42.8z"/>
	<path class="st1" d="M36.8,38.2c0,0,3.3,5.8,3.5,9.2s0.2,3.3,0.2,3.3h2.1l2.9-13.1L36.8,38.2z"/>
	<path class="st2" d="M35.1,29.5c0,0,16-1.6,17.5,4.1c0.7,2.6-0.9,7.3-0.9,10.9c0,4.2-0.3,8.1-0.3,8.1h-1.9c0,0-0.3-5.9-5.6-11.3
		c0,0-22.3,4.9-23,0.1C20.1,36.7,35.1,29.5,35.1,29.5z"/>
	<path class="st3" d="M40.1,22.2c0,10.7-7.9,21-18.6,21s-20-10.3-20-21S10.2,2.9,20.8,2.9S40.1,11.6,40.1,22.2z"/>
	<path class="st2" d="M30,26.4c0,6.7-2.2,9.4-9.4,9.2c-7.9-0.2-10.4-2.5-10.4-9.2s4.4-12.2,9.9-12.2S30,19.7,30,26.4z"/>
	<ellipse transform="matrix(0.8161 -0.5779 0.5779 0.8161 -7.1568 10.2984)" class="st2" cx="12.6" cy="16.4" rx="3.2" ry="4.1"/>
	<g>
		<path class="st4" d="M10.9,15.2c1.6-0.2,2.9,1.3,3.1,2.7C13,16.9,12.2,16,10.9,15.2L10.9,15.2z"/>
	</g>
	<ellipse transform="matrix(0.5779 -0.8161 0.8161 0.5779 -1.4296 30.0246)" class="st2" cx="28.3" cy="16.4" rx="4.1" ry="3.2"/>
	<g>
		<path class="st4" d="M30,15.2c-1.3,0.8-2,1.7-3.1,2.7C27,16.5,28.4,15,30,15.2L30,15.2z"/>
	</g>
	<path class="st0" d="M21.7,29c-0.6,0-1.2,0.2-1.6,0.6c-0.4-0.4-1-0.6-1.6-0.6c-1.4,0-2.5,1.2-2.5,2.6s1.1,2.6,2.5,2.6
		c0.6,0,1.2-0.2,1.6-0.6c0.4,0.4,1,0.6,1.6,0.6c1.4,0,2.5-1.2,2.5-2.6S23.1,29,21.7,29z"/>
	<ellipse class="st5" cx="20.1" cy="29.2" rx="2.2" ry="1.1"/>
	<circle class="st5" cx="15.8" cy="27.7" r="0.7"/>
	<circle class="st5" cx="24.8" cy="27.7" r="0.7"/>
	<path class="st2" d="M52.8,34.1l-0.4-1.1l0.2,0.5l-0.2-0.5c0,0,1.5-0.5,2.9-1.7c1.7-1.5,2.4-3.4,2.1-5.5l1.1-0.2
		C59.5,31.7,52.9,34.1,52.8,34.1z"/>
	<path class="st3" d="M62.3,22.6c0,2.4-2,4.4-4.4,4.4c-2.4,0-4.4-2-4.4-4.4s2.9-8.8,5.3-8.8C61.3,13.9,62.3,20.2,62.3,22.6z"/>
	<path class="st2" d="M28.2,42.8c0,0,0,6.9-0.4,8.1c-0.4,1.3-0.4,1.8-0.4,1.8h2.7l2.7-11.2L28.2,42.8z"/>
	<circle class="st6" cx="13.2" cy="30.1" r="1.3"/>
	<circle class="st6" cx="27.2" cy="30.1" r="1.3"/>
	<g>
		<defs>
			<path id="SVGID_1_" d="M40.1,22.2c0,10.7-7.9,21-18.6,21s-20-10.3-20-21S10.2,2.9,20.8,2.9S40.1,11.6,40.1,22.2z"/>
		</defs>
		<clipPath id="SVGID_00000136370746942950549210000002714007961525272496_">
			<use xlink:href="#SVGID_1_"  style="overflow:visible;"/>
		</clipPath>
		<g style="clip-path:url(#SVGID_00000136370746942950549210000002714007961525272496_);">
			<polyline class="st8" points="0.2,24.2 6.9,23.6 0.2,27.9 0.7,30.4 6.7,26.8 2.9,32.8 			"/>
			<line class="st8" x1="0.7" y1="19.7" x2="5.9" y2="20.3"/>
			<polyline class="st8" points="14.9,3 17.6,8.5 17.6,2.2 22.2,2 22,12.2 26.8,0.3 30.2,3.7 27.4,9.4 			"/>
			<line class="st8" x1="33.3" y1="5" x2="28" y2="11.1"/>
			<polyline class="st8" points="11.6,3.6 16.5,11.3 8.7,5.4 			"/>
			<polyline class="st8" points="42.8,26.5 34.7,24.3 41.2,28.7 40,31.8 33.2,29.3 38.7,35.6 36.8,37.7 31.4,33.9 			"/>
			<line class="st8" x1="15" y1="43" x2="17.3" y2="38.5"/>
			<line class="st8" x1="19.4" y1="44.8" x2="19.9" y2="40.7"/>
			<line class="st8" x1="22.5" y1="39.6" x2="22.8" y2="45.4"/>
			<line class="st8" x1="6.8" y1="38.4" x2="9.4" y2="35.3"/>
			<line class="st8" x1="3.9" y1="34.9" x2="7.7" y2="30.5"/>
		</g>
	</g>
</g>
</svg>
