<?xml version="1.0" encoding="utf-8"?>
<!-- Generator: Adobe Illustrator 28.3.0, SVG Export Plug-In . SVG Version: 6.00 Build 0)  -->
<svg version="1.1" id="Layer_1" xmlns="http://www.w3.org/2000/svg" xmlns:xlink="http://www.w3.org/1999/xlink" x="0px" y="0px"
	 viewBox="0 0 58.3 58.3" style="enable-background:new 0 0 58.3 58.3;" xml:space="preserve">
<style type="text/css">
	.st0{fill:#F8BB0C;}
	.st1{fill:#FFFFFF;}
</style>
<circle class="st0" cx="29" cy="28.9" r="29.2"/>
<g>
	<path class="st1" d="M22.3,41.1c-0.4-0.1-0.8-0.2-1.1-0.4c-1.2-0.6-1.8-1.6-1.9-2.9c0-0.1,0-0.1,0-0.2c0-5.8,0-11.6,0-17.4
		c0-1.5,0.7-2.5,2-3.2c2.1-1,4.7,0.5,4.8,2.9c0,0.2,0,0.4,0,0.6c0,5.7,0,11.3,0,17c0,0.8-0.2,1.6-0.7,2.2c-0.6,0.7-1.3,1.2-2.2,1.3
		c0,0-0.1,0-0.1,0C22.8,41.1,22.6,41.1,22.3,41.1z"/>
	<path class="st1" d="M35.1,41.1c-0.4-0.2-0.9-0.2-1.3-0.5c-1.2-0.7-1.7-1.7-1.7-3.1c0-5.2,0-10.3,0-15.5c0-0.7,0-1.4,0-2.2
		c0.1-1.7,1.5-3.1,3.2-3.2c1.8-0.1,3.3,1.2,3.5,2.9c0,0.2,0,0.4,0,0.6c0,5.8,0,11.6,0,17.3c0,1.7-1,3.1-2.7,3.4
		c-0.1,0-0.2,0.1-0.3,0.1C35.6,41.1,35.3,41.1,35.1,41.1z"/>
</g>
</svg>
