<?xml version="1.0" encoding="utf-8"?>
<!-- Generator: Adobe Illustrator 28.3.0, SVG Export Plug-In . SVG Version: 6.00 Build 0)  -->
<svg version="1.1" id="Layer_1" xmlns="http://www.w3.org/2000/svg" xmlns:xlink="http://www.w3.org/1999/xlink" x="0px" y="0px"
	 viewBox="0 0 58.3 58.3" style="enable-background:new 0 0 58.3 58.3;" xml:space="preserve">
<style type="text/css">
	.st0{fill:#F8BB0C;}
	.st1{fill:#FFFFFF;}
</style>
<circle class="st0" cx="29" cy="28.9" r="29.2"/>
<g>
	<path class="st1" d="M23.8,37.9c-0.1,0-0.3,0-0.4,0c0,0,0,0-0.1,0c-0.5-0.1-0.9-0.4-1.1-0.8c-0.2-0.4-0.3-0.9-0.3-1.4
		c0-4.5,0-9.1,0-13.6c0-0.3,0-0.7,0.1-1c0.2-0.8,0.8-1.3,1.6-1.2c0.4,0,0.9,0.2,1.2,0.4c4,2.3,8,4.6,11.9,6.9
		c0.3,0.2,0.6,0.4,0.8,0.6c0.6,0.6,0.7,1.5,0.1,2.2c-0.2,0.3-0.6,0.5-0.9,0.7c-3.8,2.2-7.5,4.3-11.3,6.5
		C25,37.4,24.4,37.8,23.8,37.9z"/>
</g>
</svg>
