<?xml version="1.0" encoding="UTF-8"?><svg id="Layer_1" xmlns="http://www.w3.org/2000/svg" viewBox="0 0 58.32 58.32"><defs><style>.cls-1{fill:#e95614;}.cls-1,.cls-2{stroke-width:0px;}.cls-2{fill:#fff;}</style></defs><circle class="cls-1" cx="29.16" cy="29.16" r="29.16"/><path class="cls-2" d="M23.94,37.2h-.42s-.04-.02-.06-.03c-.5-.08-.85-.36-1.09-.8-.23-.43-.28-.89-.28-1.36,0-4.55,0-9.1,0-13.64,0-.33.04-.67.13-.99.21-.81.85-1.26,1.64-1.2.45.03.85.21,1.24.43,3.98,2.28,7.97,4.57,11.94,6.86.28.16.55.36.78.59.65.64.68,1.46.1,2.16-.25.31-.57.52-.91.72-3.77,2.16-7.55,4.33-11.32,6.49-.56.32-1.1.67-1.75.78Z"/></svg>