<?xml version="1.0" encoding="UTF-8"?><svg id="Layer_1" xmlns="http://www.w3.org/2000/svg" viewBox="0 0 58.32 58.32"><defs><style>.cls-1{fill:#5fae2f;}.cls-1,.cls-2{stroke-width:0px;}.cls-2{fill:#fff;}</style></defs><circle class="cls-1" cx="29.16" cy="29.16" r="29.16"/><path class="cls-2" d="M42.43,22.16c-.13.63-.53,1.08-.97,1.52-5.1,5.09-10.19,10.19-15.29,15.28-.4.4-.86.62-1.42.45-.23-.07-.47-.21-.64-.37-2.54-2.52-5.07-5.05-7.59-7.58-.86-.87-.85-2.09.01-2.96.29-.29.57-.58.86-.86.87-.86,2.09-.86,2.96,0,1.51,1.5,3.02,3.02,4.53,4.53.07.07.1.16.2.31.12-.17.17-.26.25-.33,4.18-4.18,8.36-8.36,12.53-12.54.99-.99,2.16-.99,3.15,0,.14.14.28.29.42.42.47.42.86.89,1,1.53v.62Z"/></svg>